<?xml version="1.0" standalone="no"?><!-- Generator: Gravit.io --><svg xmlns="http://www.w3.org/2000/svg" xmlns:xlink="http://www.w3.org/1999/xlink" style="isolation:isolate" viewBox="0 0 728 60" width="728" height="60"><defs><clipPath id="_clipPath_oxePGqNDAeZKS2SrV6oY9nQ4w0pY7Ksz"><rect width="728" height="60"/></clipPath></defs><g clip-path="url(#_clipPath_oxePGqNDAeZKS2SrV6oY9nQ4w0pY7Ksz)"><linearGradient id="_lgradient_3" x1="0%" y1="0%" x2="99.99999999999997%" y2="99.9999999999999%"><stop offset="0%" stop-opacity="1" style="stop-color:rgb(141,185,255)"/><stop offset="100%" stop-opacity="1" style="stop-color:rgb(82,174,225)"/></linearGradient><rect x="0" y="0" width="728" height="60" transform="matrix(1,0,0,1,0,0)" fill="url(#_lgradient_3)"/><clipPath id="_clipPath_SGf7MNVihHgZFtiB3UCHHRIaAGUGocBm"><linearGradient id="_lgradient_3" x1="0%" y1="0%" x2="99.99999999999997%" y2="99.9999999999999%"><stop offset="0%" stop-opacity="1" style="stop-color:rgb(141,185,255)"/><stop offset="100%" stop-opacity="1" style="stop-color:rgb(82,174,225)"/></linearGradient><rect x="0" y="0" width="728" height="60" transform="matrix(1,0,0,1,0,0)" fill="url(#_lgradient_3)"/></clipPath><g clip-path="url(#_clipPath_SGf7MNVihHgZFtiB3UCHHRIaAGUGocBm)"><path d=" M -143.236 36.449 C -143.236 36.449 -143.236 -39.628 -143.236 -39.628 C -143.229 -43.948 -143.035 -48.333 -139.497 -51.427 C -133.956 -56.271 -121.87 -54.922 -121.705 -41.781 C -121.705 -41.781 -121.705 -3.025 -121.705 -3.025 C -113.803 -6.427 -107.645 -9.269 -98.738 -9.477 C -92.53 -9.613 -85.023 -8.228 -79.36 -5.673 C -47.645 8.631 -43.059 49.439 -67.877 70.683 C -72.65 74.767 -77.028 77.078 -82.949 79.03 C -87.492 80.53 -93.966 81.822 -98.738 81.636 C -104.437 81.413 -109.877 79.863 -115.245 78.076 C -120.406 88.877 -136.066 85.597 -137.25 73.77 C -137.652 69.743 -135.592 66.693 -133.188 63.722 C -139.726 57.657 -143.128 45.205 -143.236 36.449 Z  M 106.525 -8.709 C 115.539 -7.123 123.491 -3.52 130.209 2.782 C 139.425 11.423 144.843 24.521 144.556 37.167 C 144.427 42.6 142.525 50.128 140.35 55.109 C 124.59 91.188 70.546 89.81 56.587 52.956 C 54.664 47.86 53.48 43.375 53.415 37.884 C 53.415 37.884 53.415 -41.781 53.415 -41.781 C 53.58 -55.094 65.659 -56.235 71.121 -51.319 C 74.81 -48.003 74.939 -43.489 74.946 -38.91 C 74.946 -38.91 74.946 -3.025 74.946 -3.025 C 86.824 -8.142 93.176 -11.049 106.525 -8.709 Z  M 196.956 -9.484 C 203.25 -9.484 210.57 -7.783 216.334 -5.271 C 221.264 -3.111 227.688 1.54 231.19 5.588 C 246.893 23.724 246.692 51.686 229.188 68.624 C 220.877 76.669 212.393 79.648 201.262 81.248 C 195.291 82.102 188.322 81.026 182.602 79.138 C 165.398 73.475 151.956 57.026 151.74 38.602 C 151.74 38.602 151.74 -14.508 151.74 -14.508 C 151.74 -14.508 151.74 -42.498 151.74 -42.498 C 151.834 -49.41 155.867 -54.534 163.224 -53.903 C 172.051 -53.149 173.257 -44.565 173.271 -37.474 C 173.271 -37.474 173.271 -3.025 173.271 -3.025 C 180.879 -6.929 188.3 -9.484 196.956 -9.484 Z  M 270.879 -41.781 C 270.879 -41.781 270.879 53.674 270.879 53.674 C 270.879 57.478 271.245 71.846 270.413 74.487 C 268.927 79.217 264.248 82.009 259.396 81.521 C 251.86 80.767 250.073 75.241 250.066 68.746 C 250.066 68.746 250.066 -23.12 250.066 -23.12 C 250.066 -23.12 250.066 -41.063 250.066 -41.063 C 250.073 -43.431 249.937 -46.065 251.006 -48.24 C 252.391 -51.039 254.487 -52.36 257.243 -53.515 C 266.063 -55.338 270.836 -50.407 270.879 -41.781 Z  M -23.379 4.87 C -23.379 4.87 -23.379 28.554 -23.379 28.554 C -23.379 37.791 -24.212 43.963 -17.509 51.521 C -2.329 68.631 24.441 58.102 24.707 35.731 C 24.707 35.731 24.707 4.87 24.707 4.87 C 24.714 1.073 24.635 -1.991 27.161 -5.149 C 31.704 -10.826 40.496 -10.754 44.422 -4.396 C 46.302 -1.345 46.231 1.454 46.238 4.87 C 46.238 4.87 46.238 25.683 46.238 25.683 C 46.238 25.683 46.238 35.731 46.238 35.731 C 46.216 50.258 39.592 64.439 27.578 72.901 C 23.472 75.794 20.128 77.466 15.377 79.03 C 10.834 80.53 4.36 81.822 -0.413 81.636 C -20.064 80.875 -37.253 68.38 -42.958 49.368 C -45.564 40.676 -44.91 32.473 -44.91 23.53 C -44.91 23.53 -44.91 3.435 -44.91 3.435 C -44.896 0.148 -44.774 -2.293 -42.779 -5.106 C -41.028 -7.582 -39.068 -8.278 -36.298 -9.104 C -26.681 -10.46 -23.394 -3.412 -23.379 4.87 Z  M 328.295 12.384 C 313.647 9.621 298.776 22.095 299.652 37.167 C 300.448 50.86 313.877 62.272 327.578 59.803 C 334.783 58.504 340.116 52.102 347.666 55.77 C 350.006 56.904 351.513 58.447 352.532 60.851 C 356.221 69.549 349.037 74.875 341.932 77.753 C 328.561 83.172 313.683 82.935 301.023 75.593 C 295.216 72.219 290.896 68.466 286.977 63.004 C 273.276 43.927 275.788 16.963 293.846 1.497 C 301.238 -4.833 310.762 -8.429 320.401 -9.362 C 325.891 -9.893 332.379 -8.982 337.626 -7.309 C 352.338 -2.637 364.023 9.212 367.841 24.248 C 369.714 31.59 371.386 43.095 362.027 46.03 C 360.298 46.576 358.102 46.497 356.286 46.497 C 356.286 46.497 320.401 46.497 320.401 46.497 C 314.02 46.49 308.114 44.674 307.554 37.167 C 307.181 32.179 309.621 27.535 314.659 26.093 C 316.755 25.49 322.92 25.683 325.425 25.683 C 325.425 25.683 345.52 25.683 345.52 25.683 C 341.537 19.31 335.939 13.827 328.295 12.384 Z  M -119.681 25.683 C -121.698 29.817 -121.346 32.43 -122.43 34.102 C -123.664 36.004 -125.925 36.277 -128.085 38.164 C -132.018 41.581 -132.757 47.207 -129.815 51.506 C -127.303 55.188 -124.511 56.021 -120.269 55.798 C -116.961 55.619 -115.863 54.528 -113.81 55.045 C -111.183 55.698 -107.659 59.918 -98.738 60.126 C -76.812 60.628 -65.157 35.085 -80.207 19.289 C -82.568 16.813 -86.229 14.681 -89.408 13.432 C -93.427 11.853 -97.382 11.839 -101.609 12.262 C -109.855 13.82 -115.934 17.99 -119.681 25.683 Z  M 84.276 16.734 C 64.424 32.028 77.946 63.844 102.936 59.817 C 123.118 56.566 129.901 31.526 115.109 17.918 C 109.231 12.514 101.982 11.437 94.324 12.277 C 90.527 13.131 87.398 14.329 84.276 16.734 Z  M 183.319 16.066 C 175.094 21.657 173.164 28.526 173.271 37.884 C 173.444 51.973 187.008 61.87 200.544 59.918 C 219.929 57.126 228.276 33.485 214.769 19.289 C 208.697 12.908 201.054 11.423 192.649 12.262 C 189.104 12.959 186.334 14.014 183.319 16.066 Z  M -78.865 26.401 C -77.623 28.683 -75.011 34.805 -78.865 36.27 C -82.188 37.626 -82.992 31.942 -86.056 28.683 C -90.944 23.487 -95.745 24.98 -98.573 22.92 C -101.788 20.566 -100.956 17.358 -97.942 15.449 C -90.427 13.619 -82.604 20.329 -78.865 26.401 Z  M -133.655 85.971 C -131.516 89.021 -131.078 91.683 -131.035 95.301 C -130.942 104.329 -135.521 111.37 -144.671 113.473 C -163.396 117.772 -174.427 94.719 -161.15 82.518 C -158.588 80.164 -156.549 79.346 -153.284 78.449 C -145.016 77.136 -138.678 78.786 -133.655 85.971 Z  M -109.504 84.614 C -98.645 85.669 -101.537 101.616 -111.657 100.052 C -118.547 98.983 -121.382 89.25 -113.796 85.066 C -112.159 84.664 -111.233 84.449 -109.504 84.614 Z " fill="rgb(255,255,255)" fill-opacity="0.09"/></g><path d=" M 646.835 31.954 L 646.835 31.954 L 646.835 31.954 Q 646.835 30.726 647.26 29.631 L 647.26 29.631 L 647.26 29.631 Q 647.684 28.537 648.455 27.722 L 648.455 27.722 L 648.455 27.722 Q 649.225 26.906 650.297 26.437 L 650.297 26.437 L 650.297 26.437 Q 651.369 25.968 652.665 25.968 L 652.665 25.968 L 652.665 25.968 Q 654.317 25.968 655.546 26.716 L 655.546 26.716 L 655.546 26.716 Q 656.774 27.465 657.4 28.738 L 657.4 28.738 L 655.926 29.207 L 655.926 29.207 Q 655.434 28.313 654.552 27.811 L 654.552 27.811 L 654.552 27.811 Q 653.67 27.308 652.598 27.308 L 652.598 27.308 L 652.598 27.308 Q 651.704 27.308 650.934 27.666 L 650.934 27.666 L 650.934 27.666 Q 650.163 28.023 649.594 28.637 L 649.594 28.637 L 649.594 28.637 Q 649.024 29.251 648.7 30.1 L 648.7 30.1 L 648.7 30.1 Q 648.376 30.949 648.376 31.954 L 648.376 31.954 L 648.376 31.954 Q 648.376 32.937 648.711 33.808 L 648.711 33.808 L 648.711 33.808 Q 649.046 34.679 649.627 35.315 L 649.627 35.315 L 649.627 35.315 Q 650.208 35.952 650.978 36.32 L 650.978 36.32 L 650.978 36.32 Q 651.749 36.689 652.62 36.689 L 652.62 36.689 L 652.62 36.689 Q 653.178 36.689 653.726 36.533 L 653.726 36.533 L 653.726 36.533 Q 654.273 36.376 654.742 36.097 L 654.742 36.097 L 654.742 36.097 Q 655.211 35.818 655.546 35.46 L 655.546 35.46 L 655.546 35.46 Q 655.881 35.103 656.015 34.701 L 656.015 34.701 L 657.511 35.148 L 657.511 35.148 Q 657.266 35.773 656.797 36.298 L 656.797 36.298 L 656.797 36.298 Q 656.328 36.823 655.691 37.214 L 655.691 37.214 L 655.691 37.214 Q 655.055 37.605 654.284 37.817 L 654.284 37.817 L 654.284 37.817 Q 653.513 38.029 652.687 38.029 L 652.687 38.029 L 652.687 38.029 Q 651.414 38.029 650.342 37.549 L 650.342 37.549 L 650.342 37.549 Q 649.27 37.069 648.488 36.231 L 648.488 36.231 L 648.488 36.231 Q 647.706 35.393 647.271 34.299 L 647.271 34.299 L 647.271 34.299 Q 646.835 33.205 646.835 31.954 Z  M 664.859 38.029 L 664.859 38.029 L 664.859 38.029 Q 663.586 38.029 662.537 37.549 L 662.537 37.549 L 662.537 37.549 Q 661.487 37.069 660.716 36.242 L 660.716 36.242 L 660.716 36.242 Q 659.946 35.416 659.521 34.321 L 659.521 34.321 L 659.521 34.321 Q 659.097 33.227 659.097 32.021 L 659.097 32.021 L 659.097 32.021 Q 659.097 30.793 659.533 29.698 L 659.533 29.698 L 659.533 29.698 Q 659.968 28.604 660.739 27.777 L 660.739 27.777 L 660.739 27.777 Q 661.509 26.951 662.559 26.46 L 662.559 26.46 L 662.559 26.46 Q 663.609 25.968 664.859 25.968 L 664.859 25.968 L 664.859 25.968 Q 666.11 25.968 667.171 26.46 L 667.171 26.46 L 667.171 26.46 Q 668.232 26.951 669.003 27.777 L 669.003 27.777 L 669.003 27.777 Q 669.773 28.604 670.209 29.698 L 670.209 29.698 L 670.209 29.698 Q 670.644 30.793 670.644 32.021 L 670.644 32.021 L 670.644 32.021 Q 670.644 33.227 670.22 34.321 L 670.22 34.321 L 670.22 34.321 Q 669.795 35.416 669.025 36.242 L 669.025 36.242 L 669.025 36.242 Q 668.254 37.069 667.193 37.549 L 667.193 37.549 L 667.193 37.549 Q 666.133 38.029 664.859 38.029 Z  M 660.638 32.043 L 660.638 32.043 L 660.638 32.043 Q 660.638 33.026 660.973 33.864 L 660.973 33.864 L 660.973 33.864 Q 661.308 34.701 661.878 35.338 L 661.878 35.338 L 661.878 35.338 Q 662.447 35.974 663.218 36.332 L 663.218 36.332 L 663.218 36.332 Q 663.988 36.689 664.859 36.689 L 664.859 36.689 L 664.859 36.689 Q 665.73 36.689 666.501 36.32 L 666.501 36.32 L 666.501 36.32 Q 667.272 35.952 667.852 35.315 L 667.852 35.315 L 667.852 35.315 Q 668.433 34.679 668.768 33.83 L 668.768 33.83 L 668.768 33.83 Q 669.103 32.981 669.103 31.999 L 669.103 31.999 L 669.103 31.999 Q 669.103 31.038 668.768 30.178 L 668.768 30.178 L 668.768 30.178 Q 668.433 29.318 667.852 28.682 L 667.852 28.682 L 667.852 28.682 Q 667.272 28.045 666.501 27.677 L 666.501 27.677 L 666.501 27.677 Q 665.73 27.308 664.859 27.308 L 664.859 27.308 L 664.859 27.308 Q 663.988 27.308 663.229 27.677 L 663.229 27.677 L 663.229 27.677 Q 662.47 28.045 661.889 28.693 L 661.889 28.693 L 661.889 28.693 Q 661.308 29.341 660.973 30.201 L 660.973 30.201 L 660.973 30.201 Q 660.638 31.061 660.638 32.043 Z  M 677.97 38.029 L 677.97 38.029 L 677.97 38.029 Q 676.764 38.029 675.736 37.526 L 675.736 37.526 L 675.736 37.526 Q 674.709 37.024 673.972 36.198 L 673.972 36.198 L 673.972 36.198 Q 673.235 35.371 672.822 34.288 L 672.822 34.288 L 672.822 34.288 Q 672.409 33.205 672.409 32.021 L 672.409 32.021 L 672.409 32.021 Q 672.409 30.793 672.811 29.687 L 672.811 29.687 L 672.811 29.687 Q 673.213 28.581 673.916 27.755 L 673.916 27.755 L 673.916 27.755 Q 674.62 26.929 675.591 26.448 L 675.591 26.448 L 675.591 26.448 Q 676.563 25.968 677.724 25.968 L 677.724 25.968 L 677.724 25.968 Q 679.198 25.968 680.337 26.739 L 680.337 26.739 L 680.337 26.739 Q 681.476 27.509 682.124 28.604 L 682.124 28.604 L 682.124 21.501 L 683.643 21.501 L 683.643 35.84 L 683.643 35.84 Q 683.643 36.466 684.179 36.466 L 684.179 36.466 L 684.179 37.806 L 684.179 37.806 Q 683.844 37.873 683.643 37.873 L 683.643 37.873 L 683.643 37.873 Q 683.107 37.873 682.705 37.526 L 682.705 37.526 L 682.705 37.526 Q 682.303 37.18 682.303 36.689 L 682.303 36.689 L 682.303 35.55 L 682.303 35.55 Q 681.61 36.689 680.427 37.359 L 680.427 37.359 L 680.427 37.359 Q 679.243 38.029 677.97 38.029 Z  M 678.305 36.689 L 678.305 36.689 L 678.305 36.689 Q 678.863 36.689 679.5 36.466 L 679.5 36.466 L 679.5 36.466 Q 680.136 36.242 680.695 35.851 L 680.695 35.851 L 680.695 35.851 Q 681.253 35.46 681.644 34.936 L 681.644 34.936 L 681.644 34.936 Q 682.035 34.411 682.124 33.808 L 682.124 33.808 L 682.124 30.212 L 682.124 30.212 Q 681.901 29.609 681.476 29.084 L 681.476 29.084 L 681.476 29.084 Q 681.052 28.559 680.505 28.157 L 680.505 28.157 L 680.505 28.157 Q 679.958 27.755 679.332 27.532 L 679.332 27.532 L 679.332 27.532 Q 678.707 27.308 678.104 27.308 L 678.104 27.308 L 678.104 27.308 Q 677.166 27.308 676.406 27.71 L 676.406 27.71 L 676.406 27.71 Q 675.647 28.112 675.1 28.771 L 675.1 28.771 L 675.1 28.771 Q 674.553 29.43 674.262 30.279 L 674.262 30.279 L 674.262 30.279 Q 673.972 31.128 673.972 32.021 L 673.972 32.021 L 673.972 32.021 Q 673.972 32.959 674.307 33.808 L 674.307 33.808 L 674.307 33.808 Q 674.642 34.656 675.223 35.293 L 675.223 35.293 L 675.223 35.293 Q 675.803 35.93 676.596 36.309 L 676.596 36.309 L 676.596 36.309 Q 677.389 36.689 678.305 36.689 Z  M 692.108 38.029 L 692.108 38.029 L 692.108 38.029 Q 690.835 38.029 689.774 37.549 L 689.774 37.549 L 689.774 37.549 Q 688.713 37.069 687.931 36.231 L 687.931 36.231 L 687.931 36.231 Q 687.149 35.393 686.714 34.299 L 686.714 34.299 L 686.714 34.299 Q 686.278 33.205 686.278 31.954 L 686.278 31.954 L 686.278 31.954 Q 686.278 30.726 686.714 29.642 L 686.714 29.642 L 686.714 29.642 Q 687.149 28.559 687.92 27.744 L 687.92 27.744 L 687.92 27.744 Q 688.691 26.929 689.763 26.448 L 689.763 26.448 L 689.763 26.448 Q 690.835 25.968 692.085 25.968 L 692.085 25.968 L 692.085 25.968 Q 693.359 25.968 694.419 26.448 L 694.419 26.448 L 694.419 26.448 Q 695.48 26.929 696.24 27.755 L 696.24 27.755 L 696.24 27.755 Q 696.999 28.581 697.423 29.653 L 697.423 29.653 L 697.423 29.653 Q 697.848 30.726 697.848 31.932 L 697.848 31.932 L 697.848 31.932 Q 697.848 32.11 697.848 32.289 L 697.848 32.289 L 697.848 32.289 Q 697.848 32.468 697.825 32.535 L 697.825 32.535 L 687.864 32.535 L 687.864 32.535 Q 687.931 33.473 688.3 34.266 L 688.3 34.266 L 688.3 34.266 Q 688.668 35.058 689.249 35.639 L 689.249 35.639 L 689.249 35.639 Q 689.83 36.22 690.578 36.544 L 690.578 36.544 L 690.578 36.544 Q 691.326 36.868 692.175 36.868 L 692.175 36.868 L 692.175 36.868 Q 692.733 36.868 693.292 36.711 L 693.292 36.711 L 693.292 36.711 Q 693.85 36.555 694.319 36.287 L 694.319 36.287 L 694.319 36.287 Q 694.788 36.019 695.168 35.628 L 695.168 35.628 L 695.168 35.628 Q 695.547 35.237 695.748 34.768 L 695.748 34.768 L 697.066 35.125 L 697.066 35.125 Q 696.798 35.773 696.307 36.298 L 696.307 36.298 L 696.307 36.298 Q 695.815 36.823 695.168 37.214 L 695.168 37.214 L 695.168 37.214 Q 694.52 37.605 693.738 37.817 L 693.738 37.817 L 693.738 37.817 Q 692.957 38.029 692.108 38.029 Z  M 687.842 31.373 L 696.396 31.373 L 696.396 31.373 Q 696.329 30.435 695.961 29.665 L 695.961 29.665 L 695.961 29.665 Q 695.592 28.894 695.022 28.336 L 695.022 28.336 L 695.022 28.336 Q 694.453 27.777 693.705 27.465 L 693.705 27.465 L 693.705 27.465 Q 692.957 27.152 692.108 27.152 L 692.108 27.152 L 692.108 27.152 Q 691.259 27.152 690.5 27.465 L 690.5 27.465 L 690.5 27.465 Q 689.74 27.777 689.171 28.336 L 689.171 28.336 L 689.171 28.336 Q 688.601 28.894 688.255 29.676 L 688.255 29.676 L 688.255 29.676 Q 687.909 30.458 687.842 31.373 L 687.842 31.373 Z  M 706 26.125 L 706 27.509 L 706 27.509 Q 704.459 27.554 703.32 28.358 L 703.32 28.358 L 703.32 28.358 Q 702.181 29.162 701.712 30.569 L 701.712 30.569 L 701.712 37.806 L 700.193 37.806 L 700.193 26.169 L 701.622 26.169 L 701.622 28.961 L 701.622 28.961 Q 702.27 27.621 703.364 26.862 L 703.364 26.862 L 703.364 26.862 Q 704.459 26.102 705.71 26.102 L 705.71 26.102 L 705.71 26.102 Q 705.888 26.102 706 26.125 L 706 26.125 Z  M 632.697 38.029 L 632.697 38.029 L 632.697 38.029 Q 631.871 38.029 631.167 37.75 L 631.167 37.75 L 631.167 37.75 Q 630.464 37.471 629.939 36.979 L 629.939 36.979 L 629.939 36.979 Q 629.414 36.488 629.124 35.829 L 629.124 35.829 L 629.124 35.829 Q 628.834 35.17 628.834 34.411 L 628.834 34.411 L 628.834 34.411 Q 628.834 33.651 629.191 33.004 L 629.191 33.004 L 629.191 33.004 Q 629.548 32.356 630.196 31.887 L 630.196 31.887 L 630.196 31.887 Q 630.844 31.418 631.737 31.161 L 631.737 31.161 L 631.737 31.161 Q 632.63 30.904 633.702 30.904 L 633.702 30.904 L 633.702 30.904 Q 634.596 30.904 635.512 31.061 L 635.512 31.061 L 635.512 31.061 Q 636.427 31.217 637.142 31.507 L 637.142 31.507 L 637.142 30.458 L 637.142 30.458 Q 637.142 28.916 636.271 28.012 L 636.271 28.012 L 636.271 28.012 Q 635.4 27.107 633.859 27.107 L 633.859 27.107 L 633.859 27.107 Q 632.965 27.107 632.027 27.465 L 632.027 27.465 L 632.027 27.465 Q 631.089 27.822 630.129 28.492 L 630.129 28.492 L 629.593 27.487 L 629.593 27.487 Q 631.849 25.968 633.971 25.968 L 633.971 25.968 L 633.971 25.968 Q 636.159 25.968 637.41 27.197 L 637.41 27.197 L 637.41 27.197 Q 638.661 28.425 638.661 30.592 L 638.661 30.592 L 638.661 35.84 L 638.661 35.84 Q 638.661 36.466 639.219 36.466 L 639.219 36.466 L 639.219 37.806 L 639.219 37.806 Q 638.839 37.873 638.638 37.873 L 638.638 37.873 L 638.638 37.873 Q 638.058 37.873 637.734 37.582 L 637.734 37.582 L 637.734 37.582 Q 637.41 37.292 637.388 36.778 L 637.388 36.778 L 637.343 35.863 L 637.343 35.863 Q 636.539 36.912 635.322 37.471 L 635.322 37.471 L 635.322 37.471 Q 634.105 38.029 632.697 38.029 Z  M 633.055 36.868 L 633.055 36.868 L 633.055 36.868 Q 634.239 36.868 635.232 36.421 L 635.232 36.421 L 635.232 36.421 Q 636.226 35.974 636.74 35.237 L 636.74 35.237 L 636.74 35.237 Q 636.941 35.036 637.042 34.802 L 637.042 34.802 L 637.042 34.802 Q 637.142 34.567 637.142 34.366 L 637.142 34.366 L 637.142 32.468 L 637.142 32.468 Q 636.383 32.177 635.567 32.021 L 635.567 32.021 L 635.567 32.021 Q 634.752 31.865 633.904 31.865 L 633.904 31.865 L 633.904 31.865 Q 632.295 31.865 631.29 32.535 L 631.29 32.535 L 631.29 32.535 Q 630.285 33.205 630.285 34.299 L 630.285 34.299 L 630.285 34.299 Q 630.285 34.835 630.497 35.304 L 630.497 35.304 L 630.497 35.304 Q 630.71 35.773 631.078 36.119 L 631.078 36.119 L 631.078 36.119 Q 631.447 36.466 631.96 36.667 L 631.96 36.667 L 631.96 36.667 Q 632.474 36.868 633.055 36.868 Z  M 602.881 38.029 L 602.881 38.029 L 602.881 38.029 Q 601.496 38.029 600.346 37.337 L 600.346 37.337 L 600.346 37.337 Q 599.195 36.644 598.548 35.55 L 598.548 35.55 L 598.548 37.806 L 597.185 37.806 L 597.185 21.501 L 598.704 21.501 L 598.704 28.604 L 598.704 28.604 Q 599.486 27.42 600.58 26.694 L 600.58 26.694 L 600.58 26.694 Q 601.675 25.968 603.126 25.968 L 603.126 25.968 L 603.126 25.968 Q 604.355 25.968 605.326 26.482 L 605.326 26.482 L 605.326 26.482 Q 606.298 26.996 606.979 27.856 L 606.979 27.856 L 606.979 27.856 Q 607.66 28.715 608.029 29.799 L 608.029 29.799 L 608.029 29.799 Q 608.397 30.882 608.397 32.021 L 608.397 32.021 L 608.397 32.021 Q 608.397 33.249 607.973 34.344 L 607.973 34.344 L 607.973 34.344 Q 607.549 35.438 606.811 36.253 L 606.811 36.253 L 606.811 36.253 Q 606.074 37.069 605.058 37.549 L 605.058 37.549 L 605.058 37.549 Q 604.042 38.029 602.881 38.029 Z  M 602.523 36.689 L 602.523 36.689 L 602.523 36.689 Q 603.484 36.689 604.276 36.298 L 604.276 36.298 L 604.276 36.298 Q 605.069 35.907 605.639 35.248 L 605.639 35.248 L 605.639 35.248 Q 606.208 34.589 606.532 33.752 L 606.532 33.752 L 606.532 33.752 Q 606.856 32.914 606.856 32.021 L 606.856 32.021 L 606.856 32.021 Q 606.856 31.105 606.555 30.257 L 606.555 30.257 L 606.555 30.257 Q 606.253 29.408 605.706 28.749 L 605.706 28.749 L 605.706 28.749 Q 605.159 28.09 604.388 27.699 L 604.388 27.699 L 604.388 27.699 Q 603.618 27.308 602.702 27.308 L 602.702 27.308 L 602.702 27.308 Q 602.01 27.308 601.406 27.543 L 601.406 27.543 L 601.406 27.543 Q 600.803 27.777 600.29 28.179 L 600.29 28.179 L 600.29 28.179 Q 599.776 28.581 599.374 29.106 L 599.374 29.106 L 599.374 29.106 Q 598.972 29.631 598.704 30.212 L 598.704 30.212 L 598.704 33.83 L 598.704 33.83 Q 598.793 34.433 599.184 34.958 L 599.184 34.958 L 599.184 34.958 Q 599.575 35.483 600.122 35.863 L 600.122 35.863 L 600.122 35.863 Q 600.669 36.242 601.306 36.466 L 601.306 36.466 L 601.306 36.466 Q 601.943 36.689 602.523 36.689 Z  M 615.991 38.029 L 615.991 38.029 L 615.991 38.029 Q 614.718 38.029 613.657 37.549 L 613.657 37.549 L 613.657 37.549 Q 612.596 37.069 611.814 36.231 L 611.814 36.231 L 611.814 36.231 Q 611.033 35.393 610.597 34.299 L 610.597 34.299 L 610.597 34.299 Q 610.162 33.205 610.162 31.954 L 610.162 31.954 L 610.162 31.954 Q 610.162 30.726 610.597 29.642 L 610.597 29.642 L 610.597 29.642 Q 611.033 28.559 611.803 27.744 L 611.803 27.744 L 611.803 27.744 Q 612.574 26.929 613.646 26.448 L 613.646 26.448 L 613.646 26.448 Q 614.718 25.968 615.969 25.968 L 615.969 25.968 L 615.969 25.968 Q 617.242 25.968 618.303 26.448 L 618.303 26.448 L 618.303 26.448 Q 619.364 26.929 620.123 27.755 L 620.123 27.755 L 620.123 27.755 Q 620.882 28.581 621.307 29.653 L 621.307 29.653 L 621.307 29.653 Q 621.731 30.726 621.731 31.932 L 621.731 31.932 L 621.731 31.932 Q 621.731 32.11 621.731 32.289 L 621.731 32.289 L 621.731 32.289 Q 621.731 32.468 621.709 32.535 L 621.709 32.535 L 611.747 32.535 L 611.747 32.535 Q 611.814 33.473 612.183 34.266 L 612.183 34.266 L 612.183 34.266 Q 612.552 35.058 613.132 35.639 L 613.132 35.639 L 613.132 35.639 Q 613.713 36.22 614.461 36.544 L 614.461 36.544 L 614.461 36.544 Q 615.209 36.868 616.058 36.868 L 616.058 36.868 L 616.058 36.868 Q 616.616 36.868 617.175 36.711 L 617.175 36.711 L 617.175 36.711 Q 617.733 36.555 618.202 36.287 L 618.202 36.287 L 618.202 36.287 Q 618.671 36.019 619.051 35.628 L 619.051 35.628 L 619.051 35.628 Q 619.431 35.237 619.632 34.768 L 619.632 34.768 L 620.949 35.125 L 620.949 35.125 Q 620.681 35.773 620.19 36.298 L 620.19 36.298 L 620.19 36.298 Q 619.699 36.823 619.051 37.214 L 619.051 37.214 L 619.051 37.214 Q 618.403 37.605 617.622 37.817 L 617.622 37.817 L 617.622 37.817 Q 616.84 38.029 615.991 38.029 Z  M 611.725 31.373 L 620.279 31.373 L 620.279 31.373 Q 620.212 30.435 619.844 29.665 L 619.844 29.665 L 619.844 29.665 Q 619.475 28.894 618.906 28.336 L 618.906 28.336 L 618.906 28.336 Q 618.336 27.777 617.588 27.465 L 617.588 27.465 L 617.588 27.465 Q 616.84 27.152 615.991 27.152 L 615.991 27.152 L 615.991 27.152 Q 615.142 27.152 614.383 27.465 L 614.383 27.465 L 614.383 27.465 Q 613.624 27.777 613.054 28.336 L 613.054 28.336 L 613.054 28.336 Q 612.485 28.894 612.138 29.676 L 612.138 29.676 L 612.138 29.676 Q 611.792 30.458 611.725 31.373 L 611.725 31.373 Z  M 575.9 36.019 L 576.302 37.247 L 576.302 37.247 Q 576.168 37.314 575.911 37.426 L 575.911 37.426 L 575.911 37.426 Q 575.655 37.538 575.32 37.649 L 575.32 37.649 L 575.32 37.649 Q 574.985 37.761 574.56 37.85 L 574.56 37.85 L 574.56 37.85 Q 574.136 37.94 573.667 37.94 L 573.667 37.94 L 573.667 37.94 Q 573.175 37.94 572.729 37.806 L 572.729 37.806 L 572.729 37.806 Q 572.282 37.672 571.947 37.392 L 571.947 37.392 L 571.947 37.392 Q 571.612 37.113 571.411 36.689 L 571.411 36.689 L 571.411 36.689 Q 571.21 36.265 571.21 35.706 L 571.21 35.706 L 571.21 27.375 L 569.602 27.375 L 569.602 26.169 L 571.21 26.169 L 571.21 22.238 L 572.729 22.238 L 572.729 26.169 L 575.409 26.169 L 575.409 27.375 L 572.729 27.375 L 572.729 35.282 L 572.729 35.282 Q 572.773 35.93 573.187 36.231 L 573.187 36.231 L 573.187 36.231 Q 573.6 36.533 574.136 36.533 L 574.136 36.533 L 574.136 36.533 Q 574.784 36.533 575.275 36.32 L 575.275 36.32 L 575.275 36.32 Q 575.766 36.108 575.9 36.019 L 575.9 36.019 Z  M 583.159 38.029 L 583.159 38.029 L 583.159 38.029 Q 581.886 38.029 580.836 37.549 L 580.836 37.549 L 580.836 37.549 Q 579.786 37.069 579.016 36.242 L 579.016 36.242 L 579.016 36.242 Q 578.245 35.416 577.821 34.321 L 577.821 34.321 L 577.821 34.321 Q 577.397 33.227 577.397 32.021 L 577.397 32.021 L 577.397 32.021 Q 577.397 30.793 577.832 29.698 L 577.832 29.698 L 577.832 29.698 Q 578.268 28.604 579.038 27.777 L 579.038 27.777 L 579.038 27.777 Q 579.809 26.951 580.859 26.46 L 580.859 26.46 L 580.859 26.46 Q 581.908 25.968 583.159 25.968 L 583.159 25.968 L 583.159 25.968 Q 584.41 25.968 585.471 26.46 L 585.471 26.46 L 585.471 26.46 Q 586.532 26.951 587.302 27.777 L 587.302 27.777 L 587.302 27.777 Q 588.073 28.604 588.508 29.698 L 588.508 29.698 L 588.508 29.698 Q 588.944 30.793 588.944 32.021 L 588.944 32.021 L 588.944 32.021 Q 588.944 33.227 588.519 34.321 L 588.519 34.321 L 588.519 34.321 Q 588.095 35.416 587.324 36.242 L 587.324 36.242 L 587.324 36.242 Q 586.554 37.069 585.493 37.549 L 585.493 37.549 L 585.493 37.549 Q 584.432 38.029 583.159 38.029 Z  M 578.938 32.043 L 578.938 32.043 L 578.938 32.043 Q 578.938 33.026 579.273 33.864 L 579.273 33.864 L 579.273 33.864 Q 579.608 34.701 580.177 35.338 L 580.177 35.338 L 580.177 35.338 Q 580.747 35.974 581.517 36.332 L 581.517 36.332 L 581.517 36.332 Q 582.288 36.689 583.159 36.689 L 583.159 36.689 L 583.159 36.689 Q 584.03 36.689 584.801 36.32 L 584.801 36.32 L 584.801 36.32 Q 585.571 35.952 586.152 35.315 L 586.152 35.315 L 586.152 35.315 Q 586.733 34.679 587.068 33.83 L 587.068 33.83 L 587.068 33.83 Q 587.403 32.981 587.403 31.999 L 587.403 31.999 L 587.403 31.999 Q 587.403 31.038 587.068 30.178 L 587.068 30.178 L 587.068 30.178 Q 586.733 29.318 586.152 28.682 L 586.152 28.682 L 586.152 28.682 Q 585.571 28.045 584.801 27.677 L 584.801 27.677 L 584.801 27.677 Q 584.03 27.308 583.159 27.308 L 583.159 27.308 L 583.159 27.308 Q 582.288 27.308 581.529 27.677 L 581.529 27.677 L 581.529 27.677 Q 580.769 28.045 580.189 28.693 L 580.189 28.693 L 580.189 28.693 Q 579.608 29.341 579.273 30.201 L 579.273 30.201 L 579.273 30.201 Q 578.938 31.061 578.938 32.043 Z  M 521.672 30.994 L 521.672 37.806 L 520.153 37.806 L 520.153 31.306 L 520.153 31.306 Q 520.153 29.229 519.539 28.291 L 519.539 28.291 L 519.539 28.291 Q 518.924 27.353 517.651 27.353 L 517.651 27.353 L 517.651 27.353 Q 516.981 27.353 516.311 27.599 L 516.311 27.599 L 516.311 27.599 Q 515.641 27.844 515.072 28.291 L 515.072 28.291 L 515.072 28.291 Q 514.502 28.738 514.055 29.352 L 514.055 29.352 L 514.055 29.352 Q 513.609 29.966 513.408 30.681 L 513.408 30.681 L 513.408 37.806 L 511.889 37.806 L 511.889 26.169 L 513.274 26.169 L 513.274 28.805 L 513.274 28.805 Q 513.988 27.532 515.317 26.75 L 515.317 26.75 L 515.317 26.75 Q 516.646 25.968 518.21 25.968 L 518.21 25.968 L 518.21 25.968 Q 519.17 25.968 519.84 26.326 L 519.84 26.326 L 519.84 26.326 Q 520.51 26.683 520.912 27.331 L 520.912 27.331 L 520.912 27.331 Q 521.314 27.978 521.493 28.916 L 521.493 28.916 L 521.493 28.916 Q 521.672 29.854 521.672 30.994 L 521.672 30.994 Z  M 529.935 38.029 L 529.935 38.029 L 529.935 38.029 Q 528.662 38.029 527.601 37.549 L 527.601 37.549 L 527.601 37.549 Q 526.541 37.069 525.759 36.231 L 525.759 36.231 L 525.759 36.231 Q 524.977 35.393 524.542 34.299 L 524.542 34.299 L 524.542 34.299 Q 524.106 33.205 524.106 31.954 L 524.106 31.954 L 524.106 31.954 Q 524.106 30.726 524.542 29.642 L 524.542 29.642 L 524.542 29.642 Q 524.977 28.559 525.748 27.744 L 525.748 27.744 L 525.748 27.744 Q 526.518 26.929 527.59 26.448 L 527.59 26.448 L 527.59 26.448 Q 528.662 25.968 529.913 25.968 L 529.913 25.968 L 529.913 25.968 Q 531.186 25.968 532.247 26.448 L 532.247 26.448 L 532.247 26.448 Q 533.308 26.929 534.067 27.755 L 534.067 27.755 L 534.067 27.755 Q 534.827 28.581 535.251 29.653 L 535.251 29.653 L 535.251 29.653 Q 535.675 30.726 535.675 31.932 L 535.675 31.932 L 535.675 31.932 Q 535.675 32.11 535.675 32.289 L 535.675 32.289 L 535.675 32.289 Q 535.675 32.468 535.653 32.535 L 535.653 32.535 L 525.692 32.535 L 525.692 32.535 Q 525.759 33.473 526.127 34.266 L 526.127 34.266 L 526.127 34.266 Q 526.496 35.058 527.077 35.639 L 527.077 35.639 L 527.077 35.639 Q 527.657 36.22 528.405 36.544 L 528.405 36.544 L 528.405 36.544 Q 529.154 36.868 530.002 36.868 L 530.002 36.868 L 530.002 36.868 Q 530.561 36.868 531.119 36.711 L 531.119 36.711 L 531.119 36.711 Q 531.677 36.555 532.147 36.287 L 532.147 36.287 L 532.147 36.287 Q 532.616 36.019 532.995 35.628 L 532.995 35.628 L 532.995 35.628 Q 533.375 35.237 533.576 34.768 L 533.576 34.768 L 534.894 35.125 L 534.894 35.125 Q 534.626 35.773 534.134 36.298 L 534.134 36.298 L 534.134 36.298 Q 533.643 36.823 532.995 37.214 L 532.995 37.214 L 532.995 37.214 Q 532.348 37.605 531.566 37.817 L 531.566 37.817 L 531.566 37.817 Q 530.784 38.029 529.935 38.029 Z  M 525.669 31.373 L 534.224 31.373 L 534.224 31.373 Q 534.157 30.435 533.788 29.665 L 533.788 29.665 L 533.788 29.665 Q 533.42 28.894 532.85 28.336 L 532.85 28.336 L 532.85 28.336 Q 532.281 27.777 531.532 27.465 L 531.532 27.465 L 531.532 27.465 Q 530.784 27.152 529.935 27.152 L 529.935 27.152 L 529.935 27.152 Q 529.087 27.152 528.327 27.465 L 528.327 27.465 L 528.327 27.465 Q 527.568 27.777 526.998 28.336 L 526.998 28.336 L 526.998 28.336 Q 526.429 28.894 526.083 29.676 L 526.083 29.676 L 526.083 29.676 Q 525.736 30.458 525.669 31.373 L 525.669 31.373 Z  M 543.046 38.029 L 543.046 38.029 L 543.046 38.029 Q 541.773 38.029 540.712 37.549 L 540.712 37.549 L 540.712 37.549 Q 539.651 37.069 538.869 36.231 L 538.869 36.231 L 538.869 36.231 Q 538.088 35.393 537.652 34.299 L 537.652 34.299 L 537.652 34.299 Q 537.217 33.205 537.217 31.954 L 537.217 31.954 L 537.217 31.954 Q 537.217 30.726 537.652 29.642 L 537.652 29.642 L 537.652 29.642 Q 538.088 28.559 538.858 27.744 L 538.858 27.744 L 538.858 27.744 Q 539.629 26.929 540.701 26.448 L 540.701 26.448 L 540.701 26.448 Q 541.773 25.968 543.024 25.968 L 543.024 25.968 L 543.024 25.968 Q 544.297 25.968 545.358 26.448 L 545.358 26.448 L 545.358 26.448 Q 546.418 26.929 547.178 27.755 L 547.178 27.755 L 547.178 27.755 Q 547.937 28.581 548.362 29.653 L 548.362 29.653 L 548.362 29.653 Q 548.786 30.726 548.786 31.932 L 548.786 31.932 L 548.786 31.932 Q 548.786 32.11 548.786 32.289 L 548.786 32.289 L 548.786 32.289 Q 548.786 32.468 548.764 32.535 L 548.764 32.535 L 538.802 32.535 L 538.802 32.535 Q 538.869 33.473 539.238 34.266 L 539.238 34.266 L 539.238 34.266 Q 539.606 35.058 540.187 35.639 L 540.187 35.639 L 540.187 35.639 Q 540.768 36.22 541.516 36.544 L 541.516 36.544 L 541.516 36.544 Q 542.264 36.868 543.113 36.868 L 543.113 36.868 L 543.113 36.868 Q 543.671 36.868 544.23 36.711 L 544.23 36.711 L 544.23 36.711 Q 544.788 36.555 545.257 36.287 L 545.257 36.287 L 545.257 36.287 Q 545.726 36.019 546.106 35.628 L 546.106 35.628 L 546.106 35.628 Q 546.485 35.237 546.686 34.768 L 546.686 34.768 L 548.004 35.125 L 548.004 35.125 Q 547.736 35.773 547.245 36.298 L 547.245 36.298 L 547.245 36.298 Q 546.753 36.823 546.106 37.214 L 546.106 37.214 L 546.106 37.214 Q 545.458 37.605 544.676 37.817 L 544.676 37.817 L 544.676 37.817 Q 543.895 38.029 543.046 38.029 Z  M 538.78 31.373 L 547.334 31.373 L 547.334 31.373 Q 547.267 30.435 546.899 29.665 L 546.899 29.665 L 546.899 29.665 Q 546.53 28.894 545.961 28.336 L 545.961 28.336 L 545.961 28.336 Q 545.391 27.777 544.643 27.465 L 544.643 27.465 L 544.643 27.465 Q 543.895 27.152 543.046 27.152 L 543.046 27.152 L 543.046 27.152 Q 542.197 27.152 541.438 27.465 L 541.438 27.465 L 541.438 27.465 Q 540.678 27.777 540.109 28.336 L 540.109 28.336 L 540.109 28.336 Q 539.539 28.894 539.193 29.676 L 539.193 29.676 L 539.193 29.676 Q 538.847 30.458 538.78 31.373 L 538.78 31.373 Z  M 555.911 38.029 L 555.911 38.029 L 555.911 38.029 Q 554.705 38.029 553.677 37.526 L 553.677 37.526 L 553.677 37.526 Q 552.65 37.024 551.913 36.198 L 551.913 36.198 L 551.913 36.198 Q 551.176 35.371 550.762 34.288 L 550.762 34.288 L 550.762 34.288 Q 550.349 33.205 550.349 32.021 L 550.349 32.021 L 550.349 32.021 Q 550.349 30.793 550.751 29.687 L 550.751 29.687 L 550.751 29.687 Q 551.153 28.581 551.857 27.755 L 551.857 27.755 L 551.857 27.755 Q 552.56 26.929 553.532 26.448 L 553.532 26.448 L 553.532 26.448 Q 554.504 25.968 555.665 25.968 L 555.665 25.968 L 555.665 25.968 Q 557.139 25.968 558.278 26.739 L 558.278 26.739 L 558.278 26.739 Q 559.417 27.509 560.065 28.604 L 560.065 28.604 L 560.065 21.501 L 561.584 21.501 L 561.584 35.84 L 561.584 35.84 Q 561.584 36.466 562.12 36.466 L 562.12 36.466 L 562.12 37.806 L 562.12 37.806 Q 561.785 37.873 561.584 37.873 L 561.584 37.873 L 561.584 37.873 Q 561.048 37.873 560.646 37.526 L 560.646 37.526 L 560.646 37.526 Q 560.244 37.18 560.244 36.689 L 560.244 36.689 L 560.244 35.55 L 560.244 35.55 Q 559.551 36.689 558.367 37.359 L 558.367 37.359 L 558.367 37.359 Q 557.184 38.029 555.911 38.029 Z  M 556.246 36.689 L 556.246 36.689 L 556.246 36.689 Q 556.804 36.689 557.441 36.466 L 557.441 36.466 L 557.441 36.466 Q 558.077 36.242 558.635 35.851 L 558.635 35.851 L 558.635 35.851 Q 559.194 35.46 559.585 34.936 L 559.585 34.936 L 559.585 34.936 Q 559.976 34.411 560.065 33.808 L 560.065 33.808 L 560.065 30.212 L 560.065 30.212 Q 559.842 29.609 559.417 29.084 L 559.417 29.084 L 559.417 29.084 Q 558.993 28.559 558.446 28.157 L 558.446 28.157 L 558.446 28.157 Q 557.898 27.755 557.273 27.532 L 557.273 27.532 L 557.273 27.532 Q 556.648 27.308 556.045 27.308 L 556.045 27.308 L 556.045 27.308 Q 555.107 27.308 554.347 27.71 L 554.347 27.71 L 554.347 27.71 Q 553.588 28.112 553.041 28.771 L 553.041 28.771 L 553.041 28.771 Q 552.493 29.43 552.203 30.279 L 552.203 30.279 L 552.203 30.279 Q 551.913 31.128 551.913 32.021 L 551.913 32.021 L 551.913 32.021 Q 551.913 32.959 552.248 33.808 L 552.248 33.808 L 552.248 33.808 Q 552.583 34.656 553.163 35.293 L 553.163 35.293 L 553.163 35.293 Q 553.744 35.93 554.537 36.309 L 554.537 36.309 L 554.537 36.309 Q 555.33 36.689 556.246 36.689 Z  M 458.889 38.029 L 458.889 38.029 L 458.889 38.029 Q 457.683 38.029 456.655 37.526 L 456.655 37.526 L 456.655 37.526 Q 455.628 37.024 454.891 36.198 L 454.891 36.198 L 454.891 36.198 Q 454.154 35.371 453.74 34.288 L 453.74 34.288 L 453.74 34.288 Q 453.327 33.205 453.327 32.021 L 453.327 32.021 L 453.327 32.021 Q 453.327 30.793 453.729 29.687 L 453.729 29.687 L 453.729 29.687 Q 454.131 28.581 454.835 27.755 L 454.835 27.755 L 454.835 27.755 Q 455.538 26.929 456.51 26.448 L 456.51 26.448 L 456.51 26.448 Q 457.482 25.968 458.643 25.968 L 458.643 25.968 L 458.643 25.968 Q 460.117 25.968 461.256 26.739 L 461.256 26.739 L 461.256 26.739 Q 462.395 27.509 463.043 28.604 L 463.043 28.604 L 463.043 21.501 L 464.562 21.501 L 464.562 35.84 L 464.562 35.84 Q 464.562 36.466 465.098 36.466 L 465.098 36.466 L 465.098 37.806 L 465.098 37.806 Q 464.763 37.873 464.562 37.873 L 464.562 37.873 L 464.562 37.873 Q 464.026 37.873 463.624 37.526 L 463.624 37.526 L 463.624 37.526 Q 463.222 37.18 463.222 36.689 L 463.222 36.689 L 463.222 35.55 L 463.222 35.55 Q 462.529 36.689 461.345 37.359 L 461.345 37.359 L 461.345 37.359 Q 460.162 38.029 458.889 38.029 Z  M 459.224 36.689 L 459.224 36.689 L 459.224 36.689 Q 459.782 36.689 460.419 36.466 L 460.419 36.466 L 460.419 36.466 Q 461.055 36.242 461.613 35.851 L 461.613 35.851 L 461.613 35.851 Q 462.172 35.46 462.563 34.936 L 462.563 34.936 L 462.563 34.936 Q 462.954 34.411 463.043 33.808 L 463.043 33.808 L 463.043 30.212 L 463.043 30.212 Q 462.82 29.609 462.395 29.084 L 462.395 29.084 L 462.395 29.084 Q 461.971 28.559 461.424 28.157 L 461.424 28.157 L 461.424 28.157 Q 460.876 27.755 460.251 27.532 L 460.251 27.532 L 460.251 27.532 Q 459.626 27.308 459.023 27.308 L 459.023 27.308 L 459.023 27.308 Q 458.085 27.308 457.325 27.71 L 457.325 27.71 L 457.325 27.71 Q 456.566 28.112 456.019 28.771 L 456.019 28.771 L 456.019 28.771 Q 455.471 29.43 455.181 30.279 L 455.181 30.279 L 455.181 30.279 Q 454.891 31.128 454.891 32.021 L 454.891 32.021 L 454.891 32.021 Q 454.891 32.959 455.226 33.808 L 455.226 33.808 L 455.226 33.808 Q 455.561 34.656 456.141 35.293 L 456.141 35.293 L 456.141 35.293 Q 456.722 35.93 457.515 36.309 L 457.515 36.309 L 457.515 36.309 Q 458.308 36.689 459.224 36.689 Z  M 472.959 38.029 L 472.959 38.029 L 472.959 38.029 Q 471.686 38.029 470.637 37.549 L 470.637 37.549 L 470.637 37.549 Q 469.587 37.069 468.816 36.242 L 468.816 36.242 L 468.816 36.242 Q 468.046 35.416 467.621 34.321 L 467.621 34.321 L 467.621 34.321 Q 467.197 33.227 467.197 32.021 L 467.197 32.021 L 467.197 32.021 Q 467.197 30.793 467.633 29.698 L 467.633 29.698 L 467.633 29.698 Q 468.068 28.604 468.839 27.777 L 468.839 27.777 L 468.839 27.777 Q 469.609 26.951 470.659 26.46 L 470.659 26.46 L 470.659 26.46 Q 471.709 25.968 472.959 25.968 L 472.959 25.968 L 472.959 25.968 Q 474.21 25.968 475.271 26.46 L 475.271 26.46 L 475.271 26.46 Q 476.332 26.951 477.103 27.777 L 477.103 27.777 L 477.103 27.777 Q 477.873 28.604 478.309 29.698 L 478.309 29.698 L 478.309 29.698 Q 478.744 30.793 478.744 32.021 L 478.744 32.021 L 478.744 32.021 Q 478.744 33.227 478.32 34.321 L 478.32 34.321 L 478.32 34.321 Q 477.895 35.416 477.125 36.242 L 477.125 36.242 L 477.125 36.242 Q 476.354 37.069 475.293 37.549 L 475.293 37.549 L 475.293 37.549 Q 474.233 38.029 472.959 38.029 Z  M 468.738 32.043 L 468.738 32.043 L 468.738 32.043 Q 468.738 33.026 469.073 33.864 L 469.073 33.864 L 469.073 33.864 Q 469.408 34.701 469.978 35.338 L 469.978 35.338 L 469.978 35.338 Q 470.547 35.974 471.318 36.332 L 471.318 36.332 L 471.318 36.332 Q 472.088 36.689 472.959 36.689 L 472.959 36.689 L 472.959 36.689 Q 473.831 36.689 474.601 36.32 L 474.601 36.32 L 474.601 36.32 Q 475.372 35.952 475.952 35.315 L 475.952 35.315 L 475.952 35.315 Q 476.533 34.679 476.868 33.83 L 476.868 33.83 L 476.868 33.83 Q 477.203 32.981 477.203 31.999 L 477.203 31.999 L 477.203 31.999 Q 477.203 31.038 476.868 30.178 L 476.868 30.178 L 476.868 30.178 Q 476.533 29.318 475.952 28.682 L 475.952 28.682 L 475.952 28.682 Q 475.372 28.045 474.601 27.677 L 474.601 27.677 L 474.601 27.677 Q 473.831 27.308 472.959 27.308 L 472.959 27.308 L 472.959 27.308 Q 472.088 27.308 471.329 27.677 L 471.329 27.677 L 471.329 27.677 Q 470.57 28.045 469.989 28.693 L 469.989 28.693 L 469.989 28.693 Q 469.408 29.341 469.073 30.201 L 469.073 30.201 L 469.073 30.201 Q 468.738 31.061 468.738 32.043 Z  M 491.073 30.994 L 491.073 37.806 L 489.554 37.806 L 489.554 31.306 L 489.554 31.306 Q 489.554 29.229 488.94 28.291 L 488.94 28.291 L 488.94 28.291 Q 488.326 27.353 487.053 27.353 L 487.053 27.353 L 487.053 27.353 Q 486.383 27.353 485.713 27.599 L 485.713 27.599 L 485.713 27.599 Q 485.043 27.844 484.473 28.291 L 484.473 28.291 L 484.473 28.291 Q 483.904 28.738 483.457 29.352 L 483.457 29.352 L 483.457 29.352 Q 483.01 29.966 482.809 30.681 L 482.809 30.681 L 482.809 37.806 L 481.29 37.806 L 481.29 26.169 L 482.675 26.169 L 482.675 28.805 L 482.675 28.805 Q 483.39 27.532 484.719 26.75 L 484.719 26.75 L 484.719 26.75 Q 486.048 25.968 487.611 25.968 L 487.611 25.968 L 487.611 25.968 Q 488.571 25.968 489.242 26.326 L 489.242 26.326 L 489.242 26.326 Q 489.912 26.683 490.314 27.331 L 490.314 27.331 L 490.314 27.331 Q 490.716 27.978 490.894 28.916 L 490.894 28.916 L 490.894 28.916 Q 491.073 29.854 491.073 30.994 L 491.073 30.994 Z  M 495.495 26.169 L 494.177 26.169 L 494.177 21.814 L 495.495 21.814 L 495.495 26.169 Z  M 503.893 36.019 L 504.295 37.247 L 504.295 37.247 Q 504.161 37.314 503.904 37.426 L 503.904 37.426 L 503.904 37.426 Q 503.647 37.538 503.312 37.649 L 503.312 37.649 L 503.312 37.649 Q 502.977 37.761 502.553 37.85 L 502.553 37.85 L 502.553 37.85 Q 502.129 37.94 501.66 37.94 L 501.66 37.94 L 501.66 37.94 Q 501.168 37.94 500.722 37.806 L 500.722 37.806 L 500.722 37.806 Q 500.275 37.672 499.94 37.392 L 499.94 37.392 L 499.94 37.392 Q 499.605 37.113 499.404 36.689 L 499.404 36.689 L 499.404 36.689 Q 499.203 36.265 499.203 35.706 L 499.203 35.706 L 499.203 27.375 L 497.595 27.375 L 497.595 26.169 L 499.203 26.169 L 499.203 22.238 L 500.722 22.238 L 500.722 26.169 L 503.402 26.169 L 503.402 27.375 L 500.722 27.375 L 500.722 35.282 L 500.722 35.282 Q 500.766 35.93 501.179 36.231 L 501.179 36.231 L 501.179 36.231 Q 501.593 36.533 502.129 36.533 L 502.129 36.533 L 502.129 36.533 Q 502.776 36.533 503.268 36.32 L 503.268 36.32 L 503.268 36.32 Q 503.759 36.108 503.893 36.019 L 503.893 36.019 Z  M 406 21.948 L 407.72 21.948 L 412.901 30.48 L 418.128 21.948 L 419.825 21.948 L 413.683 31.909 L 413.683 37.806 L 412.12 37.806 L 412.12 31.865 L 406 21.948 Z  M 426.816 38.029 L 426.816 38.029 L 426.816 38.029 Q 425.543 38.029 424.493 37.549 L 424.493 37.549 L 424.493 37.549 Q 423.443 37.069 422.673 36.242 L 422.673 36.242 L 422.673 36.242 Q 421.902 35.416 421.478 34.321 L 421.478 34.321 L 421.478 34.321 Q 421.054 33.227 421.054 32.021 L 421.054 32.021 L 421.054 32.021 Q 421.054 30.793 421.489 29.698 L 421.489 29.698 L 421.489 29.698 Q 421.925 28.604 422.695 27.777 L 422.695 27.777 L 422.695 27.777 Q 423.466 26.951 424.515 26.46 L 424.515 26.46 L 424.515 26.46 Q 425.565 25.968 426.816 25.968 L 426.816 25.968 L 426.816 25.968 Q 428.067 25.968 429.128 26.46 L 429.128 26.46 L 429.128 26.46 Q 430.189 26.951 430.959 27.777 L 430.959 27.777 L 430.959 27.777 Q 431.73 28.604 432.165 29.698 L 432.165 29.698 L 432.165 29.698 Q 432.601 30.793 432.601 32.021 L 432.601 32.021 L 432.601 32.021 Q 432.601 33.227 432.176 34.321 L 432.176 34.321 L 432.176 34.321 Q 431.752 35.416 430.981 36.242 L 430.981 36.242 L 430.981 36.242 Q 430.211 37.069 429.15 37.549 L 429.15 37.549 L 429.15 37.549 Q 428.089 38.029 426.816 38.029 Z  M 422.595 32.043 L 422.595 32.043 L 422.595 32.043 Q 422.595 33.026 422.93 33.864 L 422.93 33.864 L 422.93 33.864 Q 423.265 34.701 423.834 35.338 L 423.834 35.338 L 423.834 35.338 Q 424.404 35.974 425.174 36.332 L 425.174 36.332 L 425.174 36.332 Q 425.945 36.689 426.816 36.689 L 426.816 36.689 L 426.816 36.689 Q 427.687 36.689 428.458 36.32 L 428.458 36.32 L 428.458 36.32 Q 429.228 35.952 429.809 35.315 L 429.809 35.315 L 429.809 35.315 Q 430.39 34.679 430.725 33.83 L 430.725 33.83 L 430.725 33.83 Q 431.06 32.981 431.06 31.999 L 431.06 31.999 L 431.06 31.999 Q 431.06 31.038 430.725 30.178 L 430.725 30.178 L 430.725 30.178 Q 430.39 29.318 429.809 28.682 L 429.809 28.682 L 429.809 28.682 Q 429.228 28.045 428.458 27.677 L 428.458 27.677 L 428.458 27.677 Q 427.687 27.308 426.816 27.308 L 426.816 27.308 L 426.816 27.308 Q 425.945 27.308 425.186 27.677 L 425.186 27.677 L 425.186 27.677 Q 424.426 28.045 423.845 28.693 L 423.845 28.693 L 423.845 28.693 Q 423.265 29.341 422.93 30.201 L 422.93 30.201 L 422.93 30.201 Q 422.595 31.061 422.595 32.043 Z  M 438.787 38.029 L 438.787 38.029 L 438.787 38.029 Q 436.889 38.029 435.962 36.767 L 435.962 36.767 L 435.962 36.767 Q 435.035 35.505 435.035 33.004 L 435.035 33.004 L 435.035 26.169 L 436.554 26.169 L 436.554 32.736 L 436.554 32.736 Q 436.554 36.689 439.256 36.689 L 439.256 36.689 L 439.256 36.689 Q 439.926 36.689 440.574 36.466 L 440.574 36.466 L 440.574 36.466 Q 441.222 36.242 441.769 35.818 L 441.769 35.818 L 441.769 35.818 Q 442.316 35.393 442.752 34.813 L 442.752 34.813 L 442.752 34.813 Q 443.187 34.232 443.455 33.495 L 443.455 33.495 L 443.455 26.169 L 444.974 26.169 L 444.974 35.84 L 444.974 35.84 Q 444.974 36.466 445.51 36.466 L 445.51 36.466 L 445.51 37.806 L 445.51 37.806 Q 445.242 37.85 445.075 37.85 L 445.075 37.85 L 445.075 37.85 Q 444.907 37.85 444.84 37.85 L 444.84 37.85 L 444.84 37.85 Q 444.304 37.828 443.969 37.471 L 443.969 37.471 L 443.969 37.471 Q 443.634 37.113 443.634 36.51 L 443.634 36.51 L 443.634 35.17 L 443.634 35.17 Q 442.875 36.533 441.568 37.281 L 441.568 37.281 L 441.568 37.281 Q 440.261 38.029 438.787 38.029 Z " fill-rule="evenodd" fill="rgb(255,255,255)"/><path d=" M 30.362 34.492 C 30.362 34.492 30.362 16.378 30.362 16.378 C 30.363 15.349 30.409 14.305 31.252 13.569 C 32.571 12.415 35.449 12.737 35.488 15.866 C 35.488 15.866 35.488 25.093 35.488 25.093 C 37.369 24.283 38.836 23.606 40.956 23.557 C 42.434 23.524 44.222 23.854 45.57 24.463 C 53.121 27.868 54.213 37.585 48.304 42.643 C 47.168 43.615 46.125 44.165 44.716 44.63 C 43.634 44.987 42.093 45.295 40.956 45.25 C 39.599 45.197 38.304 44.828 37.026 44.403 C 35.797 46.975 32.069 46.194 31.787 43.378 C 31.691 42.419 32.181 41.693 32.754 40.985 C 31.197 39.541 30.387 36.576 30.362 34.492 Z  M 89.828 23.74 C 91.975 24.117 93.868 24.975 95.468 26.476 C 97.662 28.533 98.952 31.652 98.883 34.663 C 98.853 35.956 98.4 37.749 97.882 38.935 C 94.13 47.525 81.262 47.197 77.939 38.422 C 77.481 37.209 77.199 36.141 77.183 34.833 C 77.183 34.833 77.183 15.866 77.183 15.866 C 77.223 12.696 80.098 12.424 81.399 13.595 C 82.277 14.384 82.308 15.459 82.31 16.549 C 82.31 16.549 82.31 25.093 82.31 25.093 C 85.138 23.875 86.65 23.183 89.828 23.74 Z  M 111.36 23.555 C 112.858 23.555 114.601 23.96 115.973 24.558 C 117.147 25.073 118.677 26.18 119.511 27.144 C 123.25 31.462 123.202 38.119 119.034 42.152 C 117.055 44.068 115.035 44.777 112.385 45.158 C 110.963 45.361 109.304 45.105 107.942 44.656 C 103.846 43.307 100.645 39.391 100.594 35.004 C 100.594 35.004 100.594 22.359 100.594 22.359 C 100.594 22.359 100.594 15.695 100.594 15.695 C 100.616 14.049 101.577 12.829 103.328 12.979 C 105.43 13.159 105.717 15.203 105.72 16.891 C 105.72 16.891 105.72 25.093 105.72 25.093 C 107.532 24.164 109.299 23.555 111.36 23.555 Z  M 128.96 15.866 C 128.96 15.866 128.96 38.593 128.96 38.593 C 128.96 39.499 129.048 42.92 128.849 43.548 C 128.496 44.675 127.381 45.339 126.226 45.223 C 124.432 45.044 124.007 43.728 124.005 42.181 C 124.005 42.181 124.005 20.308 124.005 20.308 C 124.005 20.308 124.005 16.036 124.005 16.036 C 124.007 15.473 123.974 14.845 124.229 14.328 C 124.558 13.661 125.057 13.347 125.714 13.072 C 127.814 12.638 128.95 13.812 128.96 15.866 Z  M 58.899 26.973 C 58.899 26.973 58.899 32.612 58.899 32.612 C 58.899 34.811 58.701 36.281 60.297 38.08 C 63.911 42.154 70.285 39.647 70.348 34.321 C 70.348 34.321 70.348 26.973 70.348 26.973 C 70.35 26.069 70.331 25.339 70.932 24.587 C 72.014 23.236 74.107 23.253 75.042 24.767 C 75.49 25.493 75.473 26.159 75.474 26.973 C 75.474 26.973 75.474 31.928 75.474 31.928 C 75.474 31.928 75.474 34.321 75.474 34.321 C 75.469 37.779 73.892 41.156 71.031 43.171 C 70.054 43.859 69.258 44.258 68.126 44.63 C 67.045 44.987 65.503 45.295 64.367 45.25 C 59.688 45.069 55.596 42.094 54.237 37.568 C 53.617 35.498 53.772 33.545 53.772 31.416 C 53.772 31.416 53.772 26.631 53.772 26.631 C 53.776 25.848 53.805 25.267 54.28 24.598 C 54.697 24.008 55.163 23.842 55.823 23.646 C 58.113 23.323 58.895 25.001 58.899 26.973 Z  M 142.631 28.762 C 139.143 28.104 135.603 31.074 135.811 34.663 C 136.001 37.923 139.198 40.64 142.46 40.052 C 144.176 39.743 145.445 38.219 147.243 39.092 C 147.8 39.362 148.159 39.729 148.402 40.302 C 149.28 42.373 147.569 43.641 145.878 44.326 C 142.694 45.616 139.152 45.56 136.137 43.812 C 134.755 43.008 133.726 42.115 132.793 40.814 C 129.531 36.272 130.129 29.852 134.429 26.17 C 136.189 24.663 138.456 23.806 140.751 23.584 C 142.058 23.458 143.603 23.675 144.852 24.073 C 148.355 25.185 151.137 28.007 152.047 31.587 C 152.493 33.335 152.891 36.074 150.662 36.773 C 150.251 36.903 149.728 36.884 149.295 36.884 C 149.295 36.884 140.751 36.884 140.751 36.884 C 139.232 36.882 137.826 36.45 137.692 34.663 C 137.604 33.475 138.185 32.369 139.384 32.026 C 139.883 31.882 141.351 31.928 141.947 31.928 C 141.947 31.928 146.732 31.928 146.732 31.928 C 145.784 30.411 144.451 29.105 142.631 28.762 Z  M 35.97 31.928 C 35.49 32.913 35.573 33.535 35.315 33.933 C 35.022 34.386 34.483 34.451 33.969 34.9 C 33.032 35.713 32.856 37.053 33.557 38.077 C 34.155 38.953 34.82 39.152 35.83 39.099 C 36.618 39.056 36.879 38.796 37.368 38.919 C 37.993 39.075 38.832 40.079 40.956 40.129 C 46.177 40.249 48.952 34.167 45.368 30.406 C 44.806 29.816 43.935 29.309 43.178 29.011 C 42.221 28.636 41.279 28.632 40.273 28.733 C 38.309 29.104 36.862 30.097 35.97 31.928 Z  M 84.531 29.798 C 79.805 33.439 83.024 41.014 88.974 40.056 C 93.779 39.281 95.394 33.319 91.872 30.079 C 90.473 28.793 88.747 28.536 86.923 28.736 C 86.02 28.94 85.274 29.225 84.531 29.798 Z  M 108.113 29.639 C 106.155 30.97 105.695 32.605 105.72 34.833 C 105.761 38.188 108.991 40.544 112.214 40.079 C 116.83 39.415 118.817 33.786 115.601 30.406 C 114.155 28.887 112.335 28.533 110.334 28.733 C 109.49 28.899 108.831 29.15 108.113 29.639 Z  M 45.688 32.099 C 45.984 32.643 46.606 34.1 45.688 34.449 C 44.897 34.772 44.705 33.419 43.976 32.643 C 42.812 31.406 41.669 31.761 40.996 31.271 C 40.23 30.71 40.428 29.946 41.146 29.492 C 42.935 29.056 44.798 30.654 45.688 32.099 Z  M 32.643 46.283 C 33.152 47.009 33.256 47.643 33.267 48.504 C 33.289 50.654 32.199 52.33 30.02 52.831 C 25.562 53.854 22.935 48.366 26.096 45.461 C 26.706 44.9 27.192 44.705 27.969 44.492 C 29.938 44.179 31.447 44.572 32.643 46.283 Z  M 38.393 45.96 C 40.978 46.211 40.29 50.008 37.88 49.635 C 36.24 49.381 35.565 47.063 37.371 46.067 C 37.761 45.972 37.981 45.92 38.393 45.96 Z " fill="rgb(255,255,255)"/></g></svg>