<?xml version="1.0" standalone="no"?><!-- Generator: Gravit.io --><svg xmlns="http://www.w3.org/2000/svg" xmlns:xlink="http://www.w3.org/1999/xlink" style="isolation:isolate" viewBox="0 0 728 60" width="728" height="60"><defs><clipPath id="_clipPath_JA91c50RFaMMnkJdOHWkLeR9o3botkVH"><rect width="728" height="60"/></clipPath></defs><g clip-path="url(#_clipPath_JA91c50RFaMMnkJdOHWkLeR9o3botkVH)"><path d=" M 0 30 L 0 0 L 364 0 L 728 0 L 728 30 L 728 60 L 364 60 L 0 60 L 0 30 Z " fill="rgb(247,10,1)"/><g id="logo"><path d=" M 221.173 37.712 L 232.447 49.462 L 246.686 49.462 C 257.427 49.462 266.148 40.741 266.148 30 C 266.148 19.259 257.427 10.538 246.686 10.538 L 198.454 10.538 L 198.454 10.538 C 196.887 10.827 196.591 11.684 197.545 13.088 L 210.171 26.246 L 246.094 26.246 C 248.433 26.246 250.333 28.145 250.333 30.485 C 250.333 32.824 248.433 34.724 246.094 34.724 L 222.703 34.724 C 220.57 34.539 220.063 35.538 221.173 37.712 Z " fill="rgb(235,235,235)"/><g id="txt"><path d=" M 284.071 15.475 L 297.356 15.475 C 304.888 15.475 311.003 21.589 311.003 29.121 L 311.003 31.954 C 311.003 39.486 304.888 45.601 297.356 45.601 L 284.071 45.601 L 284.071 15.475 Z  M 291.35 21.64 L 294.262 21.64 C 299.484 21.64 303.724 25.627 303.724 30.538 C 303.724 35.449 299.484 39.435 294.262 39.435 L 291.35 39.435 L 291.35 21.64 Z " fill-rule="evenodd" fill="rgb(235,235,235)"/><path d=" M 315.199 30.538 C 315.199 22.224 321.949 15.475 330.262 15.475 C 338.576 15.475 345.325 22.224 345.325 30.538 C 345.325 38.851 338.576 45.601 330.262 45.601 C 321.949 45.601 315.199 38.851 315.199 30.538 Z  M 322.098 30.538 C 322.098 26.032 325.756 22.374 330.262 22.374 C 334.768 22.374 338.426 26.032 338.426 30.538 C 338.426 35.044 334.768 38.702 330.262 38.702 C 325.756 38.702 322.098 35.044 322.098 30.538 Z " fill-rule="evenodd" fill="rgb(235,235,235)"/><path d=" M 349.964 30.538 C 349.964 22.224 356.713 15.475 365.027 15.475 C 373.341 15.475 380.09 22.224 380.09 30.538 C 380.09 38.851 373.341 45.601 365.027 45.601 C 356.713 45.601 349.964 38.851 349.964 30.538 Z  M 356.863 30.538 C 356.863 26.032 360.521 22.374 365.027 22.374 C 369.533 22.374 373.191 26.032 373.191 30.538 C 373.191 35.044 369.533 38.702 365.027 38.702 C 360.521 38.702 356.863 35.044 356.863 30.538 Z " fill-rule="evenodd" fill="rgb(235,235,235)"/><path d=" M 386.031 15.475 L 400.696 15.475 C 406.213 15.475 410.693 19.954 410.693 25.472 L 410.693 25.472 C 410.693 29.221 408.625 32.49 405.568 34.201 Q 405.167 34.426 410.568 44.018 C 411.06 44.892 410.646 45.601 409.643 45.601 L 406.094 45.601 C 405.092 45.601 403.864 44.9 403.354 44.037 L 398.294 35.469 L 393.74 35.469 L 393.641 43.729 C 393.629 44.732 392.805 45.545 391.803 45.545 L 387.847 45.545 C 386.845 45.545 386.031 44.731 386.031 43.729 L 386.031 35.469 L 386.031 15.475 Z  M 393.619 21.627 L 399.259 21.627 C 401.381 21.627 403.104 23.35 403.104 25.472 C 403.104 27.594 401.381 29.317 399.259 29.317 L 393.619 29.317 L 393.619 21.627 Z " fill-rule="evenodd" fill="rgb(235,235,235)"/><path d=" M 416.641 15.475 L 429.926 15.475 C 437.458 15.475 443.573 21.589 443.573 29.121 L 443.573 31.954 C 443.573 39.486 437.458 45.601 429.926 45.601 L 416.641 45.601 L 416.641 15.475 Z  M 423.92 21.64 L 426.831 21.64 C 432.054 21.64 436.294 25.627 436.294 30.538 C 436.294 35.449 432.054 39.435 426.831 39.435 L 423.92 39.435 L 423.92 21.64 Z " fill-rule="evenodd" fill="rgb(235,235,235)"/><path d=" M 465.017 17.152 L 474.373 43.923 C 474.697 44.849 474.163 45.601 473.182 45.601 L 469.673 45.601 C 468.692 45.601 467.64 44.847 467.324 43.918 L 466.203 40.618 C 465.888 39.689 464.835 38.935 463.854 38.935 L 457.321 38.935 C 456.34 38.935 455.265 39.681 454.922 40.6 L 453.677 43.936 C 453.334 44.855 452.259 45.601 451.278 45.601 L 446.994 45.601 C 446.013 45.601 445.489 44.852 445.824 43.93 L 455.552 17.145 C 455.887 16.223 456.955 15.475 457.936 15.475 L 462.653 15.475 C 463.634 15.475 464.693 16.226 465.017 17.152 Z  M 462.673 32.881 L 457.517 32.881 L 460.095 23.92 L 462.673 32.881 Z " fill-rule="evenodd" fill="rgb(235,235,235)"/><path d=" M 485.501 24.685 C 485.548 24.743 485.596 24.801 485.653 24.851 C 485.792 24.977 485.945 25.095 486.104 25.197 C 486.341 25.353 486.585 25.491 486.835 25.62 C 487.147 25.779 487.465 25.928 487.787 26.064 C 488.566 26.392 489.351 26.704 490.147 26.995 C 491.044 27.323 491.938 27.676 492.822 28.048 C 493.283 28.244 493.74 28.458 494.19 28.688 C 494.651 28.922 495.098 29.179 495.531 29.46 C 495.992 29.758 496.428 30.093 496.835 30.462 C 497.282 30.862 497.678 31.316 498.023 31.807 C 498.399 32.352 498.697 32.951 498.9 33.585 C 499.114 34.252 499.219 34.949 499.215 35.65 C 499.209 36.368 499.104 37.083 498.9 37.773 C 498.748 38.305 498.569 38.83 498.359 39.341 C 498.159 39.819 497.932 40.283 497.675 40.73 C 497.438 41.139 497.173 41.536 496.882 41.911 C 496.601 42.277 496.296 42.619 495.965 42.941 C 495.639 43.252 495.294 43.544 494.928 43.804 C 494.563 44.065 494.177 44.299 493.777 44.505 C 493.367 44.715 492.944 44.895 492.507 45.04 C 492.06 45.189 491.603 45.311 491.142 45.399 C 490.357 45.548 489.558 45.613 488.762 45.599 C 487.851 45.579 486.947 45.487 486.05 45.325 C 485.237 45.176 484.434 44.976 483.642 44.736 C 482.687 44.441 481.746 44.102 480.821 43.723 C 479.988 43.385 479.328 42.728 478.982 41.898 C 478.634 41.072 478.63 40.137 478.972 39.307 C 479.311 38.474 479.968 37.814 480.797 37.469 C 481.624 37.12 482.558 37.117 483.388 37.459 C 484.126 37.76 484.874 38.027 485.633 38.261 C 486.171 38.427 486.72 38.559 487.272 38.661 C 487.81 38.762 488.352 38.816 488.897 38.827 C 489.226 38.833 489.554 38.806 489.876 38.745 C 490.035 38.715 490.194 38.674 490.347 38.62 C 490.465 38.583 490.58 38.532 490.692 38.474 C 490.794 38.424 490.892 38.363 490.987 38.298 C 491.082 38.231 491.173 38.153 491.254 38.071 C 491.349 37.98 491.437 37.882 491.518 37.78 C 491.623 37.641 491.722 37.496 491.806 37.347 C 491.915 37.157 492.013 36.961 492.094 36.761 C 492.213 36.473 492.314 36.182 492.399 35.881 C 492.422 35.806 492.436 35.728 492.443 35.647 C 492.399 35.589 492.351 35.538 492.297 35.488 C 492.158 35.362 492.006 35.247 491.847 35.146 C 491.613 34.99 491.369 34.851 491.119 34.722 C 490.807 34.567 490.492 34.418 490.171 34.279 C 489.395 33.954 488.61 33.642 487.817 33.354 C 486.916 33.022 486.022 32.67 485.135 32.298 C 484.671 32.098 484.214 31.885 483.764 31.654 C 483.303 31.421 482.853 31.16 482.419 30.879 C 481.955 30.581 481.519 30.246 481.112 29.877 C 480.665 29.474 480.266 29.02 479.924 28.525 C 479.544 27.977 479.25 27.378 479.043 26.744 C 478.833 26.081 478.725 25.383 478.728 24.685 C 478.732 24.154 478.789 23.626 478.904 23.107 C 479.016 22.586 479.175 22.078 479.375 21.584 C 479.585 21.076 479.826 20.581 480.1 20.107 C 480.391 19.599 480.706 19.108 481.048 18.634 C 481.437 18.092 481.905 17.608 482.43 17.198 C 482.961 16.782 483.544 16.443 484.163 16.182 C 484.759 15.935 485.379 15.756 486.016 15.647 C 486.713 15.532 487.414 15.471 488.122 15.475 C 489.114 15.478 490.106 15.573 491.082 15.756 C 492.395 16.003 493.696 16.328 494.972 16.731 C 495.829 17.002 496.544 17.598 496.96 18.394 C 497.373 19.193 497.455 20.121 497.187 20.977 C 496.916 21.834 496.32 22.549 495.521 22.965 C 494.725 23.378 493.797 23.46 492.941 23.192 C 491.921 22.87 490.882 22.61 489.829 22.413 C 489.256 22.305 488.677 22.251 488.095 22.247 C 487.777 22.247 487.462 22.274 487.147 22.325 C 487.018 22.349 486.893 22.386 486.771 22.434 C 486.706 22.461 486.649 22.495 486.595 22.539 C 486.578 22.552 486.561 22.569 486.547 22.586 C 486.341 22.874 486.148 23.172 485.972 23.48 C 485.85 23.693 485.741 23.913 485.647 24.144 C 485.592 24.276 485.552 24.411 485.521 24.553 C 485.511 24.597 485.504 24.641 485.501 24.685 Z " fill="rgb(235,235,235)"/><path d=" M 523.643 33.552 L 523.643 45.601 L 531 45.601 L 531 15.475 L 523.643 15.475 L 523.643 26.836 L 512.412 26.836 L 512.412 15.475 L 505.055 15.475 L 505.055 45.601 L 512.412 45.601 L 512.412 33.552 L 523.643 33.552 Z " fill="rgb(235,235,235)"/></g></g></g></svg>