<?xml version="1.0" encoding="UTF-8" standalone="no"?>
<!-- Created with Inkscape (http://www.inkscape.org/) -->

<svg
   xmlns:dc="http://purl.org/dc/elements/1.1/"
   xmlns:cc="http://creativecommons.org/ns#"
   xmlns:rdf="http://www.w3.org/1999/02/22-rdf-syntax-ns#"
   xmlns:svg="http://www.w3.org/2000/svg"
   xmlns="http://www.w3.org/2000/svg"
   xmlns:xlink="http://www.w3.org/1999/xlink"
   xmlns:sodipodi="http://sodipodi.sourceforge.net/DTD/sodipodi-0.dtd"
   xmlns:inkscape="http://www.inkscape.org/namespaces/inkscape"
   id="svg10638"
   version="1.1"
   inkscape:version="0.91 r13725"
   width="728"
   height="90"
   viewBox="0 0 728 90"
   sodipodi:docname="paypal.svg">
  <metadata
     id="metadata10644">
    <rdf:RDF>
      <cc:Work
         rdf:about="">
        <dc:format>image/svg+xml</dc:format>
        <dc:type
           rdf:resource="http://purl.org/dc/dcmitype/StillImage" />
        <dc:title></dc:title>
      </cc:Work>
    </rdf:RDF>
  </metadata>
  <defs
     id="defs10642">
    <linearGradient
       inkscape:collect="always"
       id="linearGradient11031">
      <stop
         style="stop-color:#142b6e;stop-opacity:1"
         offset="0"
         id="stop11033" />
      <stop
         style="stop-color:#029ce0;stop-opacity:1"
         offset="1"
         id="stop11035" />
    </linearGradient>
    <inkscape:path-effect
       effect="envelope"
       id="path-effect11021"
       is_visible="true"
       yy="true"
       xx="false"
       bendpath1="M 6.0090276,69.746366 C 408.84586,70.561707 441.5855,4.0113233 721.8481,6.1100026"
       bendpath2="m 723.54507,-35.465755 0,19.698952"
       bendpath3="M 2.6150882,86.899864 C 323.87567,98.212995 448.23506,38.242921 721.42124,27.943263"
       bendpath4="m 2.6150882,-35.465755 0,19.698952"
       bendpath1-nodetypes="cc"
       bendpath3-nodetypes="cc" />
    <linearGradient
       inkscape:collect="always"
       xlink:href="#linearGradient11031"
       id="linearGradient11037"
       x1="-0.5"
       y1="45"
       x2="728.5"
       y2="45"
       gradientUnits="userSpaceOnUse" />
  </defs>
  <sodipodi:namedview
     pagecolor="#ffffff"
     bordercolor="#666666"
     borderopacity="1"
     objecttolerance="10"
     gridtolerance="10"
     guidetolerance="10"
     inkscape:pageopacity="0"
     inkscape:pageshadow="2"
     inkscape:window-width="1280"
     inkscape:window-height="694"
     id="namedview10640"
     showgrid="false"
     showborder="false"
     inkscape:zoom="1.4142136"
     inkscape:cx="460.29203"
     inkscape:cy="22.602012"
     inkscape:window-x="0"
     inkscape:window-y="1"
     inkscape:window-maximized="1"
     inkscape:current-layer="svg10638" />
  <rect
     style="opacity:1;fill:#ffffff;fill-opacity:1;fill-rule:evenodd;stroke:url(#linearGradient11037);stroke-width:1;stroke-linejoin:round;stroke-miterlimit:4;stroke-dasharray:none;stroke-opacity:1"
     id="rect11029"
     width="728"
     height="90"
     x="0"
     y="0"
     rx="0"
     ry="0" />
  <g
     id="g10771"
     transform="matrix(0.5428243,0,0,0.5428243,26.379583,20.156834)">
    <path
       style="fill:#029ce0"
       d="m 33.354978,79.960177 c -0.4449,-0.4449 -0.480212,-0.58887 -0.383488,-1.563499 0.107764,-1.085876 0.793871,-5.662666 0.992223,-6.61878 l 0.107707,-0.519177 -0.304738,0.529897 c -0.167605,0.291444 -0.51871,0.611251 -0.780235,0.710682 -0.684642,0.260301 -12.368326,0.234782 -13.124051,-0.02866 -0.330454,-0.115197 -0.684307,-0.365437 -0.78634,-0.556087 -0.239568,-0.44764 -0.237815,-2.291089 0.0034,-3.605883 0.103921,-0.566368 0.398183,-2.351628 0.653914,-3.967244 0.255734,-1.615616 0.770684,-4.856323 1.144334,-7.201571 0.373652,-2.345249 0.887671,-5.585956 1.142268,-7.201572 0.254594,-1.615616 0.723697,-4.557837 1.042448,-6.538269 0.318751,-1.980432 0.744315,-4.666808 0.945697,-5.969724 0.414109,-2.679236 1.233118,-7.849428 2.086458,-13.171295 0.317554,-1.980432 0.829557,-5.209385 1.137784,-7.175451 0.634684,-4.048413 0.953862,-4.864577 2.176774,-5.566162 l 0.757522,-0.434592 14.213628,0.0644 14.213628,0.0644 2.085975,0.484804 c 3.720447,0.864674 5.945371,2.02323 7.934168,4.131461 1.439399,1.525838 2.614042,3.673178 3.084141,5.63805 0.336429,1.406173 0.434266,4.420109 0.202226,6.229739 l -0.149059,1.162472 1.006435,0.567995 c 0.553541,0.312399 1.525397,1.122767 2.159681,1.800819 1.318456,1.409435 2.173167,3.203335 2.54582,5.343265 0.510978,2.934256 -0.213474,8.207006 -1.635358,11.902564 -2.179984,5.665901 -6.110033,9.470561 -11.556394,11.187689 -2.211475,0.697233 -4.001765,0.890673 -8.243207,0.890673 l -3.769994,0 -0.6576,0.577383 c -0.863082,0.757794 -1.150586,1.679906 -1.727674,5.541167 -2.021335,13.524639 -1.89299,12.832824 -2.477422,13.354121 -0.476155,0.424718 -0.503951,0.426409 -7.014365,0.426409 l -6.536315,0 -0.490023,-0.490024 z M 180.73639,80.07117 c -0.66112,-0.661111 -1.01685,-0.0587 5.16957,-8.754336 1.53453,-2.156937 2.79006,-4.035524 2.79006,-4.174637 0,-0.139114 -0.64868,-2.126746 -1.44151,-4.416959 -0.79283,-2.290214 -1.59381,-4.633074 -1.77994,-5.206357 -0.18614,-0.573283 -1.16256,-3.430223 -2.16981,-6.348754 -2.92674,-8.480309 -2.95582,-8.576113 -2.75974,-9.091853 0.38082,-1.001646 0.74892,-1.073425 5.18156,-1.010406 4.95605,0.07046 4.75511,-0.03242 5.64934,2.89264 0.32001,1.046758 1.16253,3.779397 1.87228,6.072529 0.70974,2.293132 1.51452,4.918355 1.7884,5.83383 0.27387,0.915475 0.57576,1.616411 0.67086,1.557637 0.0951,-0.05878 2.52242,-3.494176 5.39404,-7.634223 5.88776,-8.488437 5.53322,-8.003032 6.16178,-8.436254 0.40594,-0.279781 1.01466,-0.322955 4.55357,-0.322955 3.39052,0 4.1566,0.05015 4.5062,0.295018 0.97503,0.682948 0.86206,0.883042 -6.14908,10.889817 -3.61364,5.15765 -6.89604,9.846597 -7.29421,10.41988 -8.79899,12.66864 -12.06739,17.177385 -12.67307,17.482468 -0.5674,0.285797 -1.23764,0.331398 -4.87456,0.331652 -3.96424,1.89e-4 -4.23941,-0.0224 -4.59574,-0.378737 z m -32.50183,-9.301305 c -0.41694,-0.103424 -1.48296,-0.538192 -2.36894,-0.966149 -3.13685,-1.5152 -5.56413,-4.656104 -6.35889,-8.228416 -0.24968,-1.122239 -0.2997,-1.976854 -0.2195,-3.749911 0.38331,-8.473852 5.73683,-15.281486 13.53333,-17.209224 3.16936,-0.783645 7.61583,-0.529713 9.79955,0.559638 0.88015,0.439063 2.29765,1.870504 2.67003,2.696283 0.18843,0.417875 0.45183,0.759772 0.58533,0.759772 0.27171,0 0.33645,-0.178013 0.65478,-1.800393 0.1227,-0.6254 0.30958,-1.243692 0.41528,-1.373984 0.14339,-0.176744 1.27001,-0.236894 4.43713,-0.236894 l 4.24495,0 0.21083,0.462735 c 0.20794,0.456371 -0.008,2.266536 -0.8949,7.496897 -0.15021,0.885983 -0.82544,5.10743 -1.5005,9.380994 -1.70073,10.766735 -1.6909,10.718319 -2.27999,11.228767 -0.47564,0.412145 -0.62125,0.426408 -4.35305,0.426408 -4.70792,0 -4.553,0.07517 -4.35911,-2.115223 0.10514,-1.1878 0.0801,-1.485515 -0.12512,-1.485331 -0.14114,1.27e-4 -0.88627,0.514882 -1.65585,1.143897 -1.69846,1.388249 -2.71073,1.995179 -4.35831,2.613155 -1.1095,0.41615 -1.60501,0.477157 -4.28675,0.527782 -1.66774,0.03148 -3.37337,-0.02738 -3.7903,-0.130803 z m 9.1047,-7.583048 c 2.69491,-0.498182 5.56202,-2.624126 6.72506,-4.98659 2.7337,-5.552921 -1.34739,-11.064688 -7.38224,-9.970178 -1.44453,0.261988 -3.38366,1.202932 -4.5457,2.205762 -1.67687,1.447116 -3.04901,4.287048 -3.04901,6.310574 0,2.542047 1.55033,4.969856 3.7854,5.927917 1.68019,0.720216 2.70612,0.837937 4.46649,0.512515 z m 104.39732,7.603537 c -2.02357,-0.430429 -4.83051,-2.046979 -6.13591,-3.533749 -1.0611,-1.208522 -1.93012,-2.722863 -2.53454,-4.416603 -0.54561,-1.528969 -0.57934,-1.78326 -0.5678,-4.278789 0.0104,-2.261629 0.0876,-2.932349 0.52276,-4.544551 1.93483,-7.168464 6.4079,-11.733062 13.1346,-13.403429 2.53516,-0.629531 6.21697,-0.582046 8.32581,0.107378 1.75014,0.572159 3.14152,1.650549 3.89727,3.020566 0.66066,1.197682 0.94467,1.04679 1.30142,-0.691449 0.16789,-0.818053 0.42464,-1.562963 0.57055,-1.655354 0.14593,-0.09239 2.12202,-0.16929 4.39133,-0.170885 l 4.12602,-0.0029 0.22221,0.487689 c 0.23091,0.50681 0.21645,0.622612 -1.08746,8.703791 -0.25226,1.563499 -1.019,6.339278 -1.70387,10.612842 -0.68485,4.273564 -1.28929,7.917135 -1.3432,8.096823 -0.0539,0.179691 -0.31769,0.499498 -0.58618,0.710682 -0.45388,0.35704 -0.75855,0.383974 -4.34326,0.383974 -3.85383,0 -3.85523,-1.53e-4 -4.15141,-0.452156 -0.24733,-0.377497 -0.26393,-0.651299 -0.10055,-1.658257 0.25103,-1.547077 0.25643,-1.490373 -0.14187,-1.490373 -0.18726,0 -0.89084,0.465919 -1.5635,1.035376 -2.92009,2.47201 -4.75639,3.155909 -8.7089,3.243465 -1.51138,0.03348 -3.09696,-0.01336 -3.52352,-0.10409 z m 9.27888,-7.682273 c 2.85215,-0.742884 5.09557,-2.565639 6.32376,-5.13795 0.67746,-1.418831 0.71314,-1.588433 0.71299,-3.388733 -1.3e-4,-1.706608 -0.0526,-1.994785 -0.52764,-2.896615 -0.68059,-1.292051 -1.79081,-2.359513 -3.13729,-3.016456 -0.96157,-0.46914 -1.27912,-0.523776 -3.0627,-0.526925 -1.9554,-0.0034 -2.01904,0.01048 -3.66924,0.803301 -5.18189,2.489591 -7.00806,8.497974 -3.72078,12.24198 1.59818,1.820214 4.47371,2.600489 7.0809,1.921398 z m -166.79731,6.912317 c -0.73745,-0.296332 -0.8994,-0.955821 -0.63975,-2.605178 0.12667,-0.804605 0.39465,-2.528942 0.59553,-3.831858 0.20088,-1.302916 0.62761,-4.031933 0.9483,-6.064481 0.32069,-2.032549 0.78978,-5.017411 1.04242,-6.633027 0.43383,-2.774291 0.79703,-5.083449 2.17598,-13.834598 0.32028,-2.032548 0.757,-4.843261 0.97048,-6.246027 0.41694,-2.739584 0.63686,-3.35406 1.42124,-3.971051 0.49538,-0.389663 0.65248,-0.395741 10.19022,-0.394333 5.68397,7.58e-4 10.19614,0.08175 10.91894,0.195784 7.08108,1.117208 10.48094,5.926803 9.46297,13.386776 -1.06461,7.801783 -4.67261,12.829414 -10.60006,14.770855 -1.58439,0.51894 -1.7075,0.529329 -7.48585,0.631665 -4.10638,0.07272 -5.99647,0.173696 -6.27858,0.335413 -0.6353,0.364167 -0.94889,1.432537 -1.57857,5.378092 -0.32274,2.02223 -0.71624,4.477674 -0.87444,5.456548 -0.58429,3.615213 -0.60263,3.626256 -5.99712,3.609397 -2.11407,-0.0066 -4.03634,-0.0894 -4.27171,-0.183977 z m 22.03266,-23.524394 c 1.73263,-0.923009 2.8325,-2.420632 3.41217,-4.646151 0.79997,-3.07129 -0.0853,-5.503384 -2.3593,-6.481632 -0.87978,-0.378469 -1.22082,-0.406203 -4.40912,-0.358536 l -3.45559,0.05166 -0.22584,1.421363 c -0.12421,0.78175 -0.5317,3.346756 -0.90554,5.700016 -0.37384,2.353257 -0.67971,4.427626 -0.67971,4.609709 0,0.306186 0.2883,0.326447 3.83768,0.269708 3.73608,-0.05972 3.86276,-0.07471 4.78525,-0.56614 z m 164.61421,23.379471 c -0.1915,-0.357861 -0.0204,-1.531535 2.72663,-18.705348 0.5213,-3.259113 1.40393,-8.83098 1.98134,-12.507993 1.87385,-11.932803 1.78906,-11.480969 2.21234,-11.790483 0.26531,-0.193991 1.30317,-0.239141 4.59277,-0.199796 3.72717,0.04458 4.27453,0.08972 4.44928,0.36695 0.1457,0.231169 0.0341,1.351597 -0.41549,4.169331 -0.33812,2.119267 -1.08261,6.795433 -1.65445,10.391481 -0.57182,3.596048 -1.46093,9.182004 -1.97579,12.413235 -0.51485,3.231232 -1.23657,7.793806 -1.60379,10.139055 -0.88401,5.645591 -0.81903,5.328852 -1.17338,5.720394 -0.28352,0.313282 -0.6984,0.344087 -4.63419,0.344087 -3.96773,0 -4.33779,-0.028 -4.50527,-0.340913 z m -73.82297,-0.146411 c -0.49837,-0.498377 -0.4704,-0.962191 0.38788,-6.429975 0.35994,-2.293132 0.81891,-5.235353 1.01995,-6.538268 0.20104,-1.302916 0.67009,-4.287778 1.04233,-6.633027 0.37225,-2.345249 0.8413,-5.33011 1.04233,-6.633026 0.20104,-1.302916 0.67041,-4.287778 1.0431,-6.633027 0.37266,-2.345248 0.80314,-5.116906 0.95663,-6.159238 0.32089,-2.179348 0.69082,-3.309492 1.24856,-3.814472 0.36975,-0.334761 0.90871,-0.358005 9.51633,-0.410423 9.88121,-0.06017 12.14949,0.06555 14.27524,0.791234 5.34507,1.824691 7.6267,5.978628 6.88368,12.53242 -0.56919,5.02035 -2.40612,9.189662 -5.2005,11.803684 -1.57881,1.476891 -3.04952,2.349007 -5.23344,3.103351 l -1.79012,0.618325 -5.68545,0.06158 c -3.6527,0.03956 -5.8809,0.138552 -6.23211,0.276864 -1.00157,0.394432 -1.0812,0.715348 -2.59297,10.450479 -0.39498,2.543567 -0.69138,3.388614 -1.30348,3.716195 -0.21974,0.117605 -2.09598,0.195132 -4.72237,0.195132 -3.70893,0 -4.40212,-0.04434 -4.65559,-0.297809 z M 238.9728,46.715007 c 1.52297,-0.569809 2.48491,-1.498778 3.2941,-3.181173 0.62806,-1.305747 0.70466,-1.636358 0.78196,-3.374427 0.0813,-1.82694 0.0586,-1.976723 -0.43778,-2.888662 -0.52111,-0.957436 -1.37882,-1.699529 -2.46173,-2.129886 -0.69224,-0.275103 -7.31587,-0.259789 -7.48711,0.01732 -0.0619,0.100127 -0.30834,1.441171 -0.54766,2.980096 -0.23932,1.538926 -0.64015,4.046233 -0.89069,5.571795 -0.25054,1.52556 -0.45553,2.911389 -0.45553,3.079619 0,0.270732 0.41285,0.305872 3.59368,0.305872 3.13442,0 3.72364,-0.04863 4.61076,-0.380546 z"
       id="path10755"
       inkscape:connector-curvature="0" />
    <path
       style="fill:#103883"
       d="m 180.73843,79.978875 c -0.31562,-0.380293 -0.11194,-1.097681 0.58454,-2.058873 1.14147,-1.575317 2.57556,-3.587188 4.15129,-5.823827 0.88598,-1.257586 2.02679,-2.852999 2.53513,-3.545362 l 0.92426,-1.258843 -0.67757,-1.99644 c -0.64669,-1.905451 -2.72967,-7.97987 -4.97373,-14.504433 -2.52135,-7.330781 -2.75559,-8.099932 -2.63459,-8.650843 0.0657,-0.299085 0.28589,-0.632876 0.48934,-0.74176 0.23539,-0.125976 1.92236,-0.177092 4.63885,-0.140559 l 4.26892,0.05741 0.35671,0.4733 c 0.1962,0.260314 0.49709,0.942568 0.66865,1.516121 0.17156,0.57355 0.50879,1.682433 0.74939,2.464182 0.2406,0.78175 0.69964,2.274181 1.02009,3.316513 2.02501,6.586781 2.65732,8.520854 2.80103,8.567602 0.0892,0.029 0.3035,-0.18121 0.47633,-0.467136 0.17283,-0.285925 0.7974,-1.202118 1.38792,-2.035984 0.59052,-0.833867 1.53918,-2.198375 2.10812,-3.032241 0.56894,-0.833866 1.59778,-2.326297 2.28633,-3.316513 0.68852,-0.990216 1.72165,-2.482647 2.29582,-3.316513 2.2333,-3.243452 2.76504,-3.921372 3.20775,-4.089689 0.25228,-0.09592 2.31614,-0.1744 4.58632,-0.1744 3.75808,0 4.1557,0.03103 4.44127,0.346574 0.17251,0.190616 0.31364,0.460288 0.31364,0.599273 0,0.45722 -0.84516,1.762043 -4.35884,6.729512 -0.58877,0.83236 -3.19464,4.543315 -4.192,5.969724 -3.98884,5.704695 -5.69339,8.137259 -6.04231,8.622934 -0.59371,0.826407 -5.17953,7.367553 -6.17818,8.81245 -0.46827,0.677516 -1.36042,1.956743 -1.98257,2.842725 -0.62215,0.885983 -1.52793,2.191048 -2.01285,2.900143 -1.59348,2.330116 -1.26138,2.216763 -6.49456,2.216763 -3.76073,0 -4.5495,-0.04685 -4.7445,-0.28181 z M 19.388432,72.06416 c -0.614251,-0.97402 -0.585569,-1.412467 0.542367,-8.291283 0.247825,-1.511382 0.719206,-4.453603 1.047512,-6.538269 0.328307,-2.084665 0.798075,-5.026886 1.043931,-6.538269 0.245854,-1.511382 0.71276,-4.453603 1.03757,-6.538269 0.691931,-4.440904 1.334944,-8.511912 1.990596,-12.60275 0.865619,-5.400906 1.580186,-9.921235 2.082099,-13.171295 0.877999,-5.685357 1.02804,-6.10011 2.468136,-6.822542 0.73349,-0.367959 1.131973,-0.37898 13.642581,-0.377342 14.099438,0.0018 15.873839,0.09645 18.856747,1.005406 5.305037,1.616553 7.975437,4.184748 9.369629,9.011025 1.215929,4.209183 0.09463,11.326377 -2.628937,16.686622 -3.043106,5.989124 -7.893768,9.762213 -14.321294,11.139827 -1.55698,0.333709 -2.671555,0.396285 -8.243904,0.462848 -3.543931,0.04233 -6.712911,0.12031 -7.042178,0.173283 -1.42387,0.229069 -2.216737,1.834318 -2.803646,5.676306 -0.17515,1.146566 -0.520713,3.363892 -0.767917,4.927391 -0.247203,1.563499 -0.718176,4.548361 -1.046608,6.633026 -0.776467,4.928526 -0.699739,4.6072 -1.225766,5.133227 l -0.457467,0.457467 -6.637271,0 -6.637272,0 -0.268908,-0.426409 z M 148.61359,70.665744 c -2.28538,-0.478583 -3.92533,-1.388033 -5.68776,-3.154192 -1.25,-1.25266 -1.70686,-1.875996 -2.32347,-3.17013 -0.42214,-0.885983 -0.81861,-1.866723 -0.88104,-2.179423 -0.95782,-4.797461 0.19263,-10.387922 2.98349,-14.4979 0.8555,-1.259849 2.90702,-3.340381 4.20314,-4.262575 1.5389,-1.09493 2.82309,-1.71722 4.99479,-2.420361 1.75512,-0.568264 1.95954,-0.592147 5.14427,-0.601048 3.01624,-0.0084 3.41269,0.0295 4.37879,0.418955 1.76743,0.712483 2.73407,1.471954 3.58168,2.814052 1.05099,1.664124 1.15299,1.604529 1.59918,-0.934364 0.24832,-1.412968 0.38927,-1.458171 4.54688,-1.458171 2.02576,0 3.90196,0.08317 4.16933,0.184825 0.42564,0.161827 0.48612,0.294483 0.48612,1.066145 0,0.484728 -0.21079,2.128514 -0.46843,3.652857 -0.25764,1.524343 -0.72657,4.391886 -1.04208,6.372318 -0.82001,5.147107 -1.48188,9.251649 -2.00169,12.413235 -0.2485,1.511383 -0.50525,3.108932 -0.57057,3.550108 -0.0843,0.569348 -0.2833,0.940597 -0.68574,1.279226 -0.56324,0.473938 -0.59129,0.477087 -4.24799,0.477087 -3.44669,0 -3.7055,-0.02449 -4.0658,-0.384793 -0.3313,-0.331308 -0.36565,-0.522288 -0.24709,-1.373984 0.31326,-2.250322 0.16592,-2.393768 -1.26663,-1.233203 -2.91716,2.363298 -3.93037,2.893542 -6.46975,3.3858 -2.19623,0.425738 -4.27199,0.444546 -6.12963,0.05554 z m 9.40215,-7.528154 c 2.99735,-0.705553 5.70655,-3.276195 6.72047,-6.376769 1.00058,-3.059793 -0.31519,-6.445725 -3.07067,-7.9019 -2.19625,-1.160643 -4.09242,-1.233567 -6.63644,-0.255228 -3.32228,1.277622 -5.71209,4.287649 -5.90131,7.432822 -0.12643,2.101583 0.0618,2.994116 0.90711,4.302029 1.6121,2.494236 4.68994,3.573697 7.98084,2.799046 z m -54.12627,6.511834 c -0.41875,-0.462713 -0.33646,-1.827365 0.36411,-6.038088 0.44825,-2.694155 0.78578,-4.814988 1.99508,-12.535967 0.31836,-2.032549 0.78666,-5.01741 1.04067,-6.633026 0.25401,-1.615616 0.72759,-4.643119 1.05238,-6.727784 1.03931,-6.670698 1.52454,-9.462404 1.73914,-10.005856 0.42849,-1.085106 0.38505,-1.08084 10.99627,-1.080052 7.36154,5.69e-4 10.11346,0.06426 11.33409,0.262418 5.60518,0.909934 8.88983,4.732884 8.90276,10.361752 0.007,3.267394 -0.91613,7.533116 -2.1727,10.034452 -1.18245,2.353812 -3.23496,4.682268 -5.2151,5.916242 -2.81408,1.753666 -5.36012,2.2307 -11.90577,2.2307 -2.98889,0 -4.72641,0.0739 -5.03416,0.214126 -0.672,0.306184 -1.1683,1.622379 -1.52713,4.049963 -0.16948,1.146566 -0.5224,3.406532 -0.78426,5.022148 -0.26187,1.615616 -0.52101,3.227481 -0.57588,3.581922 -0.0549,0.354442 -0.34277,0.887453 -0.63978,1.184469 l -0.54003,0.54003 -4.34405,0 c -4.09731,0 -4.36346,-0.02144 -4.68564,-0.377449 z m 21.64355,-22.770202 c 1.41571,-0.523842 1.9981,-0.942979 2.90572,-2.091207 0.95857,-1.212683 1.56952,-3.173111 1.58423,-5.083548 0.009,-1.189421 -0.0725,-1.580671 -0.50034,-2.397621 -0.61037,-1.165444 -1.1561,-1.6265 -2.5366,-2.143008 -0.8936,-0.334338 -1.47599,-0.386762 -4.29673,-0.386762 l -3.26302,0 -0.51346,3.079619 c -0.7085,4.249377 -1.29901,7.870691 -1.42155,8.717692 l -0.10281,0.710682 3.52387,0 c 3.13369,0 3.64532,-0.04494 4.62069,-0.405847 z"
       id="path10749"
       inkscape:connector-curvature="0" />
    <path
       style="fill:#142b6e"
       d="m 37.276321,50.911568 c -0.0015,-0.142207 0.293543,-2.103687 0.655767,-4.358846 0.362224,-2.255157 1.126273,-7.02866 1.69789,-10.607784 1.083865,-6.786536 1.227508,-7.300738 2.253036,-8.065351 0.528029,-0.393687 0.68353,-0.399555 12.034205,-0.45411 7.552971,-0.0363 12.043272,0.01588 13.084465,0.152082 2.050345,0.268196 4.574039,1.056946 4.574039,1.429559 0,0.485058 -0.754306,3.732063 -1.164305,5.011898 -1.174711,3.666924 -3.104974,6.931228 -5.556475,9.39665 -2.990661,3.007647 -6.197395,4.690601 -10.655433,5.592174 -1.790832,0.362169 -2.905421,0.429001 -8.843786,0.530282 l -6.794708,0.115885 -0.640937,0.75806 c -0.352517,0.416933 -0.642208,0.641709 -0.643758,0.499501 z"
       id="path10747"
       inkscape:connector-curvature="0" />
  </g>
  <rect
     style="opacity:1;fill:#029ce0;fill-opacity:1;fill-rule:evenodd;stroke:none;stroke-width:1;stroke-linejoin:round;stroke-miterlimit:4;stroke-dasharray:none;stroke-opacity:1"
     id="rect10780"
     width="114.89413"
     height="28.798531"
     x="575.52002"
     y="30.600735"
     rx="5.3030305"
     ry="5.3030305" />
  <g
     style="font-style:normal;font-weight:normal;font-size:11.01978016px;line-height:125%;font-family:sans-serif;letter-spacing:0px;word-spacing:0px;fill:#ffffff;fill-opacity:1;stroke:none;stroke-width:1px;stroke-linecap:butt;stroke-linejoin:miter;stroke-opacity:1"
     id="text10782">
    <path
       d="m 595.2211,40.270321 0,1.060008 q -0.61879,-0.295941 -1.16763,-0.441222 -0.54883,-0.14528 -1.06001,-0.14528 -0.88782,0 -1.37209,0.344368 -0.47888,0.344368 -0.47888,0.979297 0,0.532694 0.31746,0.807113 0.32285,0.269037 1.21605,0.435841 l 0.65645,0.134519 q 1.21605,0.231372 1.79179,0.817874 0.58112,0.581121 0.58112,1.560418 0,1.167623 -0.78559,1.770267 -0.78021,0.602645 -2.2922,0.602645 -0.57036,0 -1.21605,-0.129138 -0.64031,-0.129138 -1.32904,-0.382034 l 0,-1.119196 q 0.66183,0.371272 1.29676,0.559598 0.63493,0.188326 1.24833,0.188326 0.93087,0 1.43666,-0.365891 0.50579,-0.365891 0.50579,-1.043866 0,-0.591882 -0.36589,-0.925489 -0.36051,-0.333607 -1.18914,-0.50041 l -0.66184,-0.129138 q -1.21605,-0.242134 -1.7595,-0.758686 -0.54346,-0.516552 -0.54346,-1.436661 0,-1.065389 0.74793,-1.678795 0.7533,-0.613405 2.07159,-0.613405 0.56498,0 1.15148,0.102234 0.5865,0.102234 1.19991,0.306703 z"
       style=""
       id="path11201" />
    <path
       d="m 597.37878,42.013685 0.99006,0 0,6.026442 -0.99006,0 0,-6.026442 z m 0,-2.346008 0.99006,0 0,1.253715 -0.99006,0 0,-1.253715 z"
       style=""
       id="path11203" />
    <path
       d="m 604.40066,44.956956 q 0,-1.076151 -0.4466,-1.668033 -0.44123,-0.591883 -1.24296,-0.591883 -0.79635,0 -1.24295,0.591883 -0.44122,0.591882 -0.44122,1.668033 0,1.07077 0.44122,1.662652 0.4466,0.591883 1.24295,0.591883 0.80173,0 1.24296,-0.591883 0.4466,-0.591882 0.4466,-1.662652 z m 0.99006,2.335246 q 0,1.538895 -0.68336,2.28682 -0.68335,0.753305 -2.09311,0.753305 -0.52193,0 -0.98468,-0.08071 -0.46274,-0.07533 -0.89858,-0.236753 l 0,-0.963155 q 0.43584,0.236753 0.86092,0.349749 0.42508,0.112996 0.8663,0.112996 0.97391,0 1.45818,-0.511172 0.48427,-0.50579 0.48427,-1.533514 l 0,-0.489648 q -0.3067,0.532694 -0.78559,0.796351 -0.47889,0.263657 -1.1461,0.263657 -1.10844,0 -1.78641,-0.844778 -0.67798,-0.844778 -0.67798,-2.238393 0,-1.398996 0.67798,-2.243774 0.67797,-0.844778 1.78641,-0.844778 0.66721,0 1.1461,0.263657 0.47889,0.263657 0.78559,0.796351 l 0,-0.914727 0.99006,0 0,5.278517 z"
       style=""
       id="path11205" />
    <path
       d="m 612.4395,44.402738 0,3.637389 -0.99006,0 0,-3.605104 q 0,-0.85554 -0.3336,-1.280619 -0.33361,-0.425079 -1.00082,-0.425079 -0.80173,0 -1.26448,0.511171 -0.46274,0.511171 -0.46274,1.393615 l 0,3.406016 -0.99544,0 0,-6.026442 0.99544,0 0,0.93625 q 0.35513,-0.543456 0.83401,-0.812493 0.48427,-0.269038 1.11382,-0.269038 1.03848,0 1.57118,0.64569 0.53269,0.64031 0.53269,1.888644 z"
       style=""
       id="path11207" />
    <path
       d="m 617.83101,45.661834 0,-3.648149 0.99006,0 0,3.610484 q 0,0.85554 0.33361,1.286 0.33361,0.425079 1.00082,0.425079 0.80173,0 1.26448,-0.511171 0.46812,-0.511172 0.46812,-1.393615 l 0,-3.416777 0.99006,0 0,6.026442 -0.99006,0 0,-0.92549 q -0.36051,0.548837 -0.8394,0.817875 -0.4735,0.263657 -1.10305,0.263657 -1.03848,0 -1.57656,-0.645691 -0.53808,-0.64569 -0.53808,-1.888644 z"
       style=""
       id="path11209" />
    <path
       d="m 625.886,47.13616 0,3.196167 -0.99544,0 0,-8.318642 0.99544,0 0,0.914727 q 0.31208,-0.538075 0.78559,-0.796351 0.47889,-0.263657 1.14072,-0.263657 1.09767,0 1.78103,0.871682 0.68873,0.871682 0.68873,2.2922 0,1.420519 -0.68873,2.292201 -0.68336,0.871682 -1.78103,0.871682 -0.66183,0 -1.14072,-0.258276 -0.47351,-0.263657 -0.78559,-0.801733 z m 3.36835,-2.103874 q 0,-1.092292 -0.45198,-1.711079 -0.44661,-0.624167 -1.2322,-0.624167 -0.78559,0 -1.23757,0.624167 -0.4466,0.618787 -0.4466,1.711079 0,1.092293 0.4466,1.71646 0.45198,0.618787 1.23757,0.618787 0.78559,0 1.2322,-0.618787 0.45198,-0.624167 0.45198,-1.71646 z"
       style=""
       id="path11211" />
    <path
       d="m 638.48234,39.667677 0,0.823255 -0.94701,0 q -0.53269,0 -0.74254,0.21523 -0.20447,0.21523 -0.20447,0.774828 l 0,0.532695 1.63037,0 0,0.769447 -1.63037,0 0,5.256995 -0.99544,0 0,-5.256995 -0.94701,0 0,-0.769447 0.94701,0 0,-0.419699 q 0,-1.006201 0.46812,-1.463565 0.46813,-0.462744 1.48509,-0.462744 l 0.93625,0 z"
       style=""
       id="path11213" />
    <path
       d="m 641.66237,42.707802 q -0.79635,0 -1.2591,0.624167 -0.46274,0.618786 -0.46274,1.700317 0,1.081532 0.45736,1.705699 0.46274,0.618786 1.26448,0.618786 0.79097,0 1.25371,-0.624167 0.46275,-0.624167 0.46275,-1.700318 0,-1.070769 -0.46275,-1.694936 -0.46274,-0.629548 -1.25371,-0.629548 z m 0,-0.839398 q 1.29138,0 2.02854,0.839398 0.73716,0.839397 0.73716,2.324484 0,1.479707 -0.73716,2.324485 -0.73716,0.839398 -2.02854,0.839398 -1.29676,0 -2.03393,-0.839398 -0.73178,-0.844778 -0.73178,-2.324485 0,-1.485087 0.73178,-2.324484 0.73717,-0.839398 2.03393,-0.839398 z"
       style=""
       id="path11215" />
    <path
       d="m 649.55593,42.939174 q -0.1668,-0.09685 -0.36589,-0.1399 -0.19371,-0.04843 -0.43046,-0.04843 -0.8394,0 -1.29138,0.548836 -0.4466,0.543456 -0.4466,1.565799 l 0,3.174644 -0.99544,0 0,-6.026442 0.99544,0 0,0.93625 q 0.31208,-0.548836 0.81249,-0.812493 0.50041,-0.269038 1.21605,-0.269038 0.10223,0 0.22599,0.01614 0.12376,0.01076 0.27442,0.03767 l 0.005,1.016962 z"
       style=""
       id="path11217" />
    <path
       d="m 654.15647,40.006664 4.61669,0 0,0.914728 -3.52978,0 0,2.367531 3.18541,0 0,0.914728 -3.18541,0 0,3.836476 -1.08691,0 0,-8.033463 z"
       style=""
       id="path11219" />
    <path
       d="m 663.1477,42.939174 q -0.1668,-0.09685 -0.36589,-0.1399 -0.1937,-0.04843 -0.43046,-0.04843 -0.83939,0 -1.29138,0.548836 -0.4466,0.543456 -0.4466,1.565799 l 0,3.174644 -0.99544,0 0,-6.026442 0.99544,0 0,0.93625 q 0.31208,-0.548836 0.81249,-0.812493 0.50041,-0.269038 1.21605,-0.269038 0.10224,0 0.226,0.01614 0.12375,0.01076 0.27441,0.03767 l 0.005,1.016962 z"
       style=""
       id="path11221" />
    <path
       d="m 669.11496,44.779391 0,0.484268 -4.55212,0 q 0.0646,1.022343 0.61341,1.560418 0.55422,0.532694 1.53889,0.532694 0.57036,0 1.10306,-0.139899 0.53807,-0.1399 1.06539,-0.419699 l 0,0.936251 q -0.5327,0.225992 -1.09229,0.344368 -0.5596,0.118377 -1.13534,0.118377 -1.44204,0 -2.28682,-0.839398 -0.8394,-0.839397 -0.8394,-2.270677 0,-1.479707 0.79635,-2.346008 0.80173,-0.871682 2.15768,-0.871682 1.21605,0 1.92093,0.78559 0.71026,0.780209 0.71026,2.125397 z M 668.1249,44.48883 q -0.0108,-0.812493 -0.45736,-1.296761 -0.44122,-0.484267 -1.17301,-0.484267 -0.82863,0 -1.32904,0.468125 -0.49503,0.468125 -0.57036,1.318284 l 3.52977,-0.0054 z"
       style=""
       id="path11223" />
    <path
       d="m 675.88395,44.779391 0,0.484268 -4.55212,0 q 0.0646,1.022343 0.61341,1.560418 0.55422,0.532694 1.53889,0.532694 0.57036,0 1.10306,-0.139899 0.53807,-0.1399 1.06539,-0.419699 l 0,0.936251 q -0.5327,0.225992 -1.0923,0.344368 -0.55959,0.118377 -1.13533,0.118377 -1.44205,0 -2.28682,-0.839398 -0.8394,-0.839397 -0.8394,-2.270677 0,-1.479707 0.79635,-2.346008 0.80173,-0.871682 2.15768,-0.871682 1.21605,0 1.92093,0.78559 0.71026,0.780209 0.71026,2.125397 z m -0.99006,-0.290561 q -0.0108,-0.812493 -0.45736,-1.296761 -0.44122,-0.484267 -1.17301,-0.484267 -0.82863,0 -1.32904,0.468125 -0.49503,0.468125 -0.57036,1.318284 l 3.52977,-0.0054 z"
       style=""
       id="path11225" />
  </g>
  <g
     transform="scale(0.96719077,1.0339222)"
     style="font-style:normal;font-weight:normal;font-size:13.73782349px;line-height:191.99999571%;font-family:sans-serif;text-align:end;letter-spacing:0px;word-spacing:0px;text-anchor:end;fill:#142b6e;fill-opacity:1;stroke:none;stroke-width:1px;stroke-linecap:butt;stroke-linejoin:miter;stroke-opacity:1"
     id="text11023">
    <path
       d="m 430.34553,25.164471 1.355,0 0,9.317303 q 0,1.811139 -0.69092,2.629505 -0.68421,0.818366 -2.2069,0.818366 l -0.51651,0 0,-1.140346 0.42259,0 q 0.89887,0 1.2678,-0.503094 0.36894,-0.503094 0.36894,-1.804431 l 0,-9.317303 z"
       style=""
       id="path11107" />
    <path
       d="m 437.25469,28.531847 q -0.99278,0 -1.56966,0.778119 -0.57688,0.771411 -0.57688,2.119703 0,1.348293 0.57018,2.126412 0.57688,0.771411 1.57636,0.771411 0.98606,0 1.56294,-0.778119 0.57688,-0.778119 0.57688,-2.119704 0,-1.334876 -0.57688,-2.112995 -0.57688,-0.784827 -1.56294,-0.784827 z m 0,-1.046436 q 1.6099,0 2.52888,1.046436 0.91899,1.046436 0.91899,2.897822 0,1.844679 -0.91899,2.897823 -0.91898,1.046435 -2.52888,1.046435 -1.61661,0 -2.5356,-1.046435 -0.91228,-1.053144 -0.91228,-2.897823 0,-1.851386 0.91228,-2.897822 0.91899,-1.046436 2.5356,-1.046436 z"
       style=""
       id="path11109" />
    <path
       d="m 442.74177,27.666525 1.23426,0 0,7.512873 -1.23426,0 0,-7.512873 z m 0,-2.924653 1.23426,0 0,1.562945 -1.23426,0 0,-1.562945 z"
       style=""
       id="path11111" />
    <path
       d="m 452.79694,30.644843 0,4.534555 -1.23426,0 0,-4.494308 q 0,-1.066559 -0.41589,-1.596485 -0.41589,-0.529926 -1.24767,-0.529926 -0.99948,0 -1.57636,0.637252 -0.57688,0.637253 -0.57688,1.737352 l 0,4.246115 -1.24097,0 0,-7.512873 1.24097,0 0,1.167179 q 0.44272,-0.6775 1.03972,-1.012896 0.60372,-0.335397 1.38854,-0.335397 1.29463,0 1.95872,0.804951 0.66408,0.798243 0.66408,2.354481 z"
       style=""
       id="path11113" />
    <path
       d="m 465.49504,29.108729 q 0.46284,-0.831783 1.1068,-1.22755 0.64396,-0.395768 1.51599,-0.395768 1.17389,0 1.81114,0.825075 0.63726,0.818366 0.63726,2.334357 l 0,4.534555 -1.24097,0 0,-4.494308 q 0,-1.079975 -0.38235,-1.603193 -0.38235,-0.523218 -1.16718,-0.523218 -0.95923,0 -1.51599,0.637252 -0.55676,0.637253 -0.55676,1.737352 l 0,4.246115 -1.24096,0 0,-4.494308 q 0,-1.086683 -0.38236,-1.603193 -0.38235,-0.523218 -1.18059,-0.523218 -0.94582,0 -1.50257,0.64396 -0.55676,0.637253 -0.55676,1.730644 l 0,4.246115 -1.24097,0 0,-7.512873 1.24097,0 0,1.167179 q 0.4226,-0.690916 1.01289,-1.019604 0.5903,-0.328689 1.40196,-0.328689 0.81837,0 1.38854,0.415892 0.57688,0.415891 0.85191,1.207426 z"
       style=""
       id="path11115" />
    <path
       d="m 479.4341,31.114397 0,0.603713 -5.6749,0 q 0.0805,1.274505 0.7647,1.945297 0.69092,0.664085 1.91847,0.664085 0.71103,0 1.37512,-0.174406 0.67079,-0.174406 1.32817,-0.523218 l 0,1.167178 q -0.66409,0.281733 -1.36171,0.429307 -0.69762,0.147574 -1.41537,0.147574 -1.79772,0 -2.85087,-1.046435 -1.04643,-1.046436 -1.04643,-2.830743 0,-1.844679 0.99277,-2.924654 0.99948,-1.086684 2.68987,-1.086684 1.51599,0 2.39473,0.979357 0.88545,0.972649 0.88545,2.649629 z m -1.23426,-0.362228 q -0.0134,-1.012896 -0.57017,-1.616609 -0.55005,-0.603713 -1.46233,-0.603713 -1.03302,0 -1.65686,0.583589 -0.61713,0.58359 -0.71104,1.643441 l 4.4004,-0.0067 z"
       style=""
       id="path11117" />
    <path
       d="m 488.71786,28.531847 q -0.99277,0 -1.56965,0.778119 -0.57688,0.771411 -0.57688,2.119703 0,1.348293 0.57017,2.126412 0.57688,0.771411 1.57636,0.771411 0.98607,0 1.56295,-0.778119 0.57688,-0.778119 0.57688,-2.119704 0,-1.334876 -0.57688,-2.112995 -0.57688,-0.784827 -1.56295,-0.784827 z m 0,-1.046436 q 1.6099,0 2.52889,1.046436 0.91898,1.046436 0.91898,2.897822 0,1.844679 -0.91898,2.897823 -0.91899,1.046435 -2.52889,1.046435 -1.61661,0 -2.53559,-1.046435 -0.91228,-1.053144 -0.91228,-2.897823 0,-1.851386 0.91228,-2.897822 0.91898,-1.046436 2.53559,-1.046436 z"
       style=""
       id="path11119" />
    <path
       d="m 500.45002,30.644843 0,4.534555 -1.23426,0 0,-4.494308 q 0,-1.066559 -0.41589,-1.596485 -0.41589,-0.529926 -1.24767,-0.529926 -0.99949,0 -1.57637,0.637252 -0.57688,0.637253 -0.57688,1.737352 l 0,4.246115 -1.24096,0 0,-7.512873 1.24096,0 0,1.167179 q 0.44273,-0.6775 1.03973,-1.012896 0.60371,-0.335397 1.38854,-0.335397 1.29463,0 1.95871,0.804951 0.66409,0.798243 0.66409,2.354481 z"
       style=""
       id="path11121" />
    <path
       d="m 508.70747,26.277986 0,3.763144 1.70381,0 q 0.94582,0 1.46233,-0.489679 0.51651,-0.489678 0.51651,-1.395247 0,-0.898862 -0.51651,-1.38854 -0.51651,-0.489678 -1.46233,-0.489678 l -1.70381,0 z m -1.355,-1.113515 3.05881,0 q 1.68369,0 2.5423,0.764703 0.86533,0.757995 0.86533,2.22703 0,1.48245 -0.86533,2.240445 -0.85861,0.757996 -2.5423,0.757996 l -1.70381,0 0,4.024753 -1.355,0 0,-10.014927 z"
       style=""
       id="path11123" />
    <path
       d="m 518.40042,31.402838 q -1.49587,0 -2.07275,0.342104 -0.57688,0.342104 -0.57688,1.167178 0,0.657376 0.42931,1.046436 0.43601,0.382351 1.18059,0.382351 1.02631,0 1.64344,-0.724455 0.62384,-0.731164 0.62384,-1.93859 l 0,-0.275024 -1.22755,0 z m 2.4618,-0.509802 0,4.286362 -1.23425,0 0,-1.140347 q -0.4226,0.684208 -1.05315,1.012896 -0.63054,0.32198 -1.54282,0.32198 -1.15376,0 -1.83797,-0.64396 -0.6775,-0.650669 -0.6775,-1.737352 0,-1.267797 0.8452,-1.911758 0.85191,-0.64396 2.53559,-0.64396 l 1.73065,0 0,-0.120743 q 0,-0.851906 -0.56347,-1.314752 -0.55676,-0.469555 -1.56965,-0.469555 -0.64396,0 -1.25438,0.154282 -0.61042,0.154283 -1.17389,0.462847 l 0,-1.140347 q 0.6775,-0.261609 1.31475,-0.389059 0.63726,-0.134159 1.24097,-0.134159 1.63002,0 2.43497,0.845199 0.80495,0.845198 0.80495,2.562426 z"
       style=""
       id="path11125" />
    <path
       d="m 526.57737,35.877021 q -0.52322,1.341585 -1.0196,1.750768 -0.49639,0.409183 -1.32817,0.409183 l -0.98607,0 0,-1.03302 0.72446,0 q 0.5098,0 0.79153,-0.241485 0.28174,-0.241485 0.62384,-1.140347 l 0.22136,-0.563465 -3.03869,-7.39213 1.30805,0 2.34777,5.87614 2.34777,-5.87614 1.30805,0 -3.3003,8.210496 z"
       style=""
       id="path11127" />
    <path
       d="m 532.99015,26.277986 0,3.763144 1.70381,0 q 0.94582,0 1.46233,-0.489679 0.51651,-0.489678 0.51651,-1.395247 0,-0.898862 -0.51651,-1.38854 -0.51651,-0.489678 -1.46233,-0.489678 l -1.70381,0 z m -1.355,-1.113515 3.05881,0 q 1.68369,0 2.5423,0.764703 0.86532,0.757995 0.86532,2.22703 0,1.48245 -0.86532,2.240445 -0.85861,0.757996 -2.5423,0.757996 l -1.70381,0 0,4.024753 -1.355,0 0,-10.014927 z"
       style=""
       id="path11129" />
    <path
       d="m 542.68309,31.402838 q -1.49586,0 -2.07274,0.342104 -0.57688,0.342104 -0.57688,1.167178 0,0.657376 0.4293,1.046436 0.43602,0.382351 1.1806,0.382351 1.02631,0 1.64344,-0.724455 0.62383,-0.731164 0.62383,-1.93859 l 0,-0.275024 -1.22755,0 z m 2.46181,-0.509802 0,4.286362 -1.23426,0 0,-1.140347 q -0.4226,0.684208 -1.05314,1.012896 -0.63054,0.32198 -1.54282,0.32198 -1.15376,0 -1.83797,-0.64396 -0.6775,-0.650669 -0.6775,-1.737352 0,-1.267797 0.8452,-1.911758 0.8519,-0.64396 2.53559,-0.64396 l 1.73064,0 0,-0.120743 q 0,-0.851906 -0.56346,-1.314752 -0.55676,-0.469555 -1.56966,-0.469555 -0.64396,0 -1.25438,0.154282 -0.61042,0.154283 -1.17388,0.462847 l 0,-1.140347 q 0.6775,-0.261609 1.31475,-0.389059 0.63725,-0.134159 1.24097,-0.134159 1.63002,0 2.43497,0.845199 0.80495,0.845198 0.80495,2.562426 z"
       style=""
       id="path11131" />
    <path
       d="m 547.73416,24.741872 1.23425,0 0,10.437526 -1.23425,0 0,-10.437526 z"
       style=""
       id="path11133" />
    <path
       d="m 552.32237,33.475585 1.36171,0 0,1.703813 -1.36171,0 0,-1.703813 z m 0,-8.311114 1.36171,0 0,4.393688 -0.13416,2.394728 -1.08668,0 -0.14087,-2.394728 0,-4.393688 z"
       style=""
       id="path11135" />
    <path
       d="m 314.9089,51.541091 1.36842,0 2.10629,8.465397 2.09958,-8.465397 1.5227,0 2.10628,8.465397 2.09958,-8.465397 1.37513,0 -2.51547,10.014927 -1.70382,0 -2.11299,-8.693466 -2.13312,8.693466 -1.70381,0 -2.50877,-10.014927 z"
       style=""
       id="path11137" />
    <path
       d="m 334.94547,57.491018 0,0.603713 -5.67491,0 q 0.0805,1.274505 0.76471,1.945297 0.69091,0.664084 1.91846,0.664084 0.71104,0 1.37513,-0.174406 0.67079,-0.174406 1.32817,-0.523218 l 0,1.167179 q -0.66409,0.281732 -1.36171,0.429307 -0.69763,0.147574 -1.41537,0.147574 -1.79773,0 -2.85087,-1.046436 -1.04644,-1.046436 -1.04644,-2.830743 0,-1.844678 0.99278,-2.924654 0.99948,-1.086683 2.68987,-1.086683 1.51599,0 2.39473,0.979357 0.88545,0.972648 0.88545,2.649629 z m -1.23426,-0.362228 q -0.0134,-1.012896 -0.57017,-1.616609 -0.55005,-0.603713 -1.46233,-0.603713 -1.03302,0 -1.65686,0.583589 -0.61713,0.583589 -0.71104,1.643441 l 4.4004,-0.0067 z"
       style=""
       id="path11139" />
    <path
       d="m 338.11161,51.541091 0,3.722897 -1.14035,0 0,-3.722897 1.14035,0 z"
       style=""
       id="path11141" />
    <path
       d="m 340.7277,51.118492 1.23425,0 0,10.437526 -1.23425,0 0,-10.437526 z"
       style=""
       id="path11143" />
    <path
       d="m 344.53779,51.118492 1.23426,0 0,10.437526 -1.23426,0 0,-10.437526 z"
       style=""
       id="path11145" />
    <path
       d="m 357.6652,57.712379 q 0,-1.341584 -0.55676,-2.079456 -0.55005,-0.737871 -1.54953,-0.737871 -0.99277,0 -1.54953,0.737871 -0.55005,0.737872 -0.55005,2.079456 0,1.334876 0.55005,2.072748 0.55676,0.737871 1.54953,0.737871 0.99948,0 1.54953,-0.737871 0.55676,-0.737872 0.55676,-2.072748 z m 1.23425,2.911238 q 0,1.918466 -0.8519,2.850867 -0.85191,0.939109 -2.60938,0.939109 -0.65067,0 -1.22755,-0.100619 -0.57688,-0.09391 -1.12023,-0.295149 l 0,-1.200718 q 0.54335,0.295149 1.07327,0.436015 0.52993,0.140867 1.07998,0.140867 1.21413,0 1.81784,-0.637253 0.60372,-0.630545 0.60372,-1.911758 l 0,-0.61042 q -0.38236,0.664084 -0.97936,0.992772 -0.59701,0.328688 -1.42879,0.328688 -1.38183,0 -2.22703,-1.053144 -0.8452,-1.053143 -0.8452,-2.790495 0,-1.74406 0.8452,-2.797203 0.8452,-1.053144 2.22703,-1.053144 0.83178,0 1.42879,0.328688 0.597,0.328688 0.97936,0.992773 l 0,-1.140347 1.23425,0 0,6.580471 z"
       style=""
       id="path11147" />
    <path
       d="m 367.86795,57.491018 0,0.603713 -5.67491,0 q 0.0805,1.274505 0.76471,1.945297 0.69091,0.664084 1.91846,0.664084 0.71104,0 1.37513,-0.174406 0.67079,-0.174406 1.32817,-0.523218 l 0,1.167179 q -0.66409,0.281732 -1.36171,0.429307 -0.69763,0.147574 -1.41537,0.147574 -1.79773,0 -2.85087,-1.046436 -1.04644,-1.046436 -1.04644,-2.830743 0,-1.844678 0.99278,-2.924654 0.99948,-1.086683 2.68987,-1.086683 1.51599,0 2.39473,0.979357 0.88545,0.972648 0.88545,2.649629 z m -1.23426,-0.362228 q -0.0134,-1.012896 -0.57018,-1.616609 -0.55004,-0.603713 -1.46232,-0.603713 -1.03302,0 -1.65686,0.583589 -0.61713,0.583589 -0.71104,1.643441 l 4.4004,-0.0067 z"
       style=""
       id="path11149" />
    <path
       d="m 371.08775,51.910027 0,2.133119 2.5423,0 0,0.959233 -2.5423,0 0,4.078416 q 0,0.918985 0.24819,1.180594 0.2549,0.261609 1.02631,0.261609 l 1.2678,0 0,1.03302 -1.2678,0 q -1.42879,0 -1.97213,-0.529926 -0.54334,-0.536633 -0.54334,-1.945297 l 0,-4.078416 -0.90557,0 0,-0.959233 0.90557,0 0,-2.133119 1.24097,0 z"
       style=""
       id="path11151" />
    <path
       d="m 382.98089,63.575102 -0.67079,0 -0.007,-2.019084 q -0.70433,-0.01342 -1.40866,-0.16099 -0.70433,-0.154282 -1.41537,-0.456139 l 0,-1.207426 q 0.68421,0.429307 1.38183,0.650669 0.70433,0.214653 1.44891,0.221361 l 0,-3.058812 q -1.48245,-0.241485 -2.15995,-0.818366 -0.67079,-0.576882 -0.67079,-1.58307 0,-1.093391 0.73116,-1.723936 0.73116,-0.630544 2.09958,-0.724455 l 0,-1.576362 0.67079,0 0,1.556238 q 0.62384,0.02683 1.20743,0.134158 0.58359,0.100619 1.14035,0.281733 l 0,1.173886 q -0.55676,-0.281732 -1.14706,-0.436015 -0.58359,-0.154282 -1.20072,-0.181114 l 0,2.864283 q 1.5227,0.234777 2.24045,0.83849 0.71775,0.603713 0.71775,1.650149 0,1.133639 -0.76471,1.791015 -0.75799,0.650668 -2.19349,0.751287 l 0,2.0325 z m -0.67079,-7.184184 0,-2.750247 q -0.77812,0.0872 -1.1873,0.442722 -0.40918,0.35552 -0.40918,0.945817 0,0.576882 0.37564,0.898862 0.38235,0.32198 1.22084,0.462846 z m 0.67079,1.287921 0,2.90453 q 0.85191,-0.114034 1.28122,-0.48297 0.43601,-0.368936 0.43601,-0.972649 0,-0.590297 -0.41589,-0.939109 -0.40918,-0.348811 -1.30134,-0.509802 z"
       style=""
       id="path11153" />
    <path
       d="m 388.56859,51.541091 5.31939,0 0,1.140347 -4.07842,0 0,2.455099 q 0.29515,-0.100619 0.5903,-0.147574 0.29514,-0.05366 0.59029,-0.05366 1.67698,0 2.65634,0.918986 0.97936,0.918985 0.97936,2.488639 0,1.616609 -1.00619,2.51547 -1.00619,0.892154 -2.83745,0.892154 -0.63055,0 -1.28792,-0.107327 -0.65067,-0.107327 -1.3483,-0.32198 l 0,-1.361708 q 0.60372,0.328688 1.24768,0.489678 0.64396,0.16099 1.36171,0.16099 1.16047,0 1.83797,-0.610421 0.6775,-0.610421 0.6775,-1.656856 0,-1.046436 -0.6775,-1.656857 -0.6775,-0.610421 -1.83797,-0.610421 -0.54335,0 -1.08669,0.120743 -0.53663,0.120742 -1.1001,0.375643 l 0,-5.030941 z"
       style=""
       id="path11155" />
    <path
       d="m 404.4127,54.908468 q -0.99277,0 -1.56965,0.778119 -0.57689,0.771411 -0.57689,2.119703 0,1.348292 0.57018,2.126411 0.57688,0.771411 1.57636,0.771411 0.98606,0 1.56294,-0.778119 0.57689,-0.778119 0.57689,-2.119703 0,-1.334877 -0.57689,-2.112995 -0.57688,-0.784827 -1.56294,-0.784827 z m 0,-1.046436 q 1.6099,0 2.52889,1.046436 0.91898,1.046436 0.91898,2.897822 0,1.844678 -0.91898,2.897822 -0.91899,1.046436 -2.52889,1.046436 -1.61661,0 -2.5356,-1.046436 -0.91227,-1.053144 -0.91227,-2.897822 0,-1.851386 0.91227,-2.897822 0.91899,-1.046436 2.5356,-1.046436 z"
       style=""
       id="path11157" />
    <path
       d="m 416.14486,57.021463 0,4.534555 -1.23426,0 0,-4.494307 q 0,-1.06656 -0.41589,-1.596486 -0.41589,-0.529926 -1.24767,-0.529926 -0.99948,0 -1.57636,0.637253 -0.57689,0.637253 -0.57689,1.737352 l 0,4.246114 -1.24096,0 0,-7.512872 1.24096,0 0,1.167178 q 0.44273,-0.6775 1.03973,-1.012896 0.60371,-0.335396 1.38854,-0.335396 1.29463,0 1.95871,0.804951 0.66409,0.798242 0.66409,2.35448 z"
       style=""
       id="path11159" />
    <path
       d="m 426.11954,62.253642 q -0.52322,1.341584 -1.0196,1.750767 -0.49639,0.409184 -1.32817,0.409184 l -0.98607,0 0,-1.03302 0.72446,0 q 0.5098,0 0.79153,-0.241485 0.28174,-0.241486 0.62384,-1.140347 l 0.22136,-0.563466 -3.03869,-7.392129 1.30805,0 2.34777,5.876139 2.34777,-5.876139 1.30805,0 -3.3003,8.210496 z"
       style=""
       id="path11161" />
    <path
       d="m 434.03488,54.908468 q -0.99277,0 -1.56965,0.778119 -0.57688,0.771411 -0.57688,2.119703 0,1.348292 0.57017,2.126411 0.57688,0.771411 1.57636,0.771411 0.98607,0 1.56295,-0.778119 0.57688,-0.778119 0.57688,-2.119703 0,-1.334877 -0.57688,-2.112995 -0.57688,-0.784827 -1.56295,-0.784827 z m 0,-1.046436 q 1.6099,0 2.52889,1.046436 0.91899,1.046436 0.91899,2.897822 0,1.844678 -0.91899,2.897822 -0.91899,1.046436 -2.52889,1.046436 -1.61661,0 -2.53559,-1.046436 -0.91228,-1.053144 -0.91228,-2.897822 0,-1.851386 0.91228,-2.897822 0.91898,-1.046436 2.53559,-1.046436 z"
       style=""
       id="path11163" />
    <path
       d="m 439.39451,58.591117 0,-4.547971 1.23426,0 0,4.501015 q 0,1.06656 0.41589,1.603194 0.41589,0.529925 1.24767,0.529925 0.99948,0 1.57636,-0.637252 0.58359,-0.637253 0.58359,-1.737352 l 0,-4.25953 1.23426,0 0,7.512872 -1.23426,0 0,-1.153762 q -0.44943,0.684208 -1.04643,1.019604 -0.5903,0.328688 -1.37513,0.328688 -1.29463,0 -1.96542,-0.804951 -0.67079,-0.80495 -0.67079,-2.35448 z"
       style=""
       id="path11165" />
    <path
       d="m 452.59571,55.196908 q -0.20795,-0.120742 -0.45614,-0.174406 -0.24149,-0.06037 -0.53663,-0.06037 -1.04644,0 -1.60991,0.684208 -0.55675,0.6775 -0.55675,1.952005 l 0,3.957674 -1.24097,0 0,-7.512872 1.24097,0 0,1.167178 q 0.38906,-0.684208 1.01289,-1.012896 0.62384,-0.335396 1.51599,-0.335396 0.12745,0 0.28174,0.02012 0.15428,0.01342 0.3421,0.04695 l 0.007,1.267797 z"
       style=""
       id="path11167" />
    <path
       d="m 462.08071,51.118492 0,1.026312 -1.1806,0 q -0.66408,0 -0.92569,0.268317 -0.2549,0.268317 -0.2549,0.965941 l 0,0.664084 2.0325,0 0,0.959233 -2.0325,0 0,6.553639 -1.24097,0 0,-6.553639 -1.18059,0 0,-0.959233 1.18059,0 0,-0.523218 q 0,-1.254381 0.58359,-1.824555 0.58359,-0.576881 1.85139,-0.576881 l 1.16718,0 z"
       style=""
       id="path11169" />
    <path
       d="m 463.13385,54.043146 1.23426,0 0,7.512872 -1.23426,0 0,-7.512872 z m 0,-2.924654 1.23426,0 0,1.562946 -1.23426,0 0,-1.562946 z"
       style=""
       id="path11171" />
    <path
       d="m 471.29738,55.196908 q -0.20794,-0.120742 -0.45613,-0.174406 -0.24149,-0.06037 -0.53664,-0.06037 -1.04643,0 -1.6099,0.684208 -0.55676,0.6775 -0.55676,1.952005 l 0,3.957674 -1.24096,0 0,-7.512872 1.24096,0 0,1.167178 q 0.38906,-0.684208 1.0129,-1.012896 0.62384,-0.335396 1.51599,-0.335396 0.12745,0 0.28173,0.02012 0.15428,0.01342 0.34211,0.04695 l 0.007,1.267797 z"
       style=""
       id="path11173" />
    <path
       d="m 477.39488,54.264507 0,1.167179 q -0.52322,-0.268317 -1.08668,-0.402476 -0.56347,-0.134158 -1.16718,-0.134158 -0.91898,0 -1.38183,0.281733 -0.45614,0.281732 -0.45614,0.845198 0,0.429307 0.32869,0.6775 0.32869,0.241485 1.32146,0.462846 l 0.4226,0.09391 q 1.31475,0.281733 1.8648,0.798243 0.55676,0.509802 0.55676,1.428787 0,1.046436 -0.83178,1.656857 -0.82508,0.610421 -2.27399,0.610421 -0.60371,0 -1.26109,-0.120743 -0.65067,-0.114034 -1.37512,-0.348812 l 0,-1.274505 q 0.6842,0.35552 1.34829,0.536634 0.66408,0.174406 1.31475,0.174406 0.87203,0 1.34159,-0.295149 0.46955,-0.301856 0.46955,-0.845198 0,-0.503094 -0.3421,-0.771411 -0.3354,-0.268317 -1.48245,-0.51651 l -0.42931,-0.100619 q -1.14706,-0.241485 -1.65686,-0.737871 -0.5098,-0.503094 -0.5098,-1.375124 0,-1.059851 0.75129,-1.636733 0.75128,-0.576881 2.13312,-0.576881 0.6842,0 1.28792,0.100619 0.60371,0.100619 1.11351,0.301856 z"
       style=""
       id="path11175" />
    <path
       d="m 480.99033,51.910027 0,2.133119 2.5423,0 0,0.959233 -2.5423,0 0,4.078416 q 0,0.918985 0.24819,1.180594 0.2549,0.261609 1.02632,0.261609 l 1.26779,0 0,1.03302 -1.26779,0 q -1.42879,0 -1.97213,-0.529926 -0.54334,-0.536633 -0.54334,-1.945297 l 0,-4.078416 -0.90557,0 0,-0.959233 0.90557,0 0,-2.133119 1.24096,0 z"
       style=""
       id="path11177" />
    <path
       d="m 490.73024,60.429087 0,3.984506 -1.24097,0 0,-10.370447 1.24097,0 0,1.140347 q 0.38906,-0.670793 0.97935,-0.992773 0.59701,-0.328688 1.42208,-0.328688 1.36842,0 2.22033,1.086683 0.85861,1.086684 0.85861,2.857575 0,1.770891 -0.85861,2.857575 -0.85191,1.086683 -2.22033,1.086683 -0.82507,0 -1.42208,-0.32198 -0.59029,-0.328689 -0.97935,-0.999481 z m 4.19916,-2.622797 q 0,-1.361708 -0.56347,-2.133119 -0.55676,-0.778119 -1.53611,-0.778119 -0.97936,0 -1.54282,0.778119 -0.55676,0.771411 -0.55676,2.133119 0,1.361708 0.55676,2.139827 0.56346,0.771411 1.54282,0.771411 0.97935,0 1.53611,-0.771411 0.56347,-0.778119 0.56347,-2.139827 z"
       style=""
       id="path11179" />
    <path
       d="m 498.12907,58.591117 0,-4.547971 1.23426,0 0,4.501015 q 0,1.06656 0.41589,1.603194 0.41589,0.529925 1.24767,0.529925 0.99948,0 1.57636,-0.637252 0.58359,-0.637253 0.58359,-1.737352 l 0,-4.25953 1.23426,0 0,7.512872 -1.23426,0 0,-1.153762 q -0.44943,0.684208 -1.04643,1.019604 -0.5903,0.328688 -1.37513,0.328688 -1.29463,0 -1.96542,-0.804951 -0.67079,-0.80495 -0.67079,-2.35448 z"
       style=""
       id="path11181" />
    <path
       d="m 511.33027,55.196908 q -0.20795,-0.120742 -0.45614,-0.174406 -0.24149,-0.06037 -0.53664,-0.06037 -1.04643,0 -1.6099,0.684208 -0.55675,0.6775 -0.55675,1.952005 l 0,3.957674 -1.24097,0 0,-7.512872 1.24097,0 0,1.167178 q 0.38905,-0.684208 1.01289,-1.012896 0.62384,-0.335396 1.51599,-0.335396 0.12745,0 0.28173,0.02012 0.15429,0.01342 0.34211,0.04695 l 0.007,1.267797 z"
       style=""
       id="path11183" />
    <path
       d="m 517.76316,54.331586 0,1.153763 q -0.52322,-0.288441 -1.05315,-0.429307 -0.52322,-0.147574 -1.05985,-0.147574 -1.20072,0 -1.8648,0.764703 -0.66409,0.757995 -0.66409,2.133119 0,1.375124 0.66409,2.139827 0.66408,0.757995 1.8648,0.757995 0.53663,0 1.05985,-0.140866 0.52993,-0.147575 1.05315,-0.436015 l 0,1.140346 q -0.51651,0.241486 -1.07327,0.362228 -0.55005,0.120743 -1.17389,0.120743 -1.6971,0 -2.69658,-1.06656 -0.99948,-1.066559 -0.99948,-2.877698 0,-1.837971 1.00619,-2.891114 1.01289,-1.053144 2.77037,-1.053144 0.57017,0 1.11351,0.120743 0.54334,0.114034 1.05315,0.348811 z"
       style=""
       id="path11185" />
    <path
       d="m 526.15478,57.021463 0,4.534555 -1.23426,0 0,-4.494307 q 0,-1.06656 -0.41589,-1.596486 -0.41589,-0.529926 -1.24768,-0.529926 -0.99948,0 -1.57636,0.637253 -0.57688,0.637253 -0.57688,1.737352 l 0,4.246114 -1.24096,0 0,-10.437526 1.24096,0 0,4.091832 q 0.44272,-0.6775 1.03973,-1.012896 0.60371,-0.335396 1.38854,-0.335396 1.29463,0 1.95871,0.804951 0.66409,0.798242 0.66409,2.35448 z"
       style=""
       id="path11187" />
    <path
       d="m 532.04433,57.779458 q -1.49587,0 -2.07275,0.342104 -0.57688,0.342104 -0.57688,1.167179 0,0.657376 0.4293,1.046435 0.43602,0.382352 1.1806,0.382352 1.02631,0 1.64344,-0.724456 0.62383,-0.731163 0.62383,-1.938589 l 0,-0.275025 -1.22754,0 z m 2.4618,-0.509802 0,4.286362 -1.23426,0 0,-1.140347 q -0.42259,0.684208 -1.05314,1.012897 -0.63054,0.32198 -1.54282,0.32198 -1.15376,0 -1.83797,-0.643961 -0.6775,-0.650668 -0.6775,-1.737351 0,-1.267798 0.8452,-1.911758 0.8519,-0.643961 2.53559,-0.643961 l 1.73064,0 0,-0.120742 q 0,-0.851906 -0.56346,-1.314753 -0.55676,-0.469554 -1.56965,-0.469554 -0.64396,0 -1.25439,0.154282 -0.61042,0.154282 -1.17388,0.462847 l 0,-1.140347 q 0.6775,-0.261609 1.31475,-0.38906 0.63725,-0.134158 1.24097,-0.134158 1.63002,0 2.43497,0.845198 0.80495,0.845198 0.80495,2.562426 z"
       style=""
       id="path11189" />
    <path
       d="m 541.87143,54.264507 0,1.167179 q -0.52322,-0.268317 -1.08668,-0.402476 -0.56347,-0.134158 -1.16718,-0.134158 -0.91899,0 -1.38183,0.281733 -0.45614,0.281732 -0.45614,0.845198 0,0.429307 0.32869,0.6775 0.32868,0.241485 1.32146,0.462846 l 0.4226,0.09391 q 1.31475,0.281733 1.8648,0.798243 0.55676,0.509802 0.55676,1.428787 0,1.046436 -0.83179,1.656857 -0.82507,0.610421 -2.27398,0.610421 -0.60372,0 -1.26109,-0.120743 -0.65067,-0.114034 -1.37513,-0.348812 l 0,-1.274505 q 0.68421,0.35552 1.3483,0.536634 0.66408,0.174406 1.31475,0.174406 0.87203,0 1.34158,-0.295149 0.46956,-0.301856 0.46956,-0.845198 0,-0.503094 -0.34211,-0.771411 -0.33539,-0.268317 -1.48245,-0.51651 l -0.4293,-0.100619 q -1.14706,-0.241485 -1.65686,-0.737871 -0.5098,-0.503094 -0.5098,-1.375124 0,-1.059851 0.75128,-1.636733 0.75129,-0.576881 2.13312,-0.576881 0.68421,0 1.28792,0.100619 0.60372,0.100619 1.11352,0.301856 z"
       style=""
       id="path11191" />
    <path
       d="m 550.67223,57.491018 0,0.603713 -5.67491,0 q 0.0805,1.274505 0.76471,1.945297 0.69091,0.664084 1.91846,0.664084 0.71104,0 1.37513,-0.174406 0.67079,-0.174406 1.32816,-0.523218 l 0,1.167179 q -0.66408,0.281732 -1.3617,0.429307 -0.69763,0.147574 -1.41538,0.147574 -1.79772,0 -2.85086,-1.046436 -1.04644,-1.046436 -1.04644,-2.830743 0,-1.844678 0.99277,-2.924654 0.99949,-1.086683 2.68988,-1.086683 1.51599,0 2.39473,0.979357 0.88545,0.972648 0.88545,2.649629 z m -1.23426,-0.362228 q -0.0134,-1.012896 -0.57018,-1.616609 -0.55005,-0.603713 -1.46232,-0.603713 -1.03302,0 -1.65686,0.583589 -0.61713,0.583589 -0.71104,1.643441 l 4.4004,-0.0067 z"
       style=""
       id="path11193" />
    <path
       d="m 552.8456,59.852206 1.41537,0 0,1.703812 -1.41537,0 0,-1.703812 z"
       style=""
       id="path11195" />
  </g>
</svg>
