<?xml version="1.0" encoding="UTF-8" standalone="no"?>
<svg
   xmlns:dc="http://purl.org/dc/elements/1.1/"
   xmlns:cc="http://creativecommons.org/ns#"
   xmlns:rdf="http://www.w3.org/1999/02/22-rdf-syntax-ns#"
   xmlns:svg="http://www.w3.org/2000/svg"
   xmlns="http://www.w3.org/2000/svg"
   xmlns:xlink="http://www.w3.org/1999/xlink"
   viewBox="0 0 728 90"
   height="90"
   width="728"
   version="1.1"
   id="svg11278">
  <metadata
     id="metadata11284">
    <rdf:RDF>
      <cc:Work
         rdf:about="">
        <dc:format>image/svg+xml</dc:format>
        <dc:type
           rdf:resource="http://purl.org/dc/dcmitype/StillImage" />
        <dc:title></dc:title>
      </cc:Work>
    </rdf:RDF>
  </metadata>
  <defs
     id="defs11282">
    <linearGradient
       id="linearGradient11870">
      <stop
         id="stop11872"
         offset="0"
         style="stop-color:#31db00;stop-opacity:1" />
      <stop
         id="stop11874"
         offset="1"
         style="stop-color:#28c201;stop-opacity:1" />
    </linearGradient>
    <linearGradient
       gradientUnits="userSpaceOnUse"
       y2="90.383018"
       x2="54.771313"
       y1="-0.39181697"
       x1="54.771313"
       id="linearGradient11878"
       xlink:href="#linearGradient11870" />
  </defs>
  <rect
     ry="0"
     rx="0"
     y="0"
     x="0"
     height="90"
     width="728"
     id="rect11864"
     style="opacity:1;fill:url(#linearGradient11878);fill-opacity:1;fill-rule:evenodd;stroke:none;stroke-width:1;stroke-linejoin:round;stroke-miterlimit:4;stroke-dasharray:none;stroke-opacity:1" />
  <g
     id="text11958"
     style="font-style:normal;font-variant:normal;font-weight:normal;font-stretch:normal;font-size:220.69058228px;line-height:125%;font-family:'.SF Compact Display';-inkscape-font-specification:'.SF Compact Display';letter-spacing:0px;word-spacing:0px;opacity:0.20200004;fill:#ffffff;fill-opacity:1;stroke:none;stroke-width:1px;stroke-linecap:butt;stroke-linejoin:miter;stroke-opacity:1"
     transform="matrix(0.85376194,0.52066356,-0.52066356,0.85376194,0,0)">
    <path
       id="path11996"
       style=""
       d="m 536.70068,-328.26679 c 0,-13.79317 10.34487,-21.55182 24.35355,-23.27596 l 0,46.65968 c -2.26294,-0.64656 -4.31036,-1.40087 -6.25003,-2.04743 -12.60781,-4.84916 -18.10352,-12.17677 -18.10352,-21.33629 z m 65.84079,69.72012 c 0,14.87075 -11.20694,23.49147 -27.47856,25.0001 l 0,-50.32349 c 1.18535,0.32328 2.3707,0.64656 3.55605,0.86208 18.4268,5.60347 23.92251,13.1466 23.92251,24.46131 z m -27.47856,54.09505 0,-13.79316 c 25.5389,-2.04742 45.04329,-15.51731 45.04329,-41.595 0,-22.84493 -13.90092,-33.29756 -36.53033,-39.22431 l -8.51296,-2.15518 0,-50.32348 c 15.40955,1.93966 24.67683,11.63798 25.10786,23.81475 l 17.45697,0 c -0.75431,-23.38372 -19.28887,-37.3924 -42.56483,-39.54758 l 0,-14.11644 -14.11644,0 0,14.2242 c -23.38372,2.3707 -41.70276,15.51731 -41.70276,40.19413 0,22.62941 16.70265,33.1898 33.62083,37.50016 l 8.18969,2.15518 0,53.55626 c -17.56473,-2.26294 -26.93977,-11.85349 -27.9096,-25.0001 l -17.67249,0 c 0.21552,20.04319 14.87075,38.36223 45.47433,40.62517 l 0,13.6854 14.11644,0 z" />
  </g>
  <g
     id="text11954"
     style="font-style:normal;font-variant:normal;font-weight:normal;font-stretch:normal;font-size:68.31614685px;line-height:125%;font-family:'.SF Compact Display';-inkscape-font-specification:'.SF Compact Display';letter-spacing:0px;word-spacing:0px;fill:#ffffff;fill-opacity:1;stroke:none;stroke-width:1px;stroke-linecap:butt;stroke-linejoin:miter;stroke-opacity:1">
    <path
       id="path11999"
       style=""
       d="m 619.69563,34.058738 c 0,-4.269759 3.20232,-6.671499 7.53879,-7.205218 l 0,14.443794 c -0.70051,-0.200145 -1.3343,-0.433647 -1.93473,-0.633792 -3.90283,-1.501087 -5.60406,-3.769397 -5.60406,-6.604784 z m 20.38143,21.582299 c 0,4.603334 -3.46918,7.271933 -8.50616,7.738938 l 0,-15.577949 c 0.36693,0.100072 0.73386,0.200145 1.10079,0.26686 5.70413,1.734589 7.40537,4.069614 7.40537,7.572151 z m -8.50616,16.745461 0,-4.269759 c 7.90572,-0.633792 13.94343,-4.803479 13.94343,-12.875992 0,-7.071789 -4.30312,-10.307466 -11.30819,-12.142128 l -2.63524,-0.66715 0,-15.577949 c 4.77012,0.600434 7.63886,3.602609 7.77229,7.372006 l 5.40392,0 c -0.23351,-7.238576 -5.971,-11.575051 -13.17621,-12.2422 l 0,-4.369832 -4.36984,0 0,4.403189 c -7.23857,0.733865 -12.90935,4.803479 -12.90935,12.442345 0,7.005074 5.17042,10.274108 10.40754,11.608408 l 2.53517,0.66715 0,16.578674 c -5.43727,-0.700507 -8.33937,-3.669324 -8.63959,-7.738938 l -5.47063,0 c 0.0667,6.204493 4.60334,11.875267 14.07686,12.575775 l 0,4.236401 4.36984,0 z" />
  </g>
  <g
     id="text11962"
     style="font-style:normal;font-variant:normal;font-weight:normal;font-stretch:normal;font-size:220.69058228px;line-height:125%;font-family:'.SF Compact Display';-inkscape-font-specification:'.SF Compact Display';letter-spacing:0px;word-spacing:0px;opacity:0.20200004;fill:#ffffff;fill-opacity:1;stroke:none;stroke-width:1px;stroke-linecap:butt;stroke-linejoin:miter;stroke-opacity:1"
     transform="matrix(0.85376194,0.52066356,-0.52066356,0.85376194,0,0)">
    <path
       id="path11990"
       style=""
       d="m 70.084768,-43.702806 c 0,-13.793162 10.344871,-21.551815 24.353551,-23.27596 l 0,46.659679 c -2.262941,-0.646555 -4.310363,-1.400868 -6.250026,-2.047423 -12.607812,-4.849158 -18.103525,-12.176775 -18.103525,-21.336296 z m 65.840792,69.72012 c 0,14.870752 -11.20694,23.491478 -27.47856,25.000105 l 0,-50.32348694 c 1.18535,0.32327724 2.3707,0.64655444 3.55605,0.86207254 18.4268,5.6034719 23.92251,13.1466074 23.92251,24.4613094 z m -27.47856,54.095055 0,-13.793161 c 25.5389,-2.047423 45.04329,-15.517307 45.04329,-41.595003 0,-22.8449231 -13.90092,-33.2975533 -36.53032,-39.224302 l -8.51297,-2.155182 0,-50.323487 c 15.40955,1.939663 24.67683,11.63798 25.10786,23.814755 l 17.45697,0 C 150.25752,-66.54773 131.72296,-80.556409 108.447,-82.711591 l 0,-14.116438 -14.11644,0 0,14.224197 c -23.383719,2.3707 -41.702762,15.517307 -41.702762,40.194135 0,22.629405 16.702657,33.1897943 33.620831,37.5001572 l 8.18969,2.1551815 0,53.5562593 C 76.87359,48.538961 67.49855,38.948403 66.528719,25.801796 l -17.672488,0 c 0.215518,20.043188 14.870752,38.36223 45.474329,40.625171 l 0,13.685402 14.11644,0 z" />
  </g>
  <g
     id="text11937"
     style="font-style:normal;font-variant:normal;font-weight:normal;font-stretch:normal;font-size:68.31614685px;line-height:125%;font-family:'.SF Compact Display';-inkscape-font-specification:'.SF Compact Display';letter-spacing:0px;word-spacing:0px;fill:#ffffff;fill-opacity:1;stroke:none;stroke-width:1px;stroke-linecap:butt;stroke-linejoin:miter;stroke-opacity:1">
    <path
       id="path11993"
       style=""
       d="m 88.966479,34.058738 c 0,-4.269759 3.20232,-6.671499 7.538794,-7.205218 l 0,14.443794 c -0.700508,-0.200145 -1.3343,-0.433647 -1.934735,-0.633792 -3.902827,-1.501087 -5.604059,-3.769397 -5.604059,-6.604784 z m 20.381431,21.582299 c 0,4.603334 -3.46918,7.271933 -8.50616,7.738938 l 0,-15.577949 c 0.36693,0.100072 0.73386,0.200145 1.10079,0.26686 5.70414,1.734589 7.40537,4.069614 7.40537,7.572151 z m -8.50616,16.745461 0,-4.269759 c 7.90572,-0.633792 13.94343,-4.803479 13.94343,-12.875992 0,-7.071789 -4.30312,-10.307466 -11.30819,-12.142128 l -2.63524,-0.66715 0,-15.577949 c 4.77012,0.600434 7.63886,3.602609 7.77229,7.372006 l 5.40392,0 c -0.23351,-7.238576 -5.97099,-11.575051 -13.17621,-12.2422 l 0,-4.369832 -4.369835,0 0,4.403189 c -7.238576,0.733865 -12.90935,4.803479 -12.90935,12.442345 0,7.005074 5.170412,10.274108 10.407538,11.608408 l 2.53517,0.66715 0,16.578674 c -5.437272,-0.700507 -8.339374,-3.669324 -8.639591,-7.738938 l -5.470629,0 c 0.06672,6.204493 4.603334,11.875267 14.076862,12.575775 l 0,4.236401 4.369835,0 z" />
  </g>
  <g
     id="text11866"
     style="font-style:normal;font-variant:normal;font-weight:normal;font-stretch:normal;font-size:28.80591965px;line-height:125%;font-family:'Bangla Sangam MN';-inkscape-font-specification:'Bangla Sangam MN';letter-spacing:0px;word-spacing:0px;fill:#ffffff;fill-opacity:1;stroke:none;stroke-width:1px;stroke-linecap:butt;stroke-linejoin:miter;stroke-opacity:1">
    <path
       id="path12002"
       style=""
       d="m 212.64232,42.714373 q 0,2.025416 0.53449,3.60074 0.54855,1.575324 1.47686,2.658359 0.92832,1.083035 2.15201,1.659716 1.22369,0.562615 2.58803,0.562615 0.80173,0 1.57533,-0.267242 0.78766,-0.281308 1.49093,-0.759531 0.71733,-0.478223 1.32214,-1.139297 0.60482,-0.675138 1.05491,-1.448735 0.45009,-0.787662 0.70327,-1.659716 0.26724,-0.872054 0.29537,-1.772239 l -6.09031,0 0,-1.842566 8.07353,0 0,10.253669 -1.27995,0 -0.61888,-3.488217 q -0.49229,0.759532 -1.22369,1.476866 -0.71733,0.70327 -1.57532,1.265886 -0.85799,0.562615 -1.80037,0.900185 -0.94238,0.337569 -1.8707,0.337569 -2.05354,0 -3.69919,-0.787662 -1.64566,-0.801727 -2.79902,-2.180135 -1.15336,-1.392474 -1.77224,-3.277236 -0.61887,-1.898828 -0.61887,-4.093029 0,-1.279951 0.25317,-2.53177 0.26725,-1.265885 0.7736,-2.405182 0.52042,-1.139297 1.26589,-2.109809 0.75953,-0.984577 1.73004,-1.687846 0.97051,-0.717335 2.152,-1.125232 1.19556,-0.407896 2.57397,-0.407896 1.74411,0 3.10845,0.450092 1.37841,0.450093 2.40518,1.265886 1.02678,0.815792 1.70191,1.941024 0.68921,1.125231 1.06897,2.475508 l -2.20826,0 q -0.7736,-2.194201 -2.26453,-3.249105 -1.47687,-1.054904 -3.81172,-1.054904 -1.4628,0 -2.68649,0.675138 -1.22369,0.675139 -2.10981,1.828501 -0.88612,1.153362 -1.37841,2.68649 -0.49229,1.533127 -0.49229,3.249105 z" />
    <path
       id="path12004"
       style=""
       d="m 233.96546,45.752497 q 0.0141,0.984578 0.33756,1.941024 0.33757,0.942381 0.90019,1.687847 0.57668,0.7314 1.35028,1.195558 0.77359,0.450093 1.67378,0.450093 3.03812,0 4.03677,-2.827144 l 1.89882,0 q -0.23911,1.097101 -0.80172,1.969155 -0.56262,0.857989 -1.36435,1.462801 -0.80172,0.590746 -1.77224,0.900185 -0.97051,0.309438 -1.99728,0.309438 -1.47687,0 -2.67243,-0.632942 -1.18149,-0.632943 -2.02541,-1.687847 -0.84392,-1.054905 -1.29402,-2.433313 -0.45009,-1.392473 -0.45009,-2.911536 0,-1.420604 0.45009,-2.728685 0.4501,-1.308082 1.27995,-2.306724 0.84393,-0.998643 2.02542,-1.58939 1.19556,-0.590746 2.67242,-0.590746 1.43467,0 2.57397,0.534485 1.15336,0.534485 1.96915,1.476866 0.8158,0.942381 1.25182,2.208266 0.43603,1.265885 0.43603,2.742751 l 0,0.829858 -10.47871,0 z m 8.32671,-1.603454 q -0.0281,-0.900185 -0.33757,-1.687847 -0.29538,-0.787662 -0.84393,-1.378408 -0.53448,-0.590747 -1.30808,-0.928316 -0.77359,-0.337569 -1.73004,-0.337569 -0.87205,0 -1.61752,0.3657 -0.74547,0.3657 -1.29402,0.970512 -0.54855,0.604811 -0.87205,1.392473 -0.30944,0.773597 -0.3235,1.603455 l 8.32671,0 z" />
    <path
       id="path12006"
       style=""
       d="m 250.39383,34.275139 0,3.96644 2.53177,0 0,1.772239 -2.53177,0 0,9.381615 q 0,0.464158 0.11252,0.787662 0.12659,0.309439 0.32351,0.506354 0.21098,0.18285 0.49229,0.267243 0.2813,0.07033 0.60481,0.07033 0.39383,0 0.81579,-0.07033 0.42196,-0.08439 0.7314,-0.154719 l 0,1.701912 q -0.3657,0.112523 -0.95645,0.225046 -0.57668,0.112523 -1.19555,0.112523 -0.53449,0 -1.08304,-0.154719 -0.53448,-0.140654 -0.97051,-0.464158 -0.42196,-0.323504 -0.6892,-0.829858 -0.26725,-0.52042 -0.26725,-1.265885 l 0,-10.113016 -2.1942,0 0,-1.772239 2.1942,0 0,-3.96644 2.08168,0 z" />
    <path
       id="path12008"
       style=""
       d="m 269.91659,33.374954 q 0.94239,0.09846 1.81444,0.436027 0.87205,0.323504 1.57532,0.900185 0.71734,0.576681 1.20963,1.420604 0.49229,0.829858 0.6892,1.926959 l -1.94102,0 q -0.82986,-2.433313 -3.34757,-2.813078 l 0,6.793583 q 1.04084,0.436027 2.05355,0.914251 1.02677,0.478223 1.8285,1.111165 0.80173,0.632943 1.29402,1.476866 0.49229,0.829859 0.49229,1.997286 0,1.322147 -0.50636,2.278593 -0.49229,0.956447 -1.30808,1.603455 -0.80173,0.632942 -1.81443,0.984577 -1.01271,0.337569 -2.03949,0.436027 l 0,3.206909 -1.91289,0 0,-3.26317 q -1.04084,-0.18285 -1.95509,-0.70327 -0.90018,-0.534485 -1.61752,-1.322147 -0.71733,-0.787662 -1.19556,-1.80037 -0.47822,-1.026773 -0.66107,-2.208266 l 2.03948,0 q 0.14066,0.759531 0.42196,1.43467 0.29538,0.661073 0.71734,1.195558 0.43603,0.534485 0.99864,0.91425 0.56262,0.365701 1.25182,0.534485 l 0,-7.370264 q -0.95645,-0.421962 -1.8707,-0.88612 -0.90018,-0.478223 -1.60345,-1.0971 -0.70327,-0.618878 -1.1393,-1.420605 -0.42196,-0.801727 -0.42196,-1.884762 0,-0.984577 0.39383,-1.814435 0.39383,-0.829859 1.08304,-1.448736 0.6892,-0.618877 1.60345,-1.012708 0.91425,-0.407896 1.95509,-0.520419 l 0,-2.081678 1.91289,0 0,2.081678 z m 3.65701,14.234175 q 0,-0.562616 -0.32351,-1.054904 -0.30944,-0.492289 -0.82986,-0.900185 -0.50635,-0.421962 -1.16742,-0.773597 -0.66108,-0.3657 -1.33622,-0.661073 l 0,6.709191 q 0.84393,-0.07033 1.51907,-0.3657 0.67514,-0.295373 1.13929,-0.7314 0.47823,-0.450093 0.7314,-1.012709 0.26725,-0.576681 0.26725,-1.209623 z m -8.59396,-9.5504 q 0,0.590746 0.22505,1.068969 0.23911,0.478224 0.63294,0.872055 0.4079,0.379765 0.95645,0.703269 0.56261,0.323504 1.20962,0.618877 l 0,-6.048118 q -0.70327,0.112524 -1.26588,0.379766 -0.56262,0.253177 -0.95645,0.618877 -0.37977,0.3657 -0.59075,0.829858 -0.21098,0.450093 -0.21098,0.956447 z" />
    <path
       id="path12010"
       style=""
       d="m 278.6934,43.487969 1.27995,-10.000492 10.16928,0 0,1.687847 -8.57989,0 q -0.16879,1.547193 -0.37977,3.038124 -0.19691,1.476866 -0.37976,3.066255 0.57668,-0.450092 1.19555,-0.703269 0.61888,-0.267243 1.1815,-0.393831 0.57668,-0.126589 1.04084,-0.15472 0.47822,-0.02813 0.7314,-0.02813 1.35027,0 2.48957,0.506354 1.15336,0.506354 1.98322,1.378408 0.84392,0.857989 1.30808,2.039482 0.47822,1.167427 0.47822,2.489574 0,1.223689 -0.40789,2.391116 -0.4079,1.153362 -1.23776,2.053547 -0.82985,0.900185 -2.1098,1.448735 -1.27995,0.534485 -3.01,0.534485 -1.13929,0 -2.16607,-0.309438 -1.01271,-0.309439 -1.84256,-0.928316 -0.8158,-0.632943 -1.42061,-1.575324 -0.59074,-0.942381 -0.90018,-2.208266 l 2.16607,0 q 0.25317,0.801727 0.67514,1.43467 0.43602,0.618877 0.98457,1.054904 0.56262,0.421962 1.20963,0.647008 0.647,0.225046 1.32214,0.225046 0.95645,0 1.80037,-0.3657 0.85799,-0.3657 1.49093,-1.012708 0.63295,-0.647008 0.99865,-1.504997 0.3657,-0.872054 0.3657,-1.884762 0,-1.026774 -0.4079,-1.884763 -0.39383,-0.857988 -1.0549,-1.476866 -0.64701,-0.632942 -1.49093,-0.970512 -0.82986,-0.351634 -1.70192,-0.351634 -0.49229,0 -1.02677,0.126588 -0.53449,0.112523 -1.04084,0.33757 -0.50635,0.225046 -0.95645,0.562615 -0.43602,0.323504 -0.77359,0.7314 l -1.98322,0 z" />
    <path
       id="path12012"
       style=""
       d="m 309.18717,40.829611 -3.26318,11.730535 -2.18013,0 -4.03677,-14.318567 2.12388,0 3.02405,11.744601 3.16472,-11.744601 2.33485,0 3.08032,11.744601 3.13659,-11.744601 2.1098,0 -4.03676,14.318567 -2.1942,0 -3.26317,-11.730535 z" />
    <path
       id="path12014"
       style=""
       d="m 323.26662,32.840469 0,7.370265 q 0.43603,-0.647008 0.95645,-1.06897 0.52042,-0.436027 1.0971,-0.689204 0.59074,-0.267243 1.23775,-0.379766 0.64701,-0.112523 1.32215,-0.112523 1.01271,0 1.85663,0.323504 0.84392,0.323504 1.44874,0.88612 0.61887,0.562615 0.95644,1.336212 0.35164,0.773596 0.35164,1.673781 l 0,10.380258 -2.08168,0 0,-10.014558 q 0,-0.7314 -0.25318,-1.251819 -0.25318,-0.52042 -0.67514,-0.843924 -0.40789,-0.337569 -0.95644,-0.478223 -0.53449,-0.154719 -1.12523,-0.154719 -0.7314,0 -1.47687,0.309438 -0.7314,0.295373 -1.32215,0.829858 -0.59074,0.534485 -0.97051,1.25182 -0.3657,0.717335 -0.3657,1.547193 l 0,8.804934 -2.08168,0 0,-19.719677 2.08168,0 z" />
    <path
       id="path12016"
       style=""
       d="m 337.93682,45.752497 q 0.0141,0.984578 0.33757,1.941024 0.33757,0.942381 0.90019,1.687847 0.57668,0.7314 1.35027,1.195558 0.7736,0.450093 1.67379,0.450093 3.03812,0 4.03676,-2.827144 l 1.89883,0 q -0.23911,1.097101 -0.80173,1.969155 -0.56261,0.857989 -1.36434,1.462801 -0.80173,0.590746 -1.77224,0.900185 -0.97051,0.309438 -1.99728,0.309438 -1.47687,0 -2.67243,-0.632942 -1.18149,-0.632943 -2.02541,-1.687847 -0.84393,-1.054905 -1.29402,-2.433313 -0.45009,-1.392473 -0.45009,-2.911536 0,-1.420604 0.45009,-2.728685 0.45009,-1.308082 1.27995,-2.306724 0.84392,-0.998643 2.02542,-1.58939 1.19555,-0.590746 2.67242,-0.590746 1.43467,0 2.57397,0.534485 1.15336,0.534485 1.96915,1.476866 0.81579,0.942381 1.25182,2.208266 0.43603,1.265885 0.43603,2.742751 l 0,0.829858 -10.47872,0 z m 8.32671,-1.603454 q -0.0281,-0.900185 -0.33757,-1.687847 -0.29537,-0.787662 -0.84392,-1.378408 -0.53448,-0.590747 -1.30808,-0.928316 -0.7736,-0.337569 -1.73004,-0.337569 -0.87206,0 -1.61752,0.3657 -0.74547,0.3657 -1.29402,0.970512 -0.54855,0.604811 -0.87205,1.392473 -0.30944,0.773597 -0.32351,1.603455 l 8.32671,0 z" />
    <path
       id="path12018"
       style=""
       d="m 351.62244,38.241579 2.08168,0 0,2.109808 q 1.0971,-1.265885 2.36299,-1.8285 1.26588,-0.562616 2.60209,-0.562616 0.99865,0 1.78631,0.295373 0.78766,0.295373 1.33621,0.843924 0.54855,0.54855 0.82986,1.336212 0.29537,0.773596 0.29537,1.744108 l 0,10.380258 -2.08168,0 0,-10.113015 q 0,-0.731401 -0.18285,-1.223689 -0.16878,-0.506354 -0.50635,-0.815793 -0.3235,-0.309439 -0.80173,-0.450093 -0.47822,-0.140653 -1.06897,-0.140653 -0.95644,0 -1.7863,0.337569 -0.82986,0.337569 -1.44874,0.900185 -0.61887,0.54855 -0.98457,1.27995 -0.35164,0.717335 -0.35164,1.490932 l 0,8.734607 -2.08168,0 0,-14.318567 z" />
    <path
       id="path12020"
       style=""
       d="m 378.33262,49.972114 3.96644,-11.730535 2.18014,0 -6.06219,17.427019 q -0.29537,0.829858 -0.6892,1.406539 -0.37977,0.590746 -0.81579,0.942381 -0.42197,0.3657 -0.87206,0.520419 -0.45009,0.168785 -0.87205,0.168785 -0.37977,0 -0.74547,-0.05626 -0.3657,-0.0422 -0.7736,-0.196915 l 0,-1.814435 q 0.19692,0.08439 0.54855,0.18285 0.35164,0.09846 0.68921,0.09846 0.3657,0 0.66107,-0.267242 0.30944,-0.253177 0.59075,-0.773597 0.28131,-0.520419 0.56261,-1.308081 0.29538,-0.787662 0.63295,-1.842566 l -5.27452,-14.487352 2.27859,0 3.99457,11.730535 z" />
    <path
       id="path12022"
       style=""
       d="m 386.05452,45.443059 q 0,-1.519062 0.40789,-2.86934 0.42196,-1.364343 1.22369,-2.377051 0.81579,-1.026773 1.99729,-1.631585 1.19555,-0.604812 2.72868,-0.604812 1.5472,0 2.74275,0.604812 1.19556,0.604812 2.01135,1.631585 0.82986,1.012708 1.25182,2.377051 0.43603,1.350278 0.43603,2.86934 0,1.504997 -0.43603,2.855274 -0.42196,1.336212 -1.25182,2.34892 -0.81579,1.012708 -2.01135,1.603455 -1.19555,0.590746 -2.74275,0.590746 -1.53313,0 -2.72868,-0.590746 -1.1815,-0.590747 -1.99729,-1.603455 -0.80173,-1.012708 -1.22369,-2.34892 -0.40789,-1.350277 -0.40789,-2.855274 z m 2.08167,0 q 0,1.125231 0.29538,2.137939 0.29537,0.998643 0.84392,1.772239 0.54855,0.759531 1.33621,1.209624 0.80173,0.450092 1.80037,0.450092 0.99864,0 1.80037,-0.450092 0.81579,-0.450093 1.37841,-1.209624 0.57668,-0.773596 0.87205,-1.772239 0.30944,-1.012708 0.30944,-2.137939 0,-1.125231 -0.30944,-2.13794 -0.29537,-1.026773 -0.87205,-1.80037 -0.56262,-0.773596 -1.37841,-1.223689 -0.80173,-0.464157 -1.80037,-0.464157 -0.99864,0 -1.80037,0.464157 -0.78766,0.450093 -1.33621,1.223689 -0.54855,0.773597 -0.84392,1.80037 -0.29538,1.012709 -0.29538,2.13794 z" />
    <path
       id="path12024"
       style=""
       d="m 413.38358,52.560146 -2.08168,0 0,-2.559901 q -0.54855,0.717335 -1.15336,1.209624 -0.59075,0.492289 -1.22369,0.801727 -0.63294,0.295373 -1.29401,0.421962 -0.64701,0.126588 -1.32215,0.126588 -0.98458,0 -1.77224,-0.295373 -0.7736,-0.295373 -1.32215,-0.843923 -0.54855,-0.548551 -0.84392,-1.322147 -0.28131,-0.787662 -0.28131,-1.758174 l 0,-10.09895 2.08168,0 0,9.831708 q 0,0.7314 0.16878,1.237754 0.18285,0.506354 0.50636,0.829858 0.33757,0.309439 0.81579,0.450093 0.47822,0.140654 1.08304,0.140654 0.94238,0 1.77224,-0.365701 0.82985,-0.379765 1.44873,-0.956446 0.61888,-0.590747 0.97051,-1.308081 0.3657,-0.717335 0.3657,-1.406539 l 0,-8.4533 2.08168,0 0,14.318567 z" />
    <path
       id="path12026"
       style=""
       d="m 424.98753,48.199875 q 0.0141,0.773597 0.26724,1.308082 0.25318,0.534484 0.6892,0.872054 0.43603,0.337569 1.01271,0.492288 0.59075,0.15472 1.29402,0.15472 0.56261,0 1.18149,-0.09846 0.63294,-0.112523 1.15336,-0.3657 0.52042,-0.253177 0.85799,-0.675139 0.33757,-0.436027 0.33757,-1.0971 0,-0.604812 -0.3657,-1.026774 -0.3657,-0.421962 -0.95645,-0.745466 -0.59074,-0.323503 -1.35027,-0.576681 -0.75953,-0.267242 -1.5472,-0.54855 -0.78766,-0.281308 -1.54719,-0.604812 -0.75953,-0.337569 -1.35028,-0.801727 -0.59074,-0.464158 -0.95644,-1.0971 -0.3657,-0.632943 -0.3657,-1.519062 0,-0.928316 0.40789,-1.659716 0.4079,-0.731401 1.08304,-1.223689 0.6892,-0.506355 1.57532,-0.759532 0.88612,-0.267242 1.84257,-0.267242 1.08303,0 2.01135,0.267242 0.92831,0.253177 1.61752,0.773597 0.70327,0.506354 1.11116,1.27995 0.42197,0.759532 0.46416,1.758174 l -2.13794,0 q -0.0703,-0.562615 -0.33757,-0.984577 -0.25317,-0.421962 -0.67513,-0.689204 -0.4079,-0.281308 -0.94239,-0.407897 -0.52042,-0.140653 -1.11116,-0.140653 -0.68921,0 -1.22369,0.168784 -0.52042,0.168785 -0.88612,0.464158 -0.35163,0.281308 -0.53449,0.661074 -0.18285,0.379765 -0.18285,0.787661 0,0.548551 0.36571,0.956447 0.3657,0.407896 0.95644,0.7314 0.59075,0.323504 1.35028,0.590747 0.75953,0.267242 1.54719,0.562615 0.78766,0.281308 1.54719,0.618877 0.75954,0.33757 1.35028,0.787662 0.59075,0.436027 0.95645,1.026774 0.3657,0.590746 0.3657,1.392473 0,1.153362 -0.46416,1.969155 -0.45009,0.801727 -1.22369,1.322147 -0.77359,0.506354 -1.80037,0.745466 -1.01271,0.239111 -2.12387,0.239111 -1.08304,0 -2.05355,-0.281308 -0.97051,-0.295373 -1.70191,-0.872054 -0.7314,-0.576681 -1.18149,-1.448735 -0.43603,-0.872054 -0.47823,-2.039482 l 2.15201,0 z" />
    <path
       id="path12028"
       style=""
       d="m 438.30745,45.752497 q 0.0141,0.984578 0.33757,1.941024 0.33757,0.942381 0.90019,1.687847 0.57668,0.7314 1.35027,1.195558 0.7736,0.450093 1.67378,0.450093 3.03813,0 4.03677,-2.827144 l 1.89883,0 q -0.23911,1.097101 -0.80173,1.969155 -0.56261,0.857989 -1.36434,1.462801 -0.80173,0.590746 -1.77224,0.900185 -0.97051,0.309438 -1.99729,0.309438 -1.47686,0 -2.67242,-0.632942 -1.18149,-0.632943 -2.02542,-1.687847 -0.84392,-1.054905 -1.29401,-2.433313 -0.45009,-1.392473 -0.45009,-2.911536 0,-1.420604 0.45009,-2.728685 0.45009,-1.308082 1.27995,-2.306724 0.84392,-0.998643 2.02541,-1.58939 1.19556,-0.590746 2.67243,-0.590746 1.43467,0 2.57397,0.534485 1.15336,0.534485 1.96915,1.476866 0.81579,0.942381 1.25182,2.208266 0.43603,1.265885 0.43603,2.742751 l 0,0.829858 -10.47872,0 z m 8.32671,-1.603454 q -0.0281,-0.900185 -0.33757,-1.687847 -0.29537,-0.787662 -0.84392,-1.378408 -0.53449,-0.590747 -1.30808,-0.928316 -0.7736,-0.337569 -1.73005,-0.337569 -0.87205,0 -1.61752,0.3657 -0.74546,0.3657 -1.29401,0.970512 -0.54855,0.604811 -0.87206,1.392473 -0.30943,0.773597 -0.3235,1.603455 l 8.32671,0 z" />
    <path
       id="path12030"
       style=""
       d="m 451.99308,38.241579 2.08168,0 0,2.109808 q 1.0971,-1.265885 2.36298,-1.8285 1.26589,-0.562616 2.6021,-0.562616 0.99864,0 1.7863,0.295373 0.78767,0.295373 1.33622,0.843924 0.54855,0.54855 0.82985,1.336212 0.29538,0.773596 0.29538,1.744108 l 0,10.380258 -2.08168,0 0,-10.113015 q 0,-0.731401 -0.18285,-1.223689 -0.16879,-0.506354 -0.50635,-0.815793 -0.32351,-0.309439 -0.80173,-0.450093 -0.47823,-0.140653 -1.06897,-0.140653 -0.95645,0 -1.78631,0.337569 -0.82985,0.337569 -1.44873,0.900185 -0.61888,0.54855 -0.98458,1.27995 -0.35163,0.717335 -0.35163,1.490932 l 0,8.734607 -2.08168,0 0,-14.318567 z" />
    <path
       id="path12032"
       style=""
       d="m 476.36841,45.161751 q -0.0281,-1.097101 -0.29538,-2.067612 -0.26724,-0.970512 -0.75953,-1.687847 -0.49229,-0.731401 -1.19555,-1.153362 -0.70327,-0.436027 -1.60346,-0.436027 -0.91425,0 -1.64565,0.450092 -0.71733,0.436027 -1.20962,1.195558 -0.49229,0.759531 -0.75953,1.772239 -0.25318,1.012709 -0.25318,2.152005 0,1.139297 0.25318,2.152005 0.26724,1.012708 0.75953,1.786305 0.49229,0.773596 1.20962,1.223688 0.7314,0.450093 1.64565,0.450093 0.91425,0 1.63159,-0.421962 0.71733,-0.436027 1.20962,-1.181493 0.49229,-0.745465 0.74547,-1.730043 0.26724,-0.998642 0.26724,-2.137939 l 0,-0.3657 z m 2.08168,7.398395 -2.08168,0 0,-2.152004 q -0.7314,1.209623 -1.78631,1.8285 -1.0549,0.604812 -2.152,0.604812 -1.43467,0 -2.53177,-0.590746 -1.0971,-0.590747 -1.84257,-1.603455 -0.7314,-1.026773 -1.11116,-2.377051 -0.37977,-1.364343 -0.37977,-2.883405 0,-1.519062 0.3657,-2.869339 0.3657,-1.350278 1.0971,-2.362986 0.7314,-1.012708 1.81444,-1.603455 1.0971,-0.590746 2.53177,-0.590746 1.0127,0 2.01135,0.520419 1.01271,0.506355 1.98322,1.786305 l 0,-7.426526 2.08168,0 0,19.719677 z" />
    <path
       id="path12034"
       style=""
       d="m 496.14432,33.374954 q 0.94238,0.09846 1.81444,0.436027 0.87205,0.323504 1.57532,0.900185 0.71733,0.576681 1.20962,1.420604 0.49229,0.829858 0.68921,1.926959 l -1.94103,0 q -0.82985,-2.433313 -3.34756,-2.813078 l 0,6.793583 q 1.04084,0.436027 2.05355,0.914251 1.02677,0.478223 1.8285,1.111165 0.80173,0.632943 1.29401,1.476866 0.49229,0.829859 0.49229,1.997286 0,1.322147 -0.50635,2.278593 -0.49229,0.956447 -1.30808,1.603455 -0.80173,0.632942 -1.81444,0.984577 -1.01271,0.337569 -2.03948,0.436027 l 0,3.206909 -1.91289,0 0,-3.26317 q -1.04084,-0.18285 -1.95509,-0.70327 -0.90019,-0.534485 -1.61752,-1.322147 -0.71734,-0.787662 -1.19556,-1.80037 -0.47822,-1.026773 -0.66107,-2.208266 l 2.03948,0 q 0.14065,0.759531 0.42196,1.43467 0.29537,0.661073 0.71733,1.195558 0.43603,0.534485 0.99865,0.91425 0.56261,0.365701 1.25182,0.534485 l 0,-7.370264 q -0.95645,-0.421962 -1.8707,-0.88612 -0.90018,-0.478223 -1.60345,-1.0971 -0.70327,-0.618878 -1.1393,-1.420605 -0.42196,-0.801727 -0.42196,-1.884762 0,-0.984577 0.39383,-1.814435 0.39383,-0.829859 1.08303,-1.448736 0.68921,-0.618877 1.60346,-1.012708 0.91425,-0.407896 1.95509,-0.520419 l 0,-2.081678 1.91289,0 0,2.081678 z m 3.657,14.234175 q 0,-0.562616 -0.3235,-1.054904 -0.30944,-0.492289 -0.82986,-0.900185 -0.50635,-0.421962 -1.16743,-0.773597 -0.66107,-0.3657 -1.33621,-0.661073 l 0,6.709191 q 0.84392,-0.07033 1.51906,-0.3657 0.67514,-0.295373 1.1393,-0.7314 0.47822,-0.450093 0.7314,-1.012709 0.26724,-0.576681 0.26724,-1.209623 z m -8.59395,-9.5504 q 0,0.590746 0.22504,1.068969 0.23912,0.478224 0.63295,0.872055 0.40789,0.379765 0.95644,0.703269 0.56262,0.323504 1.20963,0.618877 l 0,-6.048118 q -0.70327,0.112524 -1.26589,0.379766 -0.56261,0.253177 -0.95644,0.618877 -0.37977,0.3657 -0.59075,0.829858 -0.21098,0.450093 -0.21098,0.956447 z" />
    <path
       id="path12036"
       style=""
       d="m 504.92114,43.487969 1.27995,-10.000492 10.16928,0 0,1.687847 -8.57989,0 q -0.16878,1.547193 -0.37976,3.038124 -0.19692,1.476866 -0.37977,3.066255 0.57668,-0.450092 1.19556,-0.703269 0.61888,-0.267243 1.18149,-0.393831 0.57668,-0.126589 1.04084,-0.15472 0.47822,-0.02813 0.7314,-0.02813 1.35028,0 2.48958,0.506354 1.15336,0.506354 1.98322,1.378408 0.84392,0.857989 1.30808,2.039482 0.47822,1.167427 0.47822,2.489574 0,1.223689 -0.4079,2.391116 -0.40789,1.153362 -1.23775,2.053547 -0.82986,0.900185 -2.10981,1.448735 -1.27995,0.534485 -3.00999,0.534485 -1.1393,0 -2.16607,-0.309438 -1.01271,-0.309439 -1.84257,-0.928316 -0.81579,-0.632943 -1.4206,-1.575324 -0.59075,-0.942381 -0.90019,-2.208266 l 2.16607,0 q 0.25318,0.801727 0.67514,1.43467 0.43603,0.618877 0.98458,1.054904 0.56261,0.421962 1.20962,0.647008 0.64701,0.225046 1.32215,0.225046 0.95644,0 1.80037,-0.3657 0.85799,-0.3657 1.49093,-1.012708 0.63294,-0.647008 0.99864,-1.504997 0.3657,-0.872054 0.3657,-1.884762 0,-1.026774 -0.40789,-1.884763 -0.39384,-0.857988 -1.05491,-1.476866 -0.64701,-0.632942 -1.49093,-0.970512 -0.82986,-0.351634 -1.70191,-0.351634 -0.49229,0 -1.02678,0.126588 -0.53448,0.112523 -1.04083,0.33757 -0.50636,0.225046 -0.95645,0.562615 -0.43603,0.323504 -0.7736,0.7314 l -1.98322,0 z" />
  </g>
</svg>
