<?xml version="1.0" encoding="UTF-8" standalone="no"?>
<!-- Created with Inkscape (http://www.inkscape.org/) -->

<svg
   xmlns:dc="http://purl.org/dc/elements/1.1/"
   xmlns:cc="http://creativecommons.org/ns#"
   xmlns:rdf="http://www.w3.org/1999/02/22-rdf-syntax-ns#"
   xmlns:svg="http://www.w3.org/2000/svg"
   xmlns="http://www.w3.org/2000/svg"
   xmlns:sodipodi="http://sodipodi.sourceforge.net/DTD/sodipodi-0.dtd"
   xmlns:inkscape="http://www.inkscape.org/namespaces/inkscape"
   id="svg4430"
   version="1.1"
   inkscape:version="0.91 r13725"
   width="728"
   height="90"
   viewBox="0 0 728 90"
   sodipodi:docname="taskrabbit.svg">
  <metadata
     id="metadata4436">
    <rdf:RDF>
      <cc:Work
         rdf:about="">
        <dc:format>image/svg+xml</dc:format>
        <dc:type
           rdf:resource="http://purl.org/dc/dcmitype/StillImage" />
        <dc:title />
      </cc:Work>
    </rdf:RDF>
  </metadata>
  <defs
     id="defs4434">
    <filter
       inkscape:collect="always"
       style="color-interpolation-filters:sRGB"
       id="filter5497"
       x="-0.043002143"
       width="1.0860043"
       y="-0.20024299"
       height="1.400486">
      <feGaussianBlur
         inkscape:collect="always"
         stdDeviation="2.191896"
         id="feGaussianBlur5499" />
    </filter>
  </defs>
  <sodipodi:namedview
     pagecolor="#ffffff"
     bordercolor="#666666"
     borderopacity="1"
     objecttolerance="10"
     gridtolerance="10"
     guidetolerance="10"
     inkscape:pageopacity="0"
     inkscape:pageshadow="2"
     inkscape:window-width="1280"
     inkscape:window-height="694"
     id="namedview4432"
     showgrid="false"
     inkscape:zoom="1"
     inkscape:cx="336.37983"
     inkscape:cy="58.057327"
     inkscape:window-x="0"
     inkscape:window-y="1"
     inkscape:window-maximized="1"
     inkscape:current-layer="svg4430" />
  <path
     style="fill:#009549"
     d="m 0,0 364,0 364,0 0,45 0,45 L 364,90 0,90 0,45 0,0 Z"
     id="path4986" />
  <path
     style="fill:#ffffff;fill-rule:evenodd;stroke:none;stroke-width:1px;stroke-linecap:butt;stroke-linejoin:miter;stroke-opacity:1;fill-opacity:1"
     d="M 108.0957 11.623047 C 107.5772 11.628563 107.03733 11.762508 106.50781 11.806641 C 106.50781 11.904701 106.48828 12.021081 106.48828 12.119141 C 111.0383 13.98229 114.68709 17.042562 118.09961 20.455078 C 122.6104 24.965867 126.13875 30.025029 126.11914 32.005859 C 125.62884 31.339042 125.13889 30.633524 124.60938 29.986328 C 120.68693 25.397085 116.19562 21.415356 111.39062 17.787109 C 109.84127 16.610382 108.11666 15.63035 106.35156 14.806641 C 104.99833 14.17905 103.46904 13.825353 101.97852 13.550781 C 100.9783 13.374276 100.68361 13.748229 101.1543 14.650391 C 101.97801 16.219363 102.86055 17.826455 103.99805 19.179688 C 107.27328 23.10212 111.37128 26.083968 115.58789 28.927734 C 117.41182 30.163293 119.31434 31.299671 121.23633 32.515625 C 120.03999 33.829638 118.82418 35.065922 116.94141 35.183594 C 115.49011 35.262044 114.19643 34.713931 112.98047 33.988281 C 111.0781 32.850773 109.23449 31.594375 107.3125 30.496094 C 102.40947 27.691563 97.173441 26.593371 91.583984 27.632812 C 86.112193 28.633034 81.640288 31.41864 77.933594 35.517578 C 77.482517 36.027496 77.129789 36.164951 76.443359 35.949219 C 74.599822 35.360856 72.736304 36.124306 71.794922 37.712891 C 70.814314 39.360309 71.087682 41.322385 72.558594 42.714844 C 73.029285 43.165922 73.147373 43.518976 72.931641 44.126953 C 71.637234 47.872873 71.401304 51.716321 72.126953 55.619141 C 74.951105 70.857781 91.406365 80.095596 106.05664 72.544922 C 109.42993 70.799438 112.29279 68.387212 114.70508 65.425781 C 110.7042 63.307665 106.56704 62.895204 102.1543 63.679688 C 102.72305 62.777532 103.33124 61.99331 103.99805 61.248047 C 108.50884 56.286181 108.88181 50.403199 104.86133 45.460938 C 101.86067 41.754243 97.937623 40.008165 93.171875 40.871094 C 88.484573 41.714416 85.287318 44.479116 83.816406 49.068359 C 82.737738 52.441648 83.365996 55.717278 84.601562 58.914062 C 84.856522 59.580872 85.131432 60.229108 85.464844 61.033203 C 80.816761 57.85604 79.835449 49.85265 83.267578 44.380859 C 87.32729 37.908853 96.330156 35.693205 102.93945 39.517578 C 106.39118 41.518014 108.38992 44.617518 109.50781 48.324219 C 110.9395 53.05074 109.76334 57.26612 106.52734 60.933594 C 108.37088 61.208166 109.37185 59.913709 110.60742 59.050781 C 111.64686 58.305518 112.46971 57.56051 111.76367 56.148438 C 111.74407 56.128826 111.78313 56.090011 111.80273 56.050781 C 111.84193 56.050781 111.88069 56.050702 111.90039 56.070312 C 112.01806 56.187986 112.1363 56.306156 112.23438 56.423828 C 114.68588 59.110694 117.64771 61.013204 121.13867 62.072266 C 123.02143 62.641016 124.943 63.051992 126.92383 62.757812 C 127.6887 62.640141 128.41504 62.405904 128.65039 61.542969 C 128.88573 60.66042 128.41486 59.97248 127.74805 59.541016 C 126.98318 59.070318 126.12075 58.71785 125.25781 58.462891 C 123.74768 58.011813 122.41265 57.305469 121.33398 56.167969 C 119.94152 54.677443 119.17643 52.520308 119.49023 50.912109 C 120.70618 52.637981 121.66852 54.796681 124.375 53.423828 C 122.94332 51.286106 122.58952 50.401904 122.66797 49.087891 C 123.41323 49.793927 124.13943 50.481627 124.9043 51.148438 C 126.45366 52.501677 128.25706 53.284993 130.33594 53.324219 C 131.76763 53.343829 133.22065 53.344075 134.65234 53.265625 C 137.26075 53.128338 139.86871 52.992407 142.33984 51.992188 C 144.67368 51.050805 145.71314 49.520119 145.6543 47.009766 C 145.6347 46.460622 145.57465 45.912425 145.45703 45.363281 C 144.51565 40.283734 141.92744 36.576702 136.78906 35.027344 C 136.00457 34.791998 135.23957 34.516513 134.45508 34.300781 C 131.59171 33.575132 129.66988 32.044855 128.25781 29.220703 C 124.57072 21.905374 118.7661 16.511949 111.54883 12.667969 C 110.64667 12.177665 109.60763 11.864088 108.60742 11.667969 C 108.44072 11.633647 108.26854 11.621208 108.0957 11.623047 z M 135.73047 37.634766 C 137.04448 37.673996 138.20117 38.832471 138.20117 40.146484 C 138.20117 41.166319 137.45538 41.929613 136.43555 41.949219 C 135.12154 41.968829 133.86719 40.753623 133.86719 39.400391 C 133.86719 38.30211 134.59296 37.595546 135.73047 37.634766 z "
     id="path5824" />
  <path
     style="fill:#009549;fill-opacity:1"
     d="M 107.71875 9.1035156 C 106.98329 9.1035156 106.28169 9.2850491 105.70312 9.7851562 C 104.38912 10.922664 103.0946 11.099777 101.4668 11.060547 C 99.231005 11.021321 97.99554 12.766493 98.603516 14.923828 C 98.917308 16.100555 99.487563 17.237896 100.13477 18.277344 C 100.88003 19.493298 101.82043 20.572952 102.74219 21.828125 C 102.17344 21.788906 101.70295 21.769935 101.27148 21.671875 C 91.033945 21.044285 82.640625 24.729598 76.011719 32.515625 C 75.737147 32.849029 75.245835 33.144364 74.833984 33.183594 C 69.597538 33.791571 67.06827 39.106719 69.931641 43.539062 C 70.10815 43.813634 70.224934 44.225353 70.146484 44.519531 C 68.440227 50.638518 69.205214 56.520983 71.539062 62.326172 C 76.736282 75.230964 90.445887 82.920434 104.03711 80.429688 C 113.11753 78.762657 119.94161 73.839321 124.62891 65.916016 C 124.92309 65.425712 125.23806 65.308919 125.76758 65.230469 C 126.90509 65.053964 128.12079 64.896554 129.14062 64.40625 C 130.92533 63.543315 131.61221 61.581824 130.92578 59.738281 C 130.29819 58.071249 129.04195 57.031722 127.39453 56.443359 C 126.88462 56.24724 126.33617 56.110024 125.80664 55.953125 C 126.61073 55.776616 127.37568 55.716876 128.16016 55.697266 C 131.1216 55.61882 134.10302 55.619791 137.06445 55.462891 C 139.41791 55.345219 141.73133 54.953511 143.88867 53.914062 C 146.18329 52.815782 147.65504 51.010592 147.94922 48.441406 C 148.08651 47.343125 148.0262 46.20562 147.83008 45.126953 C 146.77102 39.047191 143.63446 34.673943 137.55469 32.751953 C 136.16223 32.320482 134.76941 31.849515 133.37695 31.398438 C 132.20022 31.006193 131.33763 30.30002 130.92578 29.064453 C 130.72966 28.456477 130.3959 27.887109 130.0625 27.318359 C 126.00278 20.257983 120.37303 14.807281 113.27344 10.865234 C 112.234 10.296484 111.07695 9.8647368 109.93945 9.5117188 C 109.2236 9.2861764 108.45421 9.1035156 107.71875 9.1035156 z M 108.0957 11.623047 C 108.26854 11.621208 108.44072 11.633647 108.60742 11.667969 C 109.60763 11.864088 110.64667 12.177665 111.54883 12.667969 C 118.7661 16.511949 124.57072 21.905374 128.25781 29.220703 C 129.66988 32.044855 131.59171 33.575132 134.45508 34.300781 C 135.23957 34.516513 136.00457 34.791998 136.78906 35.027344 C 141.92744 36.576702 144.51565 40.283734 145.45703 45.363281 C 145.57465 45.912425 145.6347 46.460622 145.6543 47.009766 C 145.71314 49.520119 144.67368 51.050806 142.33984 51.992188 C 139.86871 52.992408 137.26075 53.128338 134.65234 53.265625 C 133.22065 53.344075 131.76763 53.343829 130.33594 53.324219 C 128.25706 53.284993 126.45366 52.501677 124.9043 51.148438 C 124.13943 50.481627 123.41323 49.793927 122.66797 49.087891 C 122.58952 50.401904 122.94332 51.286106 124.375 53.423828 C 121.66852 54.796681 120.70618 52.637981 119.49023 50.912109 C 119.17643 52.520308 119.94152 54.677443 121.33398 56.167969 C 122.41265 57.305469 123.74768 58.011813 125.25781 58.462891 C 126.12075 58.71785 126.98318 59.070318 127.74805 59.541016 C 128.41486 59.97248 128.88573 60.66042 128.65039 61.542969 C 128.41504 62.405904 127.6887 62.640141 126.92383 62.757812 C 124.943 63.051992 123.02143 62.641016 121.13867 62.072266 C 117.64771 61.013204 114.68588 59.110694 112.23438 56.423828 C 112.13631 56.306156 112.01806 56.187986 111.90039 56.070312 C 111.88069 56.050702 111.84193 56.050781 111.80273 56.050781 C 111.78313 56.090011 111.74407 56.128827 111.76367 56.148438 C 112.46971 57.56051 111.64686 58.305518 110.60742 59.050781 C 109.37185 59.913709 108.37088 61.208166 106.52734 60.933594 C 109.76334 57.26612 110.9395 53.05074 109.50781 48.324219 C 108.38992 44.617518 106.39118 41.518014 102.93945 39.517578 C 96.330153 35.693205 87.32729 37.908853 83.267578 44.380859 C 79.835449 49.85265 80.816761 57.85604 85.464844 61.033203 C 85.131432 60.229108 84.856521 59.580872 84.601562 58.914062 C 83.365996 55.717278 82.737738 52.441648 83.816406 49.068359 C 85.287318 44.479116 88.484573 41.714416 93.171875 40.871094 C 97.937623 40.008165 101.86067 41.754244 104.86133 45.460938 C 108.88181 50.403199 108.50884 56.286181 103.99805 61.248047 C 103.33124 61.99331 102.72305 62.777532 102.1543 63.679688 C 106.56704 62.895205 110.7042 63.307665 114.70508 65.425781 C 112.29279 68.387212 109.42993 70.799438 106.05664 72.544922 C 91.406364 80.095596 74.951105 70.857781 72.126953 55.619141 C 71.401304 51.716321 71.637234 47.872873 72.931641 44.126953 C 73.147373 43.518976 73.029285 43.165922 72.558594 42.714844 C 71.087682 41.322385 70.814314 39.360309 71.794922 37.712891 C 72.736304 36.124306 74.599822 35.360856 76.443359 35.949219 C 77.129789 36.164951 77.482517 36.027496 77.933594 35.517578 C 81.640288 31.41864 86.112193 28.633033 91.583984 27.632812 C 97.173441 26.593371 102.40947 27.691563 107.3125 30.496094 C 109.23449 31.594375 111.0781 32.850773 112.98047 33.988281 C 114.19643 34.713931 115.49011 35.262044 116.94141 35.183594 C 118.82418 35.065922 120.03999 33.829638 121.23633 32.515625 C 119.31434 31.299671 117.41182 30.163293 115.58789 28.927734 C 111.37128 26.083968 107.27328 23.10212 103.99805 19.179688 C 102.86055 17.826455 101.97801 16.219363 101.1543 14.650391 C 100.68361 13.748229 100.9783 13.374276 101.97852 13.550781 C 103.46904 13.825353 104.99833 14.17905 106.35156 14.806641 C 108.11666 15.63035 109.84126 16.610382 111.39062 17.787109 C 116.19561 21.415356 120.68694 25.397085 124.60938 29.986328 C 125.13889 30.633524 125.62884 31.339042 126.11914 32.005859 C 126.13875 30.025029 122.6104 24.965867 118.09961 20.455078 C 114.68709 17.042562 111.0383 13.98229 106.48828 12.119141 C 106.48828 12.021081 106.50781 11.904701 106.50781 11.806641 C 107.03733 11.762508 107.5772 11.628563 108.0957 11.623047 z M 135.73047 37.634766 C 134.59296 37.595546 133.86719 38.30211 133.86719 39.400391 C 133.86719 40.753623 135.12154 41.968829 136.43555 41.949219 C 137.45538 41.929613 138.20117 41.166319 138.20117 40.146484 C 138.20117 38.832471 137.04448 37.673996 135.73047 37.634766 z "
     id="path6453" />
  <g
     id="g5693">
    <rect
       style="opacity:0.538;fill:#000000;fill-opacity:1;fill-rule:nonzero;stroke:none;stroke-width:16;stroke-linejoin:round;stroke-miterlimit:4;stroke-dasharray:none;stroke-opacity:1;filter:url(#filter5497)"
       id="rect5427"
       width="122.33228"
       height="26.270834"
       x="549.52081"
       y="33.864582"
       rx="5.9644322"
       ry="5.9644322" />
    <rect
       ry="5.9644322"
       rx="5.9644322"
       y="31.864582"
       x="549.52081"
       height="26.270834"
       width="122.33228"
       id="rect5188"
       style="opacity:1;fill:#ffffff;fill-opacity:1;fill-rule:nonzero;stroke:none;stroke-width:16;stroke-linejoin:round;stroke-miterlimit:4;stroke-dasharray:none;stroke-opacity:1" />
    <text
       sodipodi:linespacing="125%"
       id="text5182"
       y="49.582134"
       x="559.31531"
       style="font-style:normal;font-weight:normal;font-size:12.06972218px;line-height:125%;font-family:sans-serif;letter-spacing:0.68000001px;word-spacing:0px;fill:#37a5cd;fill-opacity:1;stroke:none;stroke-width:1px;stroke-linecap:butt;stroke-linejoin:miter;stroke-opacity:1"
       xml:space="preserve"><tspan
         style="font-style:normal;font-variant:normal;font-weight:500;font-stretch:normal;font-family:Futura;-inkscape-font-specification:'Futura Medium';letter-spacing:0.68000001px;fill:#37a5cd;fill-opacity:1"
         y="49.582134"
         x="559.31531"
         id="tspan5184"
         sodipodi:role="line">START EARNING</tspan></text>
  </g>
  <path
     style="fill:#ffffff"
     d="m 442.33974,24.727126 c -2.45313,0.02855 -4.39937,2.083907 -4.37124,4.595715 0.0282,2.511809 1.97418,4.481883 4.4837,4.453396 2.48134,-0.02854 4.42751,-2.055541 4.39937,-4.538798 -0.0282,-2.511808 -2.08687,-4.538799 -4.51183,-4.510313 z m -237.16387,1.055766 c -5.30103,0 -7.81264,3.227394 -6.65657,8.650611 l 8.57377,0 0,1.596601 c 0,7.221448 -0.0282,14.473645 0,21.695087 0,3.196853 1.606,5.707082 4.14373,6.192317 1.7764,0.313964 3.60911,0.258423 5.58291,0.372629 l 0,-29.913564 7.9807,0 0,-8.593681 -19.62454,0 z m 251.27453,0.02329 c -4.38281,7.82e-4 -6.50155,2.453049 -6.52618,7.39818 0,5.73719 -0.0283,11.504497 0.0282,17.241692 0.0282,1.541342 0.14215,3.139854 0.50871,4.652652 1.40984,5.765738 8.17591,10.188634 13.39234,8.9042 l 0,-8.420308 c -0.53574,-0.0285 -1.01359,-0.02831 -1.46475,-0.08539 -2.59411,-0.256889 -3.80866,-1.511808 -3.89321,-4.109246 -0.0563,-1.5128 -0.0282,-3.054455 -0.0282,-4.567246 l 0,-4.88037 5.3861,0 0,-6.564926 -5.3861,0 0,-9.419155 c -0.71902,-0.0999 -1.39078,-0.15019 -2.0169,-0.150084 z m -147.39759,0.0078 0,38.331277 9.19237,0 0,-11.331443 c 1.8328,2.312007 3.32647,4.2825 4.90551,6.194909 3.69378,4.538388 8.57118,5.736033 14.12599,5.108078 l 0,-8.648036 c -4.03217,0.656498 -7.33146,-0.255315 -9.16426,-4.308478 5.75218,-1.37007 8.45956,-5.338131 9.07991,-11.046796 0.76131,-6.993107 -3.74919,-13.073099 -10.54466,-13.957941 -2.7351,-0.342524 -5.52671,-0.284467 -8.29001,-0.34157 -3.07347,-0.02848 -6.17499,0 -9.30485,0 z m -29.2336,0.0052 c -0.4723,0.0072 -0.95086,0.02328 -1.44431,0.02328 l 0,38.331285 8.48685,0 0,-13.756103 c 1.55083,2.426176 2.87711,4.538217 4.25876,6.621868 3.75021,5.651579 9.27448,7.250682 15.64697,7.250682 l 0,-7.651768 c -6.79545,1.027555 -9.89586,-3.395969 -12.48997,-8.676481 3.41182,-4.053144 6.87913,-8.191034 10.51654,-12.501078 -2.70691,0 -5.10345,0.142877 -7.472,-0.05693 -1.94558,-0.142704 -3.15654,0.513037 -4.25621,2.140017 -1.86101,2.740154 -3.97638,5.337857 -6.26034,8.334904 l 0,-1.79843 c 0,-4.053151 0.0282,-8.077892 0,-12.131039 -0.0282,-3.53938 -2.14287,-5.821506 -5.58291,-6.106927 -0.46524,-0.02855 -0.93109,-0.03042 -1.40338,-0.02328 z m 131.73783,0.0026 c -4.62031,0.119414 -6.32774,2.385559 -6.35237,7.755264 l 0,28.943194 0,1.596595 8.09063,0 c 0.0564,-0.913376 0.0868,-1.738839 0.14315,-2.709309 3.07347,3.453768 7.10392,4.53693 11.7282,3.338113 10.03812,-2.62598 14.26947,-16.356266 7.6714,-24.947805 -4.59612,-5.994086 -12.35115,-7.020121 -19.11841,-2.424656 l 0,-11.473771 c -0.78246,-0.06777 -1.50256,-0.09469 -2.1626,-0.07762 z m -32.98623,0.0052 c -4.6091,0.184968 -6.27311,2.408852 -6.27311,7.778556 l 0,28.971649 0,1.539664 8.17753,0 0,-2.968066 c 1.57903,2.226371 3.46783,3.282572 5.6954,3.710724 5.66759,1.198817 11.7023,-1.484315 14.60658,-6.536471 2.05833,-3.59646 2.48099,-7.477475 1.97344,-11.55916 -0.9587,-7.849408 -7.95161,-13.300991 -15.70578,-12.244893 -2.34034,0.342523 -4.31458,1.340869 -6.31656,3.053463 l 0,-11.70148 c -0.78246,-0.05353 -1.49907,-0.07041 -2.1575,-0.04399 z m -60.21315,8.492751 c 1.94557,0.142718 3.86252,0.08445 5.72351,0.426973 2.53772,0.45669 3.94692,2.453871 3.91878,4.994218 -0.0564,2.654522 -1.52174,4.539789 -4.03126,5.11066 -0.73312,0.142682 -1.49339,0.227699 -2.22651,0.256184 -1.12788,0.02849 -2.25626,0 -3.52511,0 l 0,-10.019491 c 0,-0.171257 0.056,-0.340392 0.14059,-0.768544 z m 33.70709,0.07764 c -2.1716,-0.07893 -4.28964,0.391889 -6.29867,1.376642 -5.30101,2.625973 -7.89556,7.107713 -8.17753,12.959087 -0.31017,6.165347 1.63369,11.361195 7.1039,14.643673 5.30103,3.196852 11.58995,2.252903 15.36834,-2.085672 0.31016,1.541332 0.98726,2.768624 2.65086,2.854213 1.9174,0.114073 3.83409,0.0285 5.80786,0.0285 l 0,-28.741345 -4.53995,0 c -2.59412,0 -3.10082,0.342326 -4.00313,2.882672 -1.38165,-2.055118 -3.35495,-3.16857 -5.7235,-3.653812 -0.73313,-0.149844 -1.4643,-0.237619 -2.18818,-0.263931 z m -118.71615,0.02588 c -3.36512,0.09633 -6.42063,1.379888 -9.00064,3.948798 -4.51152,4.481295 -5.44135,10.07539 -3.94691,16.069474 2.59412,10.446846 14.52204,14.272883 21.99423,7.051429 0.36656,1.198817 0.81667,2.481393 2.22652,2.566971 2.08657,0.142692 4.17367,0.0285 6.28844,0.0285 l 0,-28.513615 c -0.14098,-0.05713 -0.22475,-0.142319 -0.3093,-0.142319 -1.46624,0 -2.90499,-0.02847 -4.37124,-0.02847 -2.45313,0 -3.01647,0.399562 -3.91877,2.825741 -1.46625,-1.940952 -3.2992,-3.083326 -5.49857,-3.511478 -1.18427,-0.228345 -2.34205,-0.327102 -3.46376,-0.294987 z m 30.88753,0.01031 c -2.5624,0.07136 -5.10587,0.840896 -7.06556,2.282338 -4.34233,3.196857 -6.0072,10.760762 1.3804,14.071792 1.57903,0.713581 3.24458,1.22732 4.8518,1.883818 1.12788,0.456693 2.28252,0.91431 3.29761,1.542266 1.21247,0.770665 1.35484,2.22538 0.42434,3.167308 -1.46624,1.512809 -4.4559,1.084439 -5.2736,-0.856512 -0.33837,-0.799169 -0.73417,-0.970565 -1.46731,-0.913462 -0.64851,0.0285 -1.32491,0 -1.97344,0 l -5.32985,0 c 0.36656,2.997056 1.43823,5.33875 3.63759,7.079887 4.45511,3.510833 12.09717,3.280924 16.41131,-0.37262 3.94758,-3.368114 4.93496,-11.644816 -2.02968,-14.356432 -1.57904,-0.599404 -3.214,-1.056783 -4.79304,-1.627654 -1.09967,-0.399599 -2.25718,-0.769322 -3.18767,-1.42581 -0.56394,-0.399609 -1.01499,-1.369498 -0.98672,-2.08309 0.0282,-1.027554 1.01474,-1.371279 1.97345,-1.428383 1.52263,-0.08558 2.67826,0.370477 2.93204,2.083071 l 8.29002,0 c -0.33836,-3.082678 -1.52203,-5.507255 -3.91878,-7.134222 -2.03018,-1.355814 -4.61051,-1.983653 -7.17291,-1.912295 z m 180.74936,0.970377 c -3.72938,-0.131905 -7.07722,1.675074 -6.90452,7.219628 0.22559,6.650582 0.0563,13.302993 0.0563,19.953585 l 0,1.539673 8.45872,0 0,-28.542093 c -0.53927,-0.09278 -1.07769,-0.151953 -1.61046,-0.170793 z m -57.34755,7.077308 c 3.86298,0.08558 6.90723,3.339915 6.85082,7.364526 -0.0564,4.081686 -3.18708,7.307603 -7.10647,7.307603 -3.91937,0 -6.90707,-3.254059 -6.87893,-7.449923 0.0282,-4.110238 3.15882,-7.279309 7.13458,-7.222206 z m -34.68359,0.02849 c 4.11675,-0.02849 7.21894,3.140292 7.1908,7.307604 -0.0282,4.167331 -3.04377,7.307585 -7.01955,7.33607 -3.94757,0.02849 -7.07833,-3.168901 -7.07833,-7.279138 0,-4.252948 2.90311,-7.33605 6.90708,-7.364536 z m 67.47552,0 c 3.91938,0.0285 6.93793,3.254146 6.88152,7.421468 -0.0564,4.081685 -3.18702,7.279308 -7.13459,7.222206 -3.94759,-0.02859 -6.82288,-3.225366 -6.76647,-7.506856 0.0564,-4.110237 3.04377,-7.165303 7.01954,-7.136818 z m -185.0848,0.0285 c 4.11675,0.02859 7.05021,3.054798 7.05021,7.250662 0,4.195864 -2.96183,7.336051 -6.99399,7.364536 -3.94756,0.02849 -7.0758,-3.197386 -7.04765,-7.307604 0,-4.252958 2.95927,-7.336088 6.99143,-7.307594 z"
     id="path5378"
     inkscape:connector-curvature="0" />
</svg>
