<?xml version="1.0" encoding="UTF-8" standalone="no"?>
<!-- Created with Inkscape (http://www.inkscape.org/) -->

<svg
   xmlns:dc="http://purl.org/dc/elements/1.1/"
   xmlns:cc="http://creativecommons.org/ns#"
   xmlns:rdf="http://www.w3.org/1999/02/22-rdf-syntax-ns#"
   xmlns:svg="http://www.w3.org/2000/svg"
   xmlns="http://www.w3.org/2000/svg"
   xmlns:sodipodi="http://sodipodi.sourceforge.net/DTD/sodipodi-0.dtd"
   xmlns:inkscape="http://www.inkscape.org/namespaces/inkscape"
   id="svg9220"
   version="1.1"
   inkscape:version="0.91 r13725"
   width="728"
   height="90"
   viewBox="0 0 728 90"
   sodipodi:docname="uber.svg">
  <metadata
     id="metadata9226">
    <rdf:RDF>
      <cc:Work
         rdf:about="">
        <dc:format>image/svg+xml</dc:format>
        <dc:type
           rdf:resource="http://purl.org/dc/dcmitype/StillImage" />
        <dc:title />
      </cc:Work>
    </rdf:RDF>
  </metadata>
  <defs
     id="defs9224" />
  <sodipodi:namedview
     pagecolor="#ffffff"
     bordercolor="#666666"
     borderopacity="1"
     objecttolerance="10"
     gridtolerance="10"
     guidetolerance="10"
     inkscape:pageopacity="0"
     inkscape:pageshadow="2"
     inkscape:window-width="1280"
     inkscape:window-height="694"
     id="namedview9222"
     showgrid="true"
     inkscape:snap-smooth-nodes="false"
     inkscape:object-nodes="false"
     inkscape:object-paths="false"
     inkscape:snap-midpoints="false"
     inkscape:snap-intersection-paths="false"
     showguides="false"
     inkscape:zoom="1"
     inkscape:cx="174.71775"
     inkscape:cy="-30.1482"
     inkscape:window-x="0"
     inkscape:window-y="1"
     inkscape:window-maximized="1"
     inkscape:current-layer="svg9220">
    <sodipodi:guide
       position="-19,73"
       orientation="1,0"
       id="guide9930" />
  </sodipodi:namedview>
  <rect
     style="opacity:1;fill:#000000;fill-opacity:1;fill-rule:nonzero;stroke:none;stroke-width:16;stroke-linejoin:round;stroke-miterlimit:4;stroke-dasharray:none;stroke-opacity:1"
     id="rect9883"
     width="728"
     height="90"
     x="0"
     y="0" />
  <path
     style="opacity:0.235;fill:none;fill-opacity:1;fill-rule:nonzero;stroke:#00ffff;stroke-width:1;stroke-linejoin:round;stroke-miterlimit:4;stroke-dasharray:none;stroke-opacity:1"
     d="M 0 0 L 0 90 L 728 90 L 728 0 L 0 0 z M 10.673828 8 L 29.572266 8 C 25.651157 32.819874 25.846842 57.693529 29.796875 82 L 10.919922 82 C 7.1629613 57.669974 6.9755785 32.817034 10.673828 8 z M 48.492188 8 L 67.457031 8 C 63.004681 32.82358 63.205511 57.752349 67.613281 82 L 48.708984 82 C 44.542884 57.719746 44.321268 32.823184 48.492188 8 z M 86.425781 8 L 105.43555 8 C 100.29496 32.823635 100.52453 57.832439 105.51953 82 L 86.542969 82 C 81.861239 57.789597 81.653141 32.82372 86.425781 8 z M 124.48438 8 L 143.59766 8 C 137.53011 32.813588 137.78891 57.948991 143.56445 82 L 124.50391 82 C 119.14892 57.88579 118.91762 32.819383 124.48438 8 z M 162.77344 8 L 182.04102 8 C 174.65531 32.7822 174.97545 58.129386 181.8418 82 L 162.66602 82 C 156.3944 58.028186 156.10973 32.802107 162.77344 8 z M 201.4375 8 L 220.99609 8 C 211.58124 32.696504 212.05075 58.440163 220.55469 82 L 201.125 82 C 193.53126 58.260839 193.15774 32.750431 201.4375 8 z M 240.82422 8 L 261.04102 8 C 259.35789 11.181443 257.86672 14.465779 256.59375 17.853516 C 248.47394 39.462728 250.38448 62.12666 260.14844 82 L 240.18359 82 C 231.13095 60.20294 230.02231 35.970916 238.8418 12.794922 C 239.45812 11.175337 240.12523 9.579524 240.82422 8 z M 281.94141 8 L 304.19727 8 C 298.90865 13.873564 294.75492 20.573839 292.09766 27.96875 C 285.35724 46.726808 289.8022 66.615238 302.30078 82 L 280.66211 82 C 269.85918 64.199906 266.92383 43.016691 274.3457 22.910156 C 276.29056 17.641379 278.85423 12.662583 281.94141 8 z M 330.14648 8 L 407.58984 8 C 428.23774 21.617931 437.9206 45.334412 430.17578 67.308594 C 428.29804 72.636265 425.52457 77.547443 422.05859 82 L 397.65625 82 C 404.54201 76.866005 409.80861 70.158475 412.42578 62.251953 C 419.22004 41.726379 405.11906 19.172515 380.07227 13.554688 C 357.86444 8.573617 333.5009 19.221931 327.59766 38.083984 C 322.43655 54.574793 333.88937 72.635988 354.10742 76.855469 C 357.15605 77.491713 360.25479 77.746952 363.31445 77.669922 L 363.20312 62.185547 C 362.19449 62.226125 361.17991 62.186811 360.17773 62.058594 C 349.60491 60.705911 343.40299 51.548517 345.34961 43.140625 C 347.85454 32.321351 361.48898 26.065779 374.00586 28.347656 C 389.39838 31.15377 398.21577 44.740408 394.67578 57.193359 C 391.19813 69.427072 377.68275 77.308172 363.31445 77.669922 L 363.3457 82 L 326.92969 82 C 310.95643 70.179092 303.69483 50.94415 309.84766 33.027344 C 313.37575 22.753658 320.68795 14.212556 330.14648 8 z M 363.20312 62.185547 C 369.89696 61.916244 376.31423 58.050267 376.92188 52.136719 C 377.36724 47.802354 373.68065 42.863475 367.9375 43.144531 C 365.24431 43.276327 361.31426 45.611438 363.10156 48.199219 L 363.20312 62.185547 z M 433.60742 8 L 456.03711 8 C 470.19359 28.451957 474.54642 53.630198 465.67773 77.423828 C 465.10051 78.972439 464.47496 80.497421 463.80273 82 L 443.4707 82 C 445.20963 78.921772 446.70852 75.707813 447.92773 72.365234 C 456.15753 49.802539 449.94128 25.761971 433.60742 8 z M 477.08203 8 L 497.44141 8 C 508.46411 31.013559 511.07054 56.939998 503.11523 82 L 483.60156 82 C 492.92649 56.914242 489.79149 30.541949 477.08203 8 z M 517.37695 8 L 537.05078 8 C 545.80334 31.550736 547.76139 56.986357 541.61719 82 L 522.42773 82 C 529.36336 56.963219 527.1279 31.328853 517.37695 8 z M 556.52734 8 L 575.87695 8 C 583.16076 31.840847 584.75458 57.02548 579.75977 82 L 560.72266 82 C 566.2345 57.006898 564.47509 31.715063 556.52734 8 z M 595.13281 8 L 614.2832 8 C 620.53463 32.018682 621.8977 57.058003 617.69922 82 L 598.73828 82 C 603.30166 57.04371 601.85835 31.93845 595.13281 8 z M 633.39648 8 L 652.44922 8 C 657.93364 32.137097 659.11571 57.08519 655.50195 82 L 636.60352 82 C 640.489 57.072258 639.23798 32.083356 633.39648 8 z M 671.47461 8 L 690.44727 8 C 695.3394 32.221481 696.41587 57.107246 693.25 82 L 674.38672 82 C 677.76271 57.097188 676.64472 32.182221 671.47461 8 z M 709.42578 8 L 720 8 L 720 82 L 712.0918 82 C 715.07071 57.118349 714.0687 32.253628 709.42578 8 z "
     id="rect9955" />
  <path
     inkscape:connector-curvature="0"
     id="path9871"
     d="m 62.734142,57.615477 c -3.468738,-0.240708 -6.309131,-1.304871 -8.231809,-3.084075 -1.377734,-1.274928 -2.217957,-2.766785 -2.667142,-4.735657 -0.140065,-0.61389 -0.145928,-0.838624 -0.183109,-6.998583 l -0.03836,-6.364325 -0.191977,-0.326591 c -0.214289,-0.36455 -0.578922,-0.639711 -0.9383,-0.708063 -0.507826,-0.0966 -0.482742,-0.01057 -0.462179,-1.586076 l 0.01849,-1.416854 0.479037,0.0045 c 1.641751,0.01505 3.362168,1.368405 3.952527,3.109355 0.149674,0.44142 0.151144,0.491081 0.191422,6.501191 0.04415,6.586302 0.04499,6.601425 0.448499,7.88161 0.998671,3.168457 3.876888,4.641435 9.069906,4.641682 2.33402,1.36e-4 4.089698,-0.291288 5.555066,-0.922002 0.791666,-0.340741 1.236026,-0.628591 1.834045,-1.188054 1.073817,-1.004602 1.664177,-2.24595 1.903503,-4.002536 0.048,-0.35229 0.07295,-3.152464 0.07295,-8.190037 0,-6.867597 0.01103,-7.665782 0.107531,-7.762257 0.162378,-0.162378 2.704563,-0.159876 2.867255,0.0031 0.100563,0.100563 0.108292,0.842897 0.08683,8.366005 l -0.02351,8.255646 -0.154818,0.684337 c -0.212592,0.93967 -0.444962,1.595161 -0.836942,2.360958 -1.508116,2.946326 -4.698741,4.857865 -8.958121,5.366915 -1.08693,0.129899 -2.884904,0.180703 -3.900709,0.110213 z m 163.965048,-0.0019 c -0.88614,-0.140871 -1.78936,-0.583848 -2.42841,-1.190986 -0.24175,-0.229698 -1.92179,-2.296135 -3.7334,-4.592079 -1.81161,-2.295949 -3.34406,-4.213837 -3.40544,-4.261973 -0.0889,-0.06975 -1.19582,-0.08365 -5.45075,-0.06845 -5.32501,0.01904 -5.33987,0.01947 -5.61288,0.167069 -0.1505,0.08139 -0.3725,0.250875 -0.49324,0.376639 -0.43464,0.452793 -0.4305,0.406082 -0.43166,4.873133 -6.8e-4,2.225348 -0.0259,4.085208 -0.0563,4.133025 -0.0425,0.06686 -0.39413,0.08266 -1.52159,0.06845 l -1.46642,-0.01849 0,-12.352266 0,-12.352269 9.85445,0 9.85442,0 0.67548,0.188766 c 1.32487,0.37024 2.47964,1.041761 3.4342,1.997043 1.32228,1.323284 2.09744,3.06227 2.19816,4.931291 0.21185,3.932576 -2.59744,7.330657 -6.53672,7.906655 -0.30696,0.04488 -0.55809,0.09364 -0.55809,0.108315 0,0.06394 5.23811,6.645 5.39888,6.783036 0.25223,0.216578 0.85317,0.384522 1.18564,0.331358 0.14928,-0.02386 0.3957,-0.106814 0.54765,-0.184326 0.2302,-0.117439 0.29122,-0.125699 0.36623,-0.0495 0.31303,0.31798 1.66866,2.096571 1.67002,2.19109 0.003,0.213821 -0.90772,0.721466 -1.63057,0.908773 -0.52941,0.137178 -1.36352,0.184597 -1.85972,0.105713 z M 205.5555,44.800665 c 0.18083,-0.06339 2.13984,-0.09257 8.04051,-0.119767 l 7.80142,-0.03595 0.54748,-0.18644 c 0.77988,-0.265588 1.35916,-0.626624 1.95182,-1.216447 1.67843,-1.6704 1.83524,-4.327672 0.36804,-6.236066 -0.74155,-0.96452 -1.8872,-1.601039 -3.18449,-1.769275 -0.38996,-0.05057 -3.01619,-0.06806 -8.23703,-0.05492 l -7.66458,0.01932 -0.0175,4.841679 c -0.014,3.864196 0,4.841678 0.0689,4.841678 0.0476,0 0.19403,-0.03772 0.32552,-0.0838 z M 101.84185,57.049891 c -0.0182,-0.04779 -0.0251,-5.61461 -0.0153,-12.370717 l 0.0176,-12.283835 9.92287,0 9.92288,0 0.60141,0.188656 c 1.9654,0.616508 3.44762,1.894561 4.29543,3.703785 1.19334,2.546533 0.5605,5.745509 -1.51714,7.669054 l -0.41193,0.381362 0.22696,0.182652 c 1.25042,1.006344 2.1743,2.551655 2.52904,4.230125 0.14245,0.674065 0.10798,2.151416 -0.0666,2.863256 -0.53272,2.169993 -1.85608,3.83807 -3.80937,4.801648 -0.41402,0.204242 -0.99912,0.441556 -1.30023,0.527365 l -0.54748,0.156008 -9.90738,0.01876 c -7.95831,0.01505 -9.9139,0.0017 -9.94044,-0.06812 z m 19.88508,-2.965198 c 0.72575,-0.25992 1.23914,-0.595997 1.7585,-1.151179 0.49408,-0.528188 0.71124,-0.891886 0.94917,-1.589583 0.15486,-0.454352 0.18451,-0.659284 0.18666,-1.292719 8.7e-4,-0.664471 -0.0216,-0.821355 -0.20259,-1.337477 -0.38734,-1.104023 -1.16477,-1.9844 -2.18434,-2.47363 -0.9794,-0.469943 -0.81199,-0.461027 -8.68825,-0.462854 -3.87676,-9.67e-4 -7.16469,0.01754 -7.30652,0.04098 -0.45019,0.07442 -0.93628,0.424828 -1.17286,0.845512 l -0.21168,0.376384 -0.0201,3.552915 c -0.0114,1.954103 -0.003,3.594787 0.0158,3.645967 0.0299,0.07787 1.36168,0.08995 8.16363,0.07406 l 8.12792,-0.01898 z M 105.71044,43.003688 c 0.42776,-0.08251 1.74492,-0.09941 7.90682,-0.101393 8.20415,-0.0026 7.75332,0.02139 8.67476,-0.462803 0.86125,-0.452568 1.52759,-1.264472 1.8687,-2.276929 0.18585,-0.551582 0.175,-1.592727 -0.0231,-2.226933 -0.29084,-0.930664 -1.0138,-1.803333 -1.86258,-2.248269 -0.87238,-0.457319 -0.44019,-0.43594 -9.34476,-0.462315 l -8.07516,-0.02393 -0.0176,3.994342 -0.0176,3.994341 0.18875,-0.04355 c 0.10378,-0.02396 0.4197,-0.08812 0.70199,-0.142568 z m 47.12393,14.022345 c -0.0545,-0.141641 -0.0545,-24.415026 0,-24.556658 0.0376,-0.09812 1.11953,-0.108247 11.55788,-0.108247 10.43833,0 11.5203,0.01023 11.55795,0.108247 0.023,0.05954 0.0415,0.688633 0.0415,1.397995 0,1.081264 -0.0175,1.307142 -0.10765,1.397297 -0.0967,0.09677 -1.10352,0.107531 -10.05973,0.107531 l -9.95221,0 0,3.855094 c 0,2.120301 0.0158,3.870232 0.0337,3.888736 0.0185,0.01849 0.25555,-0.02271 0.52676,-0.09159 0.46326,-0.11765 0.88535,-0.124178 6.9637,-0.107781 l 6.47055,0.01749 0,1.471321 0,1.471323 -6.36432,0.0342 c -5.6381,0.03032 -6.39166,0.04671 -6.60385,0.143602 -0.35309,0.161257 -0.67049,0.452412 -0.8413,0.771748 -0.14927,0.279006 -0.15119,0.322337 -0.17044,3.789456 l -0.0193,3.507223 10.39591,0 c 8.74781,0 10.40829,0.01488 10.47415,0.09428 0.0545,0.06563 0.0726,0.517878 0.0597,1.488433 l -0.0185,1.394135 -11.95137,0.01732 c -10.85395,0.01575 -11.95519,0.0073 -11.99299,-0.09114 z"
     style="fill:#ffffff"
     sodipodi:nodetypes="cssscssscsssscssssssscssscccssssssccscccccssssssssccsccsscssssscssscscccssscssssscscsssscsssscscscssssscsscccssccscssscscsscccsscscscscsc" />
  <g
     style="font-style:normal;font-weight:normal;font-size:19.80148697px;line-height:125%;font-family:sans-serif;letter-spacing:0px;word-spacing:0px;fill:#00ffff;fill-opacity:1;stroke:none;stroke-width:1px;stroke-linecap:butt;stroke-linejoin:miter;stroke-opacity:1"
     id="text9885">
    <path
       d="m 368.55795,27.937258 12.21157,0 0,1.643678 -5.12441,0 0,12.791684 -1.96275,0 0,-12.791684 -5.12441,0 0,-1.643678 z"
       style=""
       id="path4317" />
    <path
       d="m 385.98094,29.861329 -2.64922,7.18384 5.30811,0 -2.65889,-7.18384 z m -1.10223,-1.924071 2.21413,0 5.50149,14.435362 -2.03043,0 -1.31494,-3.70311 -6.50703,0 -1.31494,3.70311 -2.05943,0 5.51115,-14.435362 z"
       style=""
       id="path4319" />
    <path
       d="m 396.64551,29.542262 0,5.424137 2.45585,0 q 1.36329,0 2.10778,-0.705814 0.74449,-0.705815 0.74449,-2.011089 0,-1.295605 -0.74449,-2.00142 -0.74449,-0.705814 -2.10778,-0.705814 l -2.45585,0 z m -1.95307,-1.605004 4.40892,0 q 2.42684,0 3.66444,1.102231 1.24726,1.092563 1.24726,3.210007 0,2.136782 -1.24726,3.229344 -1.2376,1.092563 -3.66444,1.092563 l -2.45585,0 0,5.801217 -1.95307,0 0,-14.435362 z"
       style=""
       id="path4321" />
    <path
       d="m 417.77161,29.861329 -2.64922,7.18384 5.30811,0 -2.65889,-7.18384 z m -1.10223,-1.924071 2.21413,0 5.50149,14.435362 -2.03043,0 -1.31494,-3.70311 -6.50703,0 -1.31494,3.70311 -2.05944,0 5.51116,-14.435362 z"
       style=""
       id="path4323" />
    <path
       d="m 434.74017,35.47884 0,5.288776 3.13266,0 q 1.576,0 2.33016,-0.647802 0.76382,-0.657472 0.76382,-2.00142 0,-1.353617 -0.76382,-1.991751 -0.75416,-0.647803 -2.33016,-0.647803 l -3.13266,0 z m 0,-5.936578 0,4.350912 2.89094,0 q 1.43097,0 2.12712,-0.531778 0.70581,-0.541447 0.70581,-1.643678 0,-1.092563 -0.70581,-1.634009 -0.69615,-0.541447 -2.12712,-0.541447 l -2.89094,0 z m -1.95307,-1.605004 4.98904,0 q 2.23347,0 3.44206,0.928195 1.20859,0.928195 1.20859,2.639554 0,1.324611 -0.6188,2.107775 -0.6188,0.783164 -1.81772,0.976538 1.44064,0.309399 2.23347,1.295605 0.8025,0.976539 0.8025,2.44618 0,1.933739 -1.31494,2.987627 -1.31494,1.053888 -3.74178,1.053888 l -5.18242,0 0,-14.435362 z"
       style=""
       id="path4325" />
    <path
       d="m 446.13956,27.937258 1.96275,0 0,8.769506 q 0,2.320487 0.84117,3.345369 0.84118,1.015213 2.72657,1.015213 1.87573,0 2.71691,-1.015213 0.84117,-1.024882 0.84117,-3.345369 l 0,-8.769506 1.96275,0 0,9.011224 q 0,2.823259 -1.40196,4.263894 -1.39229,1.440636 -4.11887,1.440636 -2.73624,0 -4.1382,-1.440636 -1.39229,-1.440635 -1.39229,-4.263894 l 0,-9.011224 z"
       style=""
       id="path4327" />
    <path
       d="m 458.86357,27.937258 12.21156,0 0,1.643678 -5.12441,0 0,12.791684 -1.96275,0 0,-12.791684 -5.1244,0 0,-1.643678 z"
       style=""
       id="path4329" />
    <path
       d="m 470.67871,27.937258 12.21156,0 0,1.643678 -5.1244,0 0,12.791684 -1.96275,0 0,-12.791684 -5.12441,0 0,-1.643678 z"
       style=""
       id="path4331" />
    <path
       d="m 490.70258,29.261869 q -2.12712,0 -3.38405,1.585666 -1.24726,1.585666 -1.24726,4.321907 0,2.726572 1.24726,4.312238 1.25693,1.585666 3.38405,1.585666 2.12711,0 3.3647,-1.585666 1.24726,-1.585666 1.24726,-4.312238 0,-2.736241 -1.24726,-4.321907 -1.23759,-1.585666 -3.3647,-1.585666 z m 0,-1.585665 q 3.03597,0 4.85368,2.040094 1.81772,2.030426 1.81772,5.453144 0,3.413049 -1.81772,5.453144 -1.81771,2.030426 -4.85368,2.030426 -3.04564,0 -4.87302,-2.030426 -1.81772,-2.030426 -1.81772,-5.453144 0,-3.422718 1.81772,-5.453144 1.82738,-2.040094 4.87302,-2.040094 z"
       style=""
       id="path4333" />
    <path
       d="m 500.42928,27.937258 2.62988,0 6.40068,12.0762 0,-12.0762 1.89506,0 0,14.435362 -2.62988,0 -6.40068,-12.0762 0,12.0762 -1.89506,0 0,-14.435362 z"
       style=""
       id="path4335" />
    <path
       d="m 515.41575,39.916771 2.0401,0 0,2.455849 -2.0401,0 0,-2.455849 z"
       style=""
       id="path4337" />
    <path
       d="m 537.69243,40.313188 0,-3.877147 -3.19066,0 0,-1.605003 5.1244,0 0,6.197633 q -1.13123,0.802502 -2.49452,1.218256 -1.36329,0.406085 -2.91028,0.406085 -3.38404,0 -5.29844,-1.972414 -1.90473,-1.982082 -1.90473,-5.511156 0,-3.538742 1.90473,-5.511156 1.9144,-1.982082 5.29844,-1.982082 1.41163,0 2.67823,0.348073 1.27627,0.348073 2.34949,1.024881 l 0,2.07877 q -1.08289,-0.918526 -2.30114,-1.382624 -1.21826,-0.464097 -2.56221,-0.464097 -2.64922,0 -3.9835,1.47931 -1.32461,1.47931 -1.32461,4.408925 0,2.919946 1.32461,4.399256 1.33428,1.47931 3.9835,1.47931 1.03455,0 1.84672,-0.174036 0.81217,-0.183705 1.45997,-0.560784 z"
       style=""
       id="path4339" />
    <path
       d="m 543.20359,27.937258 9.12724,0 0,1.643678 -7.17417,0 0,4.273564 6.87444,0 0,1.643678 -6.87444,0 0,5.230764 7.34821,0 0,1.643678 -9.30128,0 0,-14.435362 z"
       style=""
       id="path4341" />
    <path
       d="m 553.69412,27.937258 12.21157,0 0,1.643678 -5.12441,0 0,12.791684 -1.96275,0 0,-12.791684 -5.12441,0 0,-1.643678 z"
       style=""
       id="path4343" />
    <path
       d="m 578.9681,29.861329 -2.64922,7.18384 5.30811,0 -2.65889,-7.18384 z m -1.10223,-1.924071 2.21413,0 5.50149,14.435362 -2.03043,0 -1.31494,-3.70311 -6.50703,0 -1.31495,3.70311 -2.05943,0 5.51116,-14.435362 z"
       style=""
       id="path4345" />
    <path
       d="m 593.98357,27.937258 8.29574,0 0,1.643678 -6.34266,0 0,4.254226 5.72386,0 0,1.643678 -5.72386,0 0,6.89378 -1.95308,0 0,-14.435362 z"
       style=""
       id="path4347" />
    <path
       d="m 612.1994,35.604533 q 0.62846,0.212712 1.21825,0.908858 0.59946,0.696146 1.19892,1.914401 l 1.98208,3.944828 -2.0981,0 -1.84672,-3.70311 q -0.71549,-1.450305 -1.3923,-1.924071 -0.66714,-0.473766 -1.82738,-0.473766 l -2.12711,0 0,6.100947 -1.95308,0 0,-14.435362 4.40893,0 q 2.47518,0 3.69344,1.034551 1.21825,1.03455 1.21825,3.122988 0,1.363286 -0.63813,2.262475 -0.62847,0.899188 -1.83705,1.247261 z m -4.89236,-6.062271 0,5.124408 2.45585,0 q 1.41162,0 2.12711,-0.647803 0.72515,-0.657471 0.72515,-1.92407 0,-1.266599 -0.72515,-1.904733 -0.71549,-0.647802 -2.12711,-0.647802 l -2.45585,0 z"
       style=""
       id="path4349" />
    <path
       d="m 619.12218,27.937258 9.12725,0 0,1.643678 -7.17417,0 0,4.273564 6.87444,0 0,1.643678 -6.87444,0 0,5.230764 7.3482,0 0,1.643678 -9.30128,0 0,-14.435362 z"
       style=""
       id="path4351" />
    <path
       d="m 631.61412,27.937258 9.12725,0 0,1.643678 -7.17417,0 0,4.273564 6.87444,0 0,1.643678 -6.87444,0 0,5.230764 7.34821,0 0,1.643678 -9.30129,0 0,-14.435362 z"
       style=""
       id="path4353" />
    <path
       d="m 657.25552,35.604533 q 0.62846,0.212712 1.21825,0.908858 0.59946,0.696146 1.19892,1.914401 l 1.98208,3.944828 -2.0981,0 -1.84672,-3.70311 q -0.71549,-1.450305 -1.3923,-1.924071 -0.66713,-0.473766 -1.82738,-0.473766 l -2.12711,0 0,6.100947 -1.95308,0 0,-14.435362 4.40893,0 q 2.47518,0 3.69344,1.034551 1.21825,1.03455 1.21825,3.122988 0,1.363286 -0.63813,2.262475 -0.62846,0.899188 -1.83705,1.247261 z m -4.89236,-6.062271 0,5.124408 2.45585,0 q 1.41163,0 2.12711,-0.647803 0.72515,-0.657471 0.72515,-1.92407 0,-1.266599 -0.72515,-1.904733 -0.71548,-0.647802 -2.12711,-0.647802 l -2.45585,0 z"
       style=""
       id="path4355" />
    <path
       d="m 664.1783,27.937258 1.95308,0 0,14.435362 -1.95308,0 0,-14.435362 z"
       style=""
       id="path4357" />
    <path
       d="m 671.97128,29.542262 0,11.225354 2.35916,0 q 2.98763,0 4.37025,-1.353617 1.3923,-1.353617 1.3923,-4.273563 0,-2.900609 -1.3923,-4.244557 -1.38262,-1.353617 -4.37025,-1.353617 l -2.35916,0 z m -1.95307,-1.605004 4.0125,0 q 4.19622,0 6.15896,1.750034 1.96275,1.740365 1.96275,5.453144 0,3.732116 -1.97242,5.48215 -1.97241,1.750034 -6.14929,1.750034 l -4.0125,0 0,-14.435362 z"
       style=""
       id="path4359" />
    <path
       d="m 685.25606,27.937258 9.12725,0 0,1.643678 -7.17417,0 0,4.273564 6.87444,0 0,1.643678 -6.87444,0 0,5.230764 7.3482,0 0,1.643678 -9.30128,0 0,-14.435362 z"
       style=""
       id="path4361" />
    <path
       d="m 697.92204,39.916771 2.04009,0 0,2.455849 -2.04009,0 0,-2.455849 z"
       style=""
       id="path4363" />
  </g>
  <g
     style="font-style:normal;font-weight:normal;font-size:14.26070023px;line-height:125%;font-family:sans-serif;letter-spacing:0px;word-spacing:0px;fill:#ffffff;fill-opacity:1;stroke:none;stroke-width:1px;stroke-linecap:butt;stroke-linejoin:miter;stroke-opacity:1"
     id="text9889">
    <path
       d="m 435.96624,60.936593 0,1.371757 q -0.80078,-0.382978 -1.51102,-0.570985 -0.71025,-0.188007 -1.37176,-0.188007 -1.14894,0 -1.77563,0.445646 -0.61972,0.445647 -0.61972,1.267309 0,0.68936 0.41083,1.044485 0.41779,0.348161 1.57369,0.564021 l 0.84951,0.174081 q 1.57369,0.299419 2.31876,1.058412 0.75203,0.752029 0.75203,2.019337 0,1.511022 -1.01663,2.290904 -1.00967,0.779882 -2.96634,0.779882 -0.7381,0 -1.57369,-0.167118 -0.82863,-0.167118 -1.71992,-0.494389 l 0,-1.448353 q 0.85648,0.480463 1.67814,0.724176 0.82166,0.243713 1.61547,0.243713 1.20464,0 1.85918,-0.473499 0.65455,-0.4735 0.65455,-1.350867 0,-0.765956 -0.4735,-1.197676 -0.46654,-0.431721 -1.53888,-0.647581 l -0.85648,-0.167118 q -1.57369,-0.313345 -2.27697,-0.981815 -0.70329,-0.668471 -0.70329,-1.859184 0,-1.37872 0.96789,-2.172528 0.97485,-0.793809 2.68084,-0.793809 0.73114,0 1.49014,0.132302 0.75899,0.132301 1.5528,0.396904 z"
       style=""
       id="path4366" />
    <path
       d="m 438.75849,63.19268 1.28124,0 0,7.798821 -1.28124,0 0,-7.798821 z m 0,-3.035969 1.28124,0 0,1.622433 -1.28124,0 0,-1.622433 z"
       style=""
       id="path4368" />
    <path
       d="m 447.84551,67.001569 q 0,-1.392647 -0.57795,-2.158602 -0.57098,-0.765956 -1.6085,-0.765956 -1.03056,0 -1.60851,0.765956 -0.57099,0.765955 -0.57099,2.158602 0,1.385683 0.57099,2.151638 0.57795,0.765956 1.60851,0.765956 1.03752,0 1.6085,-0.765956 0.57795,-0.765955 0.57795,-2.151638 z m 1.28124,3.022043 q 0,1.991484 -0.88433,2.959373 -0.88433,0.974853 -2.7087,0.974853 -0.67544,0 -1.27427,-0.104449 -0.59884,-0.09749 -1.16286,-0.306382 l 0,-1.246418 q 0.56402,0.306382 1.11411,0.45261 0.5501,0.146228 1.12108,0.146228 1.26035,0 1.88704,-0.661508 0.62669,-0.654543 0.62669,-1.984521 l 0,-0.633654 q -0.3969,0.68936 -1.01663,1.030558 -0.61973,0.341199 -1.48317,0.341199 -1.43442,0 -2.31179,-1.093228 -0.87737,-1.093227 -0.87737,-2.896704 0,-1.810441 0.87737,-2.903668 0.87737,-1.093228 2.31179,-1.093228 0.86344,0 1.48317,0.341199 0.61973,0.341198 1.01663,1.030558 l 0,-1.18375 1.28124,0 0,6.830932 z"
       style=""
       id="path4370" />
    <path
       d="m 458.24858,66.284356 0,4.707145 -1.28123,0 0,-4.665366 q 0,-1.107154 -0.43172,-1.657249 -0.43172,-0.550096 -1.29517,-0.550096 -1.03752,0 -1.63636,0.661507 -0.59883,0.661508 -0.59883,1.803478 l 0,4.407726 -1.2882,0 0,-7.798821 1.2882,0 0,1.211603 q 0.45957,-0.703287 1.0793,-1.051448 0.62669,-0.348162 1.44139,-0.348162 1.3439,0 2.03326,0.835588 0.68936,0.828625 0.68936,2.444095 z"
       style=""
       id="path4372" />
    <path
       d="m 465.22574,67.913752 0,-4.721072 1.28123,0 0,4.672329 q 0,1.107154 0.43172,1.664213 0.43173,0.550095 1.29517,0.550095 1.03752,0 1.63636,-0.661507 0.6058,-0.661507 0.6058,-1.803477 l 0,-4.421653 1.28123,0 0,7.798821 -1.28123,0 0,-1.197676 q -0.46654,0.71025 -1.08627,1.058411 -0.61276,0.341199 -1.42746,0.341199 -1.3439,0 -2.04023,-0.835588 -0.69632,-0.835588 -0.69632,-2.444095 z"
       style=""
       id="path4374" />
    <path
       d="m 475.6497,69.821678 0,4.13616 -1.2882,0 0,-10.765158 1.2882,0 0,1.18375 q 0.40386,-0.696323 1.01663,-1.030558 0.61973,-0.341199 1.4762,-0.341199 1.4205,0 2.30483,1.128044 0.8913,1.128043 0.8913,2.966337 0,1.838293 -0.8913,2.966337 -0.88433,1.128044 -2.30483,1.128044 -0.85647,0 -1.4762,-0.334236 -0.61277,-0.341198 -1.01663,-1.037521 z m 4.35898,-2.722624 q 0,-1.413536 -0.58491,-2.214308 -0.57795,-0.807735 -1.59458,-0.807735 -1.01663,0 -1.60154,0.807735 -0.57795,0.800772 -0.57795,2.214308 0,1.413536 0.57795,2.221271 0.58491,0.800772 1.60154,0.800772 1.01663,0 1.59458,-0.800772 0.58491,-0.807735 0.58491,-2.221271 z"
       style=""
       id="path4376" />
    <path
       d="m 494.48524,66.284356 0,4.707145 -1.28123,0 0,-4.665366 q 0,-1.107154 -0.43172,-1.657249 -0.43172,-0.550096 -1.29516,-0.550096 -1.03753,0 -1.63636,0.661507 -0.59884,0.661508 -0.59884,1.803478 l 0,4.407726 -1.2882,0 0,-10.83479 1.2882,0 0,4.247572 q 0.45957,-0.703287 1.0793,-1.051448 0.62669,-0.348162 1.44139,-0.348162 1.3439,0 2.03326,0.835588 0.68936,0.828625 0.68936,2.444095 z"
       style=""
       id="path4378" />
    <path
       d="m 503.72545,66.771782 0,0.626691 -5.89089,0 q 0.0836,1.323014 0.7938,2.019337 0.71722,0.68936 1.99149,0.68936 0.7381,0 1.42746,-0.181044 0.69632,-0.181044 1.37872,-0.543132 l 0,1.211603 q -0.68936,0.292455 -1.41353,0.445646 -0.72418,0.153192 -1.46925,0.153192 -1.86614,0 -2.95937,-1.086265 -1.08627,-1.086264 -1.08627,-2.938484 0,-1.914889 1.03056,-3.035969 1.03752,-1.128044 2.79226,-1.128044 1.57369,0 2.48587,1.016632 0.91915,1.009669 0.91915,2.750477 z m -1.28123,-0.376015 q -0.0139,-1.051448 -0.59188,-1.678139 -0.57098,-0.626691 -1.51798,-0.626691 -1.07234,0 -1.71992,0.605802 -0.64062,0.605801 -0.73811,1.705992 l 4.56789,-0.007 z"
       style=""
       id="path4380" />
    <path
       d="m 510.31963,64.390356 q -0.21586,-0.125338 -0.4735,-0.181044 -0.25068,-0.06267 -0.55706,-0.06267 -1.08626,0 -1.67117,0.71025 -0.57795,0.703286 -0.57795,2.026301 l 0,4.108307 -1.2882,0 0,-7.798821 1.2882,0 0,1.211603 q 0.40387,-0.71025 1.05145,-1.051448 0.64758,-0.348162 1.57369,-0.348162 0.1323,0 0.29245,0.02089 0.16016,0.01393 0.35513,0.04874 l 0.007,1.316051 z"
       style=""
       id="path4382" />
    <path
       d="m 518.05579,66.771782 0,0.626691 -5.8909,0 q 0.0836,1.323014 0.79381,2.019337 0.71721,0.68936 1.99149,0.68936 0.7381,0 1.42746,-0.181044 0.69632,-0.181044 1.37872,-0.543132 l 0,1.211603 q -0.68936,0.292455 -1.41354,0.445646 -0.72417,0.153192 -1.46924,0.153192 -1.86615,0 -2.95937,-1.086265 -1.08627,-1.086264 -1.08627,-2.938484 0,-1.914889 1.03056,-3.035969 1.03752,-1.128044 2.79226,-1.128044 1.57369,0 2.48587,1.016632 0.91915,1.009669 0.91915,2.750477 z m -1.28124,-0.376015 q -0.0139,-1.051448 -0.59187,-1.678139 -0.57099,-0.626691 -1.51799,-0.626691 -1.07233,0 -1.71991,0.605802 -0.64062,0.605801 -0.73811,1.705992 l 4.56788,-0.007 z"
       style=""
       id="path4384" />
    <path
       d="m 528.63294,60.156711 0,1.065375 -1.22553,0 q -0.68936,0 -0.96093,0.278529 -0.2646,0.278529 -0.2646,1.002705 l 0,0.68936 2.10986,0 0,0.995743 -2.10986,0 0,6.803078 -1.2882,0 0,-6.803078 -1.22553,0 0,-0.995743 1.22553,0 0,-0.543132 q 0,-1.302124 0.6058,-1.893999 0.6058,-0.598838 1.92186,-0.598838 l 1.2116,0 z"
       style=""
       id="path4386" />
    <path
       d="m 532.7482,64.090937 q -1.03056,0 -1.62939,0.807735 -0.59884,0.800772 -0.59884,2.200382 0,1.39961 0.59187,2.207345 0.59884,0.800771 1.63636,0.800771 1.0236,0 1.62244,-0.807735 0.59883,-0.807735 0.59883,-2.200381 0,-1.385683 -0.59883,-2.193418 -0.59884,-0.814699 -1.62244,-0.814699 z m 0,-1.086264 q 1.67118,0 2.62514,1.086264 0.95396,1.086265 0.95396,3.008117 0,1.914889 -0.95396,3.008116 -0.95396,1.086265 -2.62514,1.086265 -1.67814,0 -2.6321,-1.086265 -0.947,-1.093227 -0.947,-3.008116 0,-1.921852 0.947,-3.008117 0.95396,-1.086264 2.6321,-1.086264 z"
       style=""
       id="path4388" />
    <path
       d="m 542.96327,64.390356 q -0.21586,-0.125338 -0.4735,-0.181044 -0.25068,-0.06267 -0.55706,-0.06267 -1.08626,0 -1.67118,0.71025 -0.57794,0.703286 -0.57794,2.026301 l 0,4.108307 -1.2882,0 0,-7.798821 1.2882,0 0,1.211603 q 0.40386,-0.71025 1.05144,-1.051448 0.64759,-0.348162 1.5737,-0.348162 0.1323,0 0.29245,0.02089 0.16016,0.01393 0.35513,0.04874 l 0.007,1.316051 z"
       style=""
       id="path4390" />
    <path
       d="m 552.33578,73.087434 -0.69633,0 -0.007,-2.095933 q -0.73114,-0.01393 -1.46228,-0.167118 -0.73114,-0.160154 -1.46924,-0.4735 l 0,-1.253381 q 0.71025,0.445646 1.43442,0.675433 0.73114,0.222824 1.50406,0.229787 l 0,-3.175234 q -1.53887,-0.250677 -2.24216,-0.849515 -0.69632,-0.598838 -0.69632,-1.643322 0,-1.135007 0.75899,-1.789551 0.75899,-0.654544 2.17949,-0.752029 l 0,-1.63636 0.69633,0 0,1.61547 q 0.64758,0.02785 1.25338,0.139265 0.6058,0.104448 1.18375,0.292455 l 0,1.218566 q -0.57795,-0.292456 -1.19071,-0.45261 -0.60581,-0.160154 -1.24642,-0.188007 l 0,2.9733 q 1.58065,0.243713 2.32572,0.870404 0.74506,0.626691 0.74506,1.712955 0,1.176787 -0.79381,1.859183 -0.78684,0.675434 -2.27697,0.779882 l 0,2.10986 z m -0.69633,-7.457622 0,-2.854926 q -0.80773,0.09052 -1.23249,0.459574 -0.42476,0.369051 -0.42476,0.981816 0,0.598838 0.38994,0.933073 0.39691,0.334235 1.26731,0.480463 z m 0.69633,1.33694 0,3.01508 q 0.88433,-0.118375 1.32997,-0.501353 0.45261,-0.382977 0.45261,-1.009668 0,-0.612765 -0.43172,-0.974853 -0.42475,-0.362088 -1.35086,-0.529206 z"
       style=""
       id="path4392" />
    <path
       d="m 558.36594,69.807751 2.29786,0 0,-7.931122 -2.4998,0.501353 0,-1.281235 2.48588,-0.501352 1.40657,0 0,9.212356 2.29787,0 0,1.18375 -5.98838,0 0,-1.18375 z"
       style=""
       id="path4394" />
    <path
       d="m 567.21621,60.595395 5.52185,0 0,1.183749 -4.23365,0 0,2.548543 q 0.30638,-0.104448 0.61276,-0.153191 0.30639,-0.05571 0.61277,-0.05571 1.74081,0 2.75744,0.953963 1.01663,0.953963 1.01663,2.583359 0,1.67814 -1.04448,2.611213 -1.04449,0.92611 -2.94545,0.92611 -0.65455,0 -1.33694,-0.111412 -0.67544,-0.111412 -1.39961,-0.334235 l 0,-1.413536 q 0.62669,0.341198 1.29516,0.508315 0.66847,0.167118 1.41354,0.167118 1.20464,0 1.90792,-0.633654 0.70329,-0.633654 0.70329,-1.719919 0,-1.086264 -0.70329,-1.719918 -0.70328,-0.633654 -1.90792,-0.633654 -0.56403,0 -1.12805,0.125338 -0.55706,0.125338 -1.14197,0.389941 l 0,-5.222424 z"
       style=""
       id="path4396" />
    <path
       d="m 583.66336,64.090937 q -1.03056,0 -1.6294,0.807735 -0.59884,0.800772 -0.59884,2.200382 0,1.39961 0.59188,2.207345 0.59883,0.800771 1.63636,0.800771 1.02359,0 1.62243,-0.807735 0.59884,-0.807735 0.59884,-2.200381 0,-1.385683 -0.59884,-2.193418 -0.59884,-0.814699 -1.62243,-0.814699 z m 0,-1.086264 q 1.67117,0 2.62513,1.086264 0.95397,1.086265 0.95397,3.008117 0,1.914889 -0.95397,3.008116 -0.95396,1.086265 -2.62513,1.086265 -1.67814,0 -2.63211,-1.086265 -0.947,-1.093227 -0.947,-3.008116 0,-1.921852 0.947,-3.008117 0.95397,-1.086264 2.63211,-1.086264 z"
       style=""
       id="path4398" />
    <path
       d="m 593.30744,60.156711 0,1.065375 -1.22553,0 q -0.68936,0 -0.96093,0.278529 -0.2646,0.278529 -0.2646,1.002705 l 0,0.68936 2.10986,0 0,0.995743 -2.10986,0 0,6.803078 -1.2882,0 0,-6.803078 -1.22553,0 0,-0.995743 1.22553,0 0,-0.543132 q 0,-1.302124 0.6058,-1.893999 0.6058,-0.598838 1.92186,-0.598838 l 1.2116,0 z"
       style=""
       id="path4400" />
    <path
       d="m 598.34882,60.156711 0,1.065375 -1.22553,0 q -0.68936,0 -0.96093,0.278529 -0.2646,0.278529 -0.2646,1.002705 l 0,0.68936 2.10986,0 0,0.995743 -2.10986,0 0,6.803078 -1.2882,0 0,-6.803078 -1.22553,0 0,-0.995743 1.22553,0 0,-0.543132 q 0,-1.302124 0.6058,-1.893999 0.60581,-0.598838 1.92186,-0.598838 l 1.2116,0 z"
       style=""
       id="path4402" />
    <path
       d="m 607.22694,71.715677 q -0.54313,1.392647 -1.05841,1.817404 -0.51528,0.424757 -1.37872,0.424757 l -1.0236,0 0,-1.072338 0.75203,0 q 0.52921,0 0.82166,-0.250676 0.29246,-0.250677 0.64758,-1.18375 l 0.22979,-0.584911 -3.15434,-7.673483 1.35783,0 2.43713,6.099792 2.43713,-6.099792 1.35783,0 -3.42591,8.522997 z"
       style=""
       id="path4404" />
    <path
       d="m 615.44355,64.090937 q -1.03056,0 -1.62939,0.807735 -0.59884,0.800772 -0.59884,2.200382 0,1.39961 0.59187,2.207345 0.59884,0.800771 1.63636,0.800771 1.0236,0 1.62244,-0.807735 0.59883,-0.807735 0.59883,-2.200381 0,-1.385683 -0.59883,-2.193418 -0.59884,-0.814699 -1.62244,-0.814699 z m 0,-1.086264 q 1.67118,0 2.62514,1.086264 0.95396,1.086265 0.95396,3.008117 0,1.914889 -0.95396,3.008116 -0.95396,1.086265 -2.62514,1.086265 -1.67814,0 -2.6321,-1.086265 -0.947,-1.093227 -0.947,-3.008116 0,-1.921852 0.947,-3.008117 0.95396,-1.086264 2.6321,-1.086264 z"
       style=""
       id="path4406" />
    <path
       d="m 621.00718,67.913752 0,-4.721072 1.28124,0 0,4.672329 q 0,1.107154 0.43172,1.664213 0.43172,0.550095 1.29516,0.550095 1.03752,0 1.63636,-0.661507 0.6058,-0.661507 0.6058,-1.803477 l 0,-4.421653 1.28123,0 0,7.798821 -1.28123,0 0,-1.197676 q -0.46654,0.71025 -1.08627,1.058411 -0.61276,0.341199 -1.42746,0.341199 -1.3439,0 -2.04023,-0.835588 -0.69632,-0.835588 -0.69632,-2.444095 z"
       style=""
       id="path4408" />
    <path
       d="m 634.71082,64.390356 q -0.21586,-0.125338 -0.4735,-0.181044 -0.25068,-0.06267 -0.55706,-0.06267 -1.08626,0 -1.67117,0.71025 -0.57795,0.703286 -0.57795,2.026301 l 0,4.108307 -1.2882,0 0,-7.798821 1.2882,0 0,1.211603 q 0.40387,-0.71025 1.05145,-1.051448 0.64758,-0.348162 1.57369,-0.348162 0.1323,0 0.29245,0.02089 0.16016,0.01393 0.35513,0.04874 l 0.007,1.316051 z"
       style=""
       id="path4410" />
    <path
       d="m 644.55683,60.156711 0,1.065375 -1.22553,0 q -0.68936,0 -0.96093,0.278529 -0.2646,0.278529 -0.2646,1.002705 l 0,0.68936 2.10986,0 0,0.995743 -2.10986,0 0,6.803078 -1.2882,0 0,-6.803078 -1.22553,0 0,-0.995743 1.22553,0 0,-0.543132 q 0,-1.302124 0.6058,-1.893999 0.6058,-0.598838 1.92185,-0.598838 l 1.21161,0 z"
       style=""
       id="path4412" />
    <path
       d="m 645.65006,63.19268 1.28123,0 0,7.798821 -1.28123,0 0,-7.798821 z m 0,-3.035969 1.28123,0 0,1.622433 -1.28123,0 0,-1.622433 z"
       style=""
       id="path4414" />
    <path
       d="m 654.12432,64.390356 q -0.21586,-0.125338 -0.4735,-0.181044 -0.25068,-0.06267 -0.55706,-0.06267 -1.08626,0 -1.67118,0.71025 -0.57794,0.703286 -0.57794,2.026301 l 0,4.108307 -1.2882,0 0,-7.798821 1.2882,0 0,1.211603 q 0.40386,-0.71025 1.05144,-1.051448 0.64758,-0.348162 1.57369,-0.348162 0.13231,0 0.29246,0.02089 0.16015,0.01393 0.35512,0.04874 l 0.007,1.316051 z"
       style=""
       id="path4416" />
    <path
       d="m 660.4539,63.422467 0,1.211603 q -0.54314,-0.27853 -1.12805,-0.417794 -0.58491,-0.139265 -1.2116,-0.139265 -0.95396,0 -1.43443,0.292456 -0.4735,0.292455 -0.4735,0.877367 0,0.445647 0.3412,0.703287 0.3412,0.250676 1.37176,0.480463 l 0.43868,0.09749 q 1.3648,0.292456 1.93578,0.828624 0.57795,0.529206 0.57795,1.483169 0,1.086264 -0.86344,1.719918 -0.85648,0.633655 -2.36054,0.633655 -0.62669,0 -1.30908,-0.125339 -0.67544,-0.118375 -1.42747,-0.362088 l 0,-1.323014 q 0.71025,0.369051 1.39961,0.557059 0.68936,0.181044 1.3648,0.181044 0.90522,0 1.39264,-0.306382 0.48743,-0.313346 0.48743,-0.877368 0,-0.522242 -0.35513,-0.800771 -0.34816,-0.27853 -1.53887,-0.536169 l -0.44565,-0.104449 q -1.19071,-0.250676 -1.71992,-0.765955 -0.5292,-0.522243 -0.5292,-1.427463 0,-1.100191 0.77988,-1.699029 0.77988,-0.598838 2.21431,-0.598838 0.71025,0 1.33694,0.104449 0.62669,0.104448 1.1559,0.313345 z"
       style=""
       id="path4418" />
    <path
       d="m 664.18618,60.978372 0,2.214308 2.63906,0 0,0.995743 -2.63906,0 0,4.233645 q 0,0.953963 0.25764,1.225529 0.2646,0.271566 1.06537,0.271566 l 1.31605,0 0,1.072338 -1.31605,0 q -1.48317,0 -2.04719,-0.550096 -0.56402,-0.557058 -0.56402,-2.019337 l 0,-4.233645 -0.94004,0 0,-0.995743 0.94004,0 0,-2.214308 1.2882,0 z"
       style=""
       id="path4420" />
    <path
       d="m 674.32465,60.978372 0,2.214308 2.63907,0 0,0.995743 -2.63907,0 0,4.233645 q 0,0.953963 0.25764,1.225529 0.2646,0.271566 1.06538,0.271566 l 1.31605,0 0,1.072338 -1.31605,0 q -1.48317,0 -2.04719,-0.550096 -0.56403,-0.557058 -0.56403,-2.019337 l 0,-4.233645 -0.94003,0 0,-0.995743 0.94003,0 0,-2.214308 1.2882,0 z"
       style=""
       id="path4422" />
    <path
       d="m 683.17492,64.390356 q -0.21586,-0.125338 -0.4735,-0.181044 -0.25068,-0.06267 -0.55706,-0.06267 -1.08627,0 -1.67118,0.71025 -0.57795,0.703286 -0.57795,2.026301 l 0,4.108307 -1.28819,0 0,-7.798821 1.28819,0 0,1.211603 q 0.40387,-0.71025 1.05145,-1.051448 0.64758,-0.348162 1.57369,-0.348162 0.1323,0 0.29246,0.02089 0.16015,0.01393 0.35512,0.04874 l 0.007,1.316051 z"
       style=""
       id="path4424" />
    <path
       d="m 684.53275,63.19268 1.28123,0 0,7.798821 -1.28123,0 0,-7.798821 z m 0,-3.035969 1.28123,0 0,1.622433 -1.28123,0 0,-1.622433 z"
       style=""
       id="path4426" />
    <path
       d="m 689.72731,69.821678 0,4.13616 -1.2882,0 0,-10.765158 1.2882,0 0,1.18375 q 0.40387,-0.696323 1.01663,-1.030558 0.61973,-0.341199 1.47621,-0.341199 1.4205,0 2.30483,1.128044 0.89129,1.128043 0.89129,2.966337 0,1.838293 -0.89129,2.966337 -0.88433,1.128044 -2.30483,1.128044 -0.85648,0 -1.47621,-0.334236 -0.61276,-0.341198 -1.01663,-1.037521 z m 4.35898,-2.722624 q 0,-1.413536 -0.58491,-2.214308 -0.57795,-0.807735 -1.59458,-0.807735 -1.01663,0 -1.60154,0.807735 -0.57795,0.800772 -0.57795,2.214308 0,1.413536 0.57795,2.221271 0.58491,0.800772 1.60154,0.800772 1.01663,0 1.59458,-0.800772 0.58491,-0.807735 0.58491,-2.221271 z"
       style=""
       id="path4428" />
    <path
       d="m 698.34781,69.22284 1.41353,0 0,1.768661 -1.41353,0 0,-1.768661 z m 0,-8.627445 1.41353,0 0,4.560917 -0.13926,2.485874 -1.12805,0 -0.14622,-2.485874 0,-4.560917 z"
       style=""
       id="path4430" />
  </g>
</svg>
